{
DisplayStrings = (
"~"
);
copyright = "Copyright (c) 2015 Christopher Simpkins / Copyright (c) 2003 by Bitstream, Inc. All Rights Reserved.";
customParameters = (
{
name = glyphOrder;
value = (
    ".notdef",
    NULL,
    nonmarkingreturn,
    space,
    Abreve,
    Acircumflex,
    Adieresis,
    Agrave,
    Amacron,
    Aogonek,
    Aring,
    Atilde,
    AE,
    B,
    C,
    Cacute,
    Ccaron,
    Ccedilla,
    Cdotaccent,
    D,
    Eth,
    Dcaron,
    Dcroat,
    E,
    Eacute,
    Ecaron,
    Ecircumflex,
    Edieresis,
    Edotaccent,
    Egrave,
    Emacron,
    Eogonek,
    F,
    G,
    Gbreve,
    Gcaron,
    uni0122,
    Gdotaccent,
    H,
    Hbar,
    I,
    Iacute,
    Icircumflex,
    Idieresis,
    Idotaccent,
    Igrave,
    Imacron,
    Iogonek,
    Itilde,
    J,
    K,
    uni0136,
    L,
    Lacute,
    Lcaron,
    uni013B,
    Lslash,
    M,
    N,
    Nacute,
    Ncaron,
    uni0145,
    Eng,
    Ntilde,
    O,
    Oacute,
    Ocircumflex,
    Odieresis,
    Ograve,
    Ohorn,
    Ohungarumlaut,
    Omacron,
    Oslash,
    Oslashacute,
    Otilde,
    OE,
    P,
    Thorn,
    Q,
    R,
    Racute,
    Rcaron,
    uni0156,
    S,
    Sacute,
    Scaron,
    Scedilla,
    uni0218,
    T,
    Tbar,
    Tcaron,
    uni021A,
    U,
    Uacute,
    Ucircumflex,
    Udieresis,
    Ugrave,
    Uhorn,
    Uhungarumlaut,
    Umacron,
    Uogonek,
    Uring,
    Utilde,
    V,
    W,
    Wacute,
    Wcircumflex,
    Wdieresis,
    Wgrave,
    X,
    Y,
    Yacute,
    Ycircumflex,
    Ydieresis,
    Ygrave,
    Z,
    Zacute,
    Zcaron,
    Zdotaccent,
    a,
    aacute,
    abreve,
    acircumflex,
    adieresis,
    agrave,
    amacron,
    aogonek,
    aring,
    atilde,
    ae,
    b,
    c,
    cacute,
    ccaron,
    ccedilla,
    cdotaccent,
    d,
    eth,
    dcaron,
    dcroat,
    e,
    eacute,
    ecaron,
    ecircumflex,
    edieresis,
    edotaccent,
    egrave,
    emacron,
    eogonek,
    f,
    g,
    gbreve,
    gcaron,

glyphs = (
{
glyphname = .notdef;
layers = (
{
layerId = "1D6BC6EA-621B-4B6F-A209-F2A632971314";
name = Regular;
paths = (
{
closed = 1;
nodes = (
"104 1444 LINE",
"104 -362 LINE",
"1128 -362 LINE",
"1128 1444 LINE"
);
},
{
closed = 1;
nodes = (
"1014 -248 LINE",
"219 -248 LINE",
"219 1329 LINE",
"1014 1329 LINE"
);
}
);
width = 1233;
}
);
note = "\012\011.notdef\012  ";
},
{
glyphname = Abreve;
layers = (
{
layerId = "1D6BC6EA-621B-4B6F-A209-F2A632971314";
name = Regular;
paths = (
{
closed = 1;
nodes = (
"809 1589 OFFCURVE",
"915 1671 OFFCURVE",
"930 1831 CURVE",
"811 1831 LINE",
"791 1757 OFFCURVE",
"727 1720 OFFCURVE",
"618 1720 CURVE SMOOTH",
"505 1720 OFFCURVE",
"438 1759 OFFCURVE",
"422 1831 CURVE",
"303 1831 LINE",
"318 1670 OFFCURVE",
"423 1589 OFFCURVE",
"616 1589 CURVE SMOOTH"
);
},
{
closed = 1;
nodes = (
"37 0 LINE",
"246 0 LINE",
"354 389 LINE",
"877 389 LINE",
"987 0 LINE",
"1196 0 LINE",
"739 1493 LINE",
"494 1493 LINE"
);
},
{
closed = 1;
nodes = (
"403 551 LINE",
"616 1315 LINE",
"829 551 LINE"
);
}
);
width = 1233;
}
);
note = "\012\011Abreve\012  ";
unicode = 0102;
},
{
glyphname = Acircumflex;
layers = (
{
layerId = "1D6BC6EA-621B-4B6F-A209-F2A632971314";
name = Regular;
paths = (
{
closed = 1;
nodes = (
"311 1586 LINE",
"451 1586 LINE",
"616 1764 LINE",
"782 1586 LINE",
"922 1586 LINE",
"711 1852 LINE",
"522 1852 LINE"
);
},
{
closed = 1;
nodes = (
"37 0 LINE",
"246 0 LINE",
"354 389 LINE",
"877 389 LINE",
"987 0 LINE",
"1196 0 LINE",
"739 1493 LINE",
"494 1493 LINE"
);
},
{
closed = 1;
nodes = (
"403 551 LINE",
"616 1315 LINE",
"829 551 LINE"
);
}
);
width = 1233;
}
);
note = "\012\011Acircumflex\012  ";
unicode = 00C2;
},
{
glyphname = Adieresis;
layers = (
{
layerId = "1D6BC6EA-621B-4B6F-A209-F2A632971314";
name = Regular;
paths = (
{
closed = 1;
nodes = (
"492 1647 LINE SMOOTH",
"512 1647 OFFCURVE",
"522 1657 OFFCURVE",
"522 1677 CURVE SMOOTH",
"522 1820 LINE SMOOTH",
"522 1840 OFFCURVE",
"512 1850 OFFCURVE",
"492 1850 CURVE SMOOTH",
"349 1850 LINE SMOOTH",
"329 1850 OFFCURVE",
"319 1840 OFFCURVE",
"319 1820 CURVE SMOOTH",
"319 1677 LINE SMOOTH",
"319 1657 OFFCURVE",
"329 1647 OFFCURVE",
"349 1647 CURVE SMOOTH"
);
},
{
closed = 1;
nodes = (
"883 1647 LINE SMOOTH",
"903 1647 OFFCURVE",
"913 1657 OFFCURVE",
"913 1677 CURVE SMOOTH",
"913 1820 LINE SMOOTH",
"913 1840 OFFCURVE",
"903 1850 OFFCURVE",
"883 1850 CURVE SMOOTH",
"741 1850 LINE SMOOTH",
"721 1850 OFFCURVE",
"711 1840 OFFCURVE",
"711 1820 CURVE SMOOTH",
"711 1677 LINE SMOOTH",
"711 1657 OFFCURVE",
"721 1647 OFFCURVE",
"741 1647 CURVE SMOOTH"
);
},
{
closed = 1;
nodes = (
"37 0 LINE",
"246 0 LINE",
"354 389 LINE",
"877 389 LINE",
"987 0 LINE",
"1196 0 LINE",
"739 1493 LINE",
"494 1493 LINE"
);
},
{
closed = 1;
nodes = (
"403 551 LINE",
"616 1315 LINE",
"829 551 LINE"
);
}
);
width = 1233;
}
);
note = "\012\011Adieresis\012  ";
unicode = 00C4;
},
{
glyphname = Agrave;
layers = (
{
layerId = "1D6BC6EA-621B-4B6F-A209-F2A632971314";
name = Regular;
paths = (
{
closed = 1;
nodes = (
"585 1585 LINE",
"739 1585 LINE",
"542 1849 LINE",
"358 1849 LINE"
);
},
{
closed = 1;
nodes = (
"37 0 LINE",
"246 0 LINE",
"354 389 LINE",
"877 389 LINE",
"987 0 LINE",
"1196 0 LINE",
"739 1493 LINE",
"494 1493 LINE"
);
},
{
closed = 1;
nodes = (
"403 551 LINE",
"616 1315 LINE",
"829 551 LINE"
);
}
);
width = 1233;
}
);
note = "\012\011Agrave\012  ";
unicode = 00C0;
},
{
glyphname = Amacron;
layers = (
{
layerId = "1D6BC6EA-621B-4B6F-A209-F2A632971314";
name = Regular;
paths = (
{
closed = 1;
nodes = (
"317 1652 LINE",
"915 1652 LINE",
"915 1800 LINE",
"317 1800 LINE"
);
},
{
closed = 1;
nodes = (
"37 0 LINE",
"246 0 LINE",
"354 389 LINE",
"877 389 LINE",
"987 0 LINE",
"1196 0 LINE",
"739 1493 LINE",
"494 1493 LINE"
);
},
{
closed = 1;
nodes = (
"403 551 LINE",
"616 1315 LINE",
"829 551 LINE"
);
}
);
width = 1233;
}
);
note = "\012\011Amacron\012  ";
unicode = 0100;
},
{
glyphname = Aogonek;
layers = (
{
layerId = "1D6BC6EA-621B-4B6F-A209-F2A632971314";
name = Regular;
paths = (
{
closed = 1;
nodes = (
"1052 -272 OFFCURVE",
"1014 -240 OFFCURVE",
"1014 -184 CURVE SMOOTH",
"1014 -139 OFFCURVE",
"1038 -87 OFFCURVE",
"1102 0 CURVE",
"1196 0 LINE",
"739 1493 LINE",
"494 1493 LINE",
"37 0 LINE",
"246 0 LINE",
"354 389 LINE",
"877 389 LINE",
"987 0 LINE",
"983 0 LINE",
"901 -93 OFFCURVE",
"875 -157 OFFCURVE",
"875 -222 CURVE SMOOTH",
"875 -339 OFFCURVE",
"955 -395 OFFCURVE",
"1106 -395 CURVE SMOOTH",
"1150 -395 OFFCURVE",
"1174 -391 OFFCURVE",
"1233 -375 CURVE",
"1233 -242 LINE",
"1192 -262 OFFCURVE",
"1165 -272 OFFCURVE",
"1124 -272 CURVE SMOOTH"
);
},
{
closed = 1;
nodes = (
"403 551 LINE",
"616 1315 LINE",
"829 551 LINE"
);
}
);
width = 1233;
}
);
note = "\012\011Aogonek\012  ";
unicode = 0104;
},
{
glyphname = Aring;
layers = (
{
layerId = "1D6BC6EA-621B-4B6F-A209-F2A632971314";
name = Regular;
paths = (
{
closed = 1;
nodes = (
"37 0 LINE",
"246 0 LINE",
"354 389 LINE",
"877 389 LINE",
"987 0 LINE",
"1196 0 LINE",
"768 1399 LINE",
"808 1424 OFFCURVE",
"838 1455 OFFCURVE",
"859 1494 CURVE SMOOTH",
"880 1533 OFFCURVE",
"891 1577 OFFCURVE",
"891 1625 CURVE SMOOTH",
"891 1706 OFFCURVE",
"859 1774 OFFCURVE",
"812 1821 CURVE SMOOTH",
"763 1870 OFFCURVE",
"693 1901 OFFCURVE",
"616 1901 CURVE SMOOTH",
"540 1901 OFFCURVE",
"471 1871 OFFCURVE",
"422 1822 CURVE SMOOTH",
"373 1773 OFFCURVE",
"342 1704 OFFCURVE",
"342 1625 CURVE SMOOTH",
"342 1578 OFFCURVE",
"352 1533 OFFCURVE",
"375 1492 CURVE SMOOTH",
"395 1455 OFFCURVE",
"425 1422 OFFCURVE",
"465 1399 CURVE"
);
},
{
closed = 1;
nodes = (
"574 1475 OFFCURVE",
"538 1490 OFFCURVE",
"509 1519 CURVE SMOOTH",
"480 1548 OFFCURVE",
"465 1584 OFFCURVE",
"465 1626 CURVE SMOOTH",
"465 1669 OFFCURVE",
"480 1706 OFFCURVE",
"509 1735 CURVE SMOOTH",
"538 1764 OFFCURVE",
"573 1778 OFFCURVE",
"615 1778 CURVE SMOOTH",
"654 1778 OFFCURVE",
"693 1765 OFFCURVE",
"724 1734 CURVE SMOOTH",
"751 1707 OFFCURVE",
"768 1671 OFFCURVE",
"768 1626 CURVE SMOOTH",
"768 1584 OFFCURVE",
"753 1548 OFFCURVE",
"724 1519 CURVE SMOOTH",
"697 1492 OFFCURVE",
"661 1475 OFFCURVE",
"616 1475 CURVE SMOOTH"
);
},
{
closed = 1;
nodes = (
"403 551 LINE",
"616 1311 LINE",
"829 551 LINE"
);
}
);
width = 1233;
}
);
note = "\012\011Aring\012  ";
unicode = 00C5;
},
{
glyphname = Atilde;
layers = (
{
layerId = "1D6BC6EA-621B-4B6F-A209-F2A632971314";
name = Regular;
paths = (
{
closed = 1;
nodes = (
"412 1587 LINE",
"412 1593 LINE SMOOTH",
"412 1622 OFFCURVE",
"419 1646 OFFCURVE",
"432 1663 CURVE SMOOTH",
"445 1680 OFFCURVE",
"465 1688 OFFCURVE",
"485 1688 CURVE SMOOTH",
"492 1688 OFFCURVE",
"503 1687 OFFCURVE",
"514 1683 CURVE",
"526 1678 OFFCURVE",
"540 1672 OFFCURVE",
"555 1663 CURVE SMOOTH",
"612 1630 LINE",
"653 1609 OFFCURVE",
"675 1600 OFFCURVE",
"694 1595 CURVE SMOOTH",
"715 1590 OFFCURVE",
"736 1587 OFFCURVE",
"757 1587 CURVE SMOOTH",
"814 1587 OFFCURVE",
"859 1607 OFFCURVE",
"893 1647 CURVE SMOOTH",
"928 1687 OFFCURVE",
"945 1740 OFFCURVE",
"946 1806 CURVE",
"821 1806 LINE",
"821 1800 LINE SMOOTH",
"821 1773 OFFCURVE",
"814 1751 OFFCURVE",
"801 1734 CURVE SMOOTH",
"788 1717 OFFCURVE",
"771 1708 OFFCURVE",
"750 1708 CURVE SMOOTH",
"739 1708 OFFCURVE",
"729 1710 OFFCURVE",
"718 1714 CURVE",
"705 1718 OFFCURVE",
"692 1724 OFFCURVE",
"678 1733 CURVE",
"621 1763 LINE SMOOTH",
"586 1782 OFFCURVE",
"562 1793 OFFCURVE",
"542 1798 CURVE SMOOTH",
"519 1803 OFFCURVE",
"497 1806 OFFCURVE",
"476 1806 CURVE SMOOTH",
"419 1806 OFFCURVE",
"373 1786 OFFCURVE",
"339 1747 CURVE SMOOTH",
"302 1704 OFFCURVE",
"287 1651 OFFCURVE",
"287 1587 CURVE"
);
},
{
closed = 1;
nodes = (
"37 0 LINE",
"246 0 LINE",
"354 389 LINE",
"877 389 LINE",
"987 0 LINE",
"1196 0 LINE",
"739 1493 LINE",
"494 1493 LINE"
);
},
{
closed = 1;
nodes = (
"403 551 LINE",
"616 1315 LINE",
"829 551 LINE"
);
}
);
width = 1233;
}
);
note = "\012\011Atilde\012  ";
unicode = 00C3;
},
{
glyphname = AE;
layers = (
{
layerId = "1D6BC6EA-621B-4B6F-A209-F2A632971314";
name = Regular;
paths = (
{
closed = 1;
nodes = (
"0 0 LINE",
"184 0 LINE",
"285 383 LINE",
"637 383 LINE",
"637 0 LINE",
"1180 0 LINE",
"1180 170 LINE",
"823 170 LINE",
"823 711 LINE",
"1130 711 LINE",
"1130 881 LINE",
"823 881 LINE",
"823 1323 LINE",
"1161 1323 LINE",
"1161 1493 LINE",
"410 1493 LINE"
);
},
{
closed = 1;
nodes = (
"328 551 LINE",
"530 1323 LINE",
"637 1323 LINE",
"637 551 LINE"
);
}
);
width = 1233;
}
);
note = "\012\011AE\012  ";
unicode = 00C6;
},
{
glyphname = B;
layers = (
{
layerId = "1D6BC6EA-621B-4B6F-A209-F2A632971314";
name = Regular;
paths = (
{
closed = 1;
nodes = (
"166 0 LINE",
"608 0 LINE SMOOTH",
"783 0 OFFCURVE",
"915 35 OFFCURVE",
"1004 104 CURVE SMOOTH",
"1093 173 OFFCURVE",
"1137 274 OFFCURVE",
"1137 409 CURVE SMOOTH",
"1137 518 OFFCURVE",
"1109 606 OFFCURVE",
"1054 674 CURVE SMOOTH",
"999 742 OFFCURVE",
"922 784 OFFCURVE",
"823 799 CURVE",
"912 812 OFFCURVE",
"977 847 OFFCURVE",
"1020 898 CURVE SMOOTH",
"1061 949 OFFCURVE",
"1085 1020 OFFCURVE",
"1085 1113 CURVE SMOOTH",
"1085 1234 OFFCURVE",
"1044 1328 OFFCURVE",
"961 1394 CURVE SMOOTH",
"878 1460 OFFCURVE",
"760 1493 OFFCURVE",
"608 1493 CURVE SMOOTH",
"166 1493 LINE"
);
},
{
closed = 1;
nodes = (
"369 877 LINE",
"369 1327 LINE",
"604 1327 LINE SMOOTH",
"703 1327 OFFCURVE",
"774 1310 OFFCURVE",
"817 1277 CURVE SMOOTH",
"860 1244 OFFCURVE",
"881 1191 OFFCURVE",
"881 1111 CURVE SMOOTH",
"881 1030 OFFCURVE",
"859 971 OFFCURVE",
"816 934 CURVE SMOOTH",
"772 895 OFFCURVE",
"705 877 OFFCURVE",
"604 877 CURVE SMOOTH"
);
},
{
closed = 1;
nodes = (
"369 166 LINE",
"369 713 LINE",
"608 713 LINE SMOOTH",
"719 713 OFFCURVE",
"802 690 OFFCURVE",
"855 645 CURVE SMOOTH",
"908 599 OFFCURVE",
"934 527 OFFCURVE",
"934 430 CURVE SMOOTH",
"934 336 OFFCURVE",
"909 269 OFFCURVE",
"859 228 CURVE SMOOTH",
"808 187 OFFCURVE",
"725 166 OFFCURVE",
"608 166 CURVE SMOOTH"
);
}
);
width = 1233;
}
);
note = "\012\011B\012  ";
unicode = 0042;
},
{
glyphname = C;
layers = (
{
layerId = "1D6BC6EA-621B-4B6F-A209-F2A632971314";
name = Regular;
paths = (
{
closed = 1;
nodes = (
"802 -29 OFFCURVE",
"863 -22 OFFCURVE",
"915 -9 CURVE SMOOTH",
"968 5 OFFCURVE",
"1021 26 OFFCURVE",
"1073 53 CURVE",
"1073 260 LINE",
"1024 219 OFFCURVE",
"971 188 OFFCURVE",
"916 167 CURVE SMOOTH",
"859 146 OFFCURVE",
"803 135 OFFCURVE",
"743 135 CURVE SMOOTH",
"612 135 OFFCURVE",
"513 186 OFFCURVE",
"448 287 CURVE SMOOTH",
"383 388 OFFCURVE",
"350 541 OFFCURVE",
"350 745 CURVE SMOOTH",
"350 950 OFFCURVE",
"383 1103 OFFCURVE",
"448 1204 CURVE SMOOTH",
"513 1305 OFFCURVE",
"612 1356 OFFCURVE",
"741 1356 CURVE SMOOTH",
"801 1356 OFFCURVE",
"857 1345 OFFCURVE",
"914 1324 CURVE SMOOTH",
"971 1303 OFFCURVE",
"1024 1272 OFFCURVE",
"1073 1231 CURVE",
"1073 1438 LINE",
"1025 1465 OFFCURVE",
"963 1488 OFFCURVE",
"915 1500 CURVE SMOOTH",
"867 1512 OFFCURVE",
"806 1520 OFFCURVE",
"742 1520 CURVE SMOOTH",
"555 1520 OFFCURVE",
"405 1453 OFFCURVE",
"298 1316 CURVE SMOOTH",
"191 1179 OFFCURVE",
"139 985 OFFCURVE",
"139 744 CURVE SMOOTH",
"139 503 OFFCURVE",
"192 310 OFFCURVE",
"297 174 CURVE SMOOTH",
"404 37 OFFCURVE",
"555 -29 OFFCURVE",
"742 -29 CURVE SMOOTH"
);
}
);
width = 1233;
}
);
note = "\012\011C\012  ";
unicode = 0043;
},
{
glyphname = Cacute;
layers = (
{
layerId = "1D6BC6EA-621B-4B6F-A209-F2A632971314";
name = Regular;
paths = (
{
closed = 1;
nodes = (
"565 1588 LINE",
"719 1588 LINE",
"948 1852 LINE",
"762 1852 LINE"
);
},
{
closed = 1;
nodes = (
"802 -29 OFFCURVE",
"863 -22 OFFCURVE",
"915 -9 CURVE SMOOTH",
"968 5 OFFCURVE",
"1021 26 OFFCURVE",
"1073 53 CURVE",
"1073 260 LINE",
"1024 219 OFFCURVE",
"971 188 OFFCURVE",
"916 167 CURVE SMOOTH",
"859 146 OFFCURVE",
"801 135 OFFCURVE",
"742 135 CURVE SMOOTH",
"606 135 OFFCURVE",
"511 191 OFFCURVE",
"448 287 CURVE SMOOTH",
"383 388 OFFCURVE",
"350 541 OFFCURVE",
"350 745 CURVE SMOOTH",
"350 950 OFFCURVE",
"383 1103 OFFCURVE",
"448 1204 CURVE SMOOTH",
"513 1305 OFFCURVE",
"612 1356 OFFCURVE",
"741 1356 CURVE SMOOTH",
"801 1356 OFFCURVE",
"857 1345 OFFCURVE",
"914 1324 CURVE SMOOTH",
"971 1303 OFFCURVE",
"1024 1272 OFFCURVE",
"1073 1231 CURVE",
"1073 1438 LINE",
"1022 1465 OFFCURVE",
"966 1487 OFFCURVE",
"915 1500 CURVE SMOOTH",
"863 1513 OFFCURVE",
"802 1520 OFFCURVE",
"742 1520 CURVE SMOOTH",
"551 1520 OFFCURVE",
"402 1449 OFFCURVE",
"298 1316 CURVE SMOOTH",
"191 1179 OFFCURVE",
"139 985 OFFCURVE",
"139 744 CURVE SMOOTH",
"139 503 OFFCURVE",
"192 310 OFFCURVE",
"297 174 CURVE SMOOTH",
"401 41 OFFCURVE",
"551 -29 OFFCURVE",
"742 -29 CURVE SMOOTH"
);
}
);
width = 1233;
}
);
note = "\012\011Cacute\012  ";
unicode = 0106;
},
{
glyphname = Ccaron;
layers = (
{
layerId = "1D6BC6EA-621B-4B6F-A209-F2A632971314";
name = Regular;
paths = (
{
closed = 1;
nodes = (
"612 1586 LINE",
"801 1586 LINE",
"1012 1852 LINE",
"872 1852 LINE",
"706 1674 LINE",
"541 1852 LINE",
"401 1852 LINE"
);
},
{
closed = 1;
nodes = (
"802 -29 OFFCURVE",
"863 -22 OFFCURVE",
"915 -9 CURVE SMOOTH",
"968 5 OFFCURVE",
"1021 26 OFFCURVE",
"1073 53 CURVE",
"1073 260 LINE",
"1024 219 OFFCURVE",
"971 188 OFFCURVE",
"916 167 CURVE SMOOTH",
"859 146 OFFCURVE",
"801 135 OFFCURVE",
"742 135 CURVE SMOOTH",
"606 135 OFFCURVE",
"511 191 OFFCURVE",
"448 287 CURVE SMOOTH",
"383 388 OFFCURVE",
"350 541 OFFCURVE",
"350 745 CURVE SMOOTH",
"350 950 OFFCURVE",
"383 1103 OFFCURVE",
"448 1204 CURVE SMOOTH",
"513 1305 OFFCURVE",
"612 1356 OFFCURVE",
"741 1356 CURVE SMOOTH",
"801 1356 OFFCURVE",
"857 1345 OFFCURVE",
"914 1324 CURVE SMOOTH",
"971 1303 OFFCURVE",
"1024 1272 OFFCURVE",
"1073 1231 CURVE",
"1073 1438 LINE",
"1022 1465 OFFCURVE",
"966 1487 OFFCURVE",
"915 1500 CURVE SMOOTH",
"863 1513 OFFCURVE",
"802 1520 OFFCURVE",
"742 1520 CURVE SMOOTH",
"551 1520 OFFCURVE",
"402 1449 OFFCURVE",
"298 1316 CURVE SMOOTH",
"191 1179 OFFCURVE",
"139 985 OFFCURVE",
"139 744 CURVE SMOOTH",
"139 503 OFFCURVE",
"192 310 OFFCURVE",
"297 174 CURVE SMOOTH",
"401 41 OFFCURVE",
"551 -29 OFFCURVE",
"742 -29 CURVE SMOOTH"
);
}
);
width = 1233;
}
);
note = "\012\011Ccaron\012  ";
unicode = 010C;
},
{
glyphname = Ccedilla;
layers = (
{
layerId = "1D6BC6EA-621B-4B6F-A209-F2A632971314";
name = Regular;
paths = (
{
closed = 1;
nodes = (
"801 1356 OFFCURVE",
"857 1345 OFFCURVE",
"914 1324 CURVE SMOOTH",
"971 1303 OFFCURVE",
"1024 1272 OFFCURVE",
"1073 1231 CURVE",
"1073 1438 LINE",
"1022 1465 OFFCURVE",
"966 1487 OFFCURVE",
"915 1500 CURVE SMOOTH",
"863 1513 OFFCURVE",
"802 1520 OFFCURVE",
"742 1520 CURVE SMOOTH",
"551 1520 OFFCURVE",
"402 1449 OFFCURVE",
"298 1316 CURVE SMOOTH",
"191 1179 OFFCURVE",
"139 985 OFFCURVE",
"139 744 CURVE SMOOTH",
"139 503 OFFCURVE",
"192 310 OFFCURVE",
"297 174 CURVE SMOOTH",
"393 51 OFFCURVE",
"529 -17 OFFCURVE",
"701 -28 CURVE",
"722 -58 OFFCURVE",
"737 -84 OFFCURVE",
"748 -105 CURVE SMOOTH",
"763 -134 OFFCURVE",
"770 -159 OFFCURVE",
"770 -180 CURVE SMOOTH",
"770 -209 OFFCURVE",
"760 -232 OFFCURVE",
"740 -248 CURVE SMOOTH",
"720 -264 OFFCURVE",
"689 -272 OFFCURVE",
"646 -272 CURVE SMOOTH",
"623 -272 OFFCURVE",
"592 -270 OFFCURVE",
"567 -265 CURVE SMOOTH",
"542 -260 OFFCURVE",
"518 -251 OFFCURVE",
"495 -240 CURVE",
"495 -371 LINE",
"523 -379 OFFCURVE",
"552 -385 OFFCURVE",
"583 -389 CURVE SMOOTH",
"612 -393 OFFCURVE",
"641 -395 OFFCURVE",
"670 -395 CURVE SMOOTH",
"753 -395 OFFCURVE",
"810 -379 OFFCURVE",
"849 -350 CURVE SMOOTH",
"889 -319 OFFCURVE",
"909 -272 OFFCURVE",
"909 -219 CURVE SMOOTH",
"909 -179 OFFCURVE",
"898 -146 OFFCURVE",
"883 -115 CURVE SMOOTH",
"870 -88 OFFCURVE",
"849 -58 OFFCURVE",
"822 -25 CURVE",
"854 -22 OFFCURVE",
"886 -16 OFFCURVE",
"915 -9 CURVE SMOOTH",
"968 5 OFFCURVE",
"1021 26 OFFCURVE",
"1073 53 CURVE",
"1073 260 LINE",
"1024 219 OFFCURVE",
"971 188 OFFCURVE",
"916 167 CURVE SMOOTH",
"859 146 OFFCURVE",
"801 135 OFFCURVE",
"742 135 CURVE SMOOTH",
"606 135 OFFCURVE",
"511 191 OFFCURVE",
"448 287 CURVE SMOOTH",
"383 388 OFFCURVE",
"350 541 OFFCURVE",
"350 745 CURVE SMOOTH",
"350 950 OFFCURVE",
"383 1103 OFFCURVE",
"448 1204 CURVE SMOOTH",
"513 1305 OFFCURVE",
"612 1356 OFFCURVE",
"741 1356 CURVE SMOOTH"
);
}
);
width = 1233;
}
);
note = "\012\011Ccedilla\012  ";
unicode = 00C7;
},
{
glyphname = Cdotaccent;
layers = (
{
layerId = "1D6BC6EA-621B-4B6F-A209-F2A632971314";
name = Regular;
paths = (
{
closed = 1;
nodes = (
"763 1647 LINE SMOOTH",
"783 1647 OFFCURVE",
"793 1657 OFFCURVE",
"793 1677 CURVE SMOOTH",
"793 1822 LINE SMOOTH",
"793 1842 OFFCURVE",
"783 1852 OFFCURVE",
"763 1852 CURVE SMOOTH",
"618 1852 LINE SMOOTH",
"598 1852 OFFCURVE",
"588 1842 OFFCURVE",
"588 1822 CURVE SMOOTH",
"588 1677 LINE SMOOTH",
"588 1657 OFFCURVE",
"598 1647 OFFCURVE",
"618 1647 CURVE SMOOTH"
);
},
{
closed = 1;
nodes = (
"864 -29 OFFCURVE",
"969 -3 OFFCURVE",
"1073 53 CURVE",
"1073 260 LINE",
"976 179 OFFCURVE",
"861 135 OFFCURVE",
"740 135 CURVE SMOOTH",
"480 135 OFFCURVE",
"350 338 OFFCURVE",
"350 745 CURVE SMOOTH",
"350 1154 OFFCURVE",
"481 1356 OFFCURVE",
"740 1356 CURVE SMOOTH",
"864 1356 OFFCURVE",
"976 1311 OFFCURVE",
"1073 1231 CURVE",
"1073 1438 LINE",
"969 1494 OFFCURVE",
"864 1520 OFFCURVE",
"745 1520 CURVE SMOOTH",
"361 1520 OFFCURVE",
"139 1233 OFFCURVE",
"139 743 CURVE SMOOTH",
"139 255 OFFCURVE",
"360 -29 OFFCURVE",
"744 -29 CURVE SMOOTH"
);
}
);
width = 1233;
}
);
note = "\012\011Cdotaccent\012  ";
unicode = 010A;
},
{
glyphname = D;
layers = (
{
layerId = "1D6BC6EA-621B-4B6F-A209-F2A632971314";
name = Regular;
paths = (
{
closed = 1;
nodes = (
"137 0 LINE",
"440 0 LINE SMOOTH",
"668 0 OFFCURVE",
"836 61 OFFCURVE",
"944 182 CURVE SMOOTH",
"1052 303 OFFCURVE",
"1106 490 OFFCURVE",
"1106 745 CURVE SMOOTH",
"1106 1001 OFFCURVE",
"1052 1190 OFFCURVE",
"944 1311 CURVE SMOOTH",
"836 1432 OFFCURVE",
"668 1493 OFFCURVE",
"440 1493 CURVE SMOOTH",
"137 1493 LINE"
);
},
{
closed = 1;
nodes = (
"340 166 LINE",
"340 1327 LINE",
"436 1327 LINE SMOOTH",
"603 1327 OFFCURVE",
"725 1287 OFFCURVE",
"793 1202 CURVE SMOOTH",
"861 1118 OFFCURVE",
"893 967 OFFCURVE",
"893 747 CURVE SMOOTH",
"893 523 OFFCURVE",
"860 376 OFFCURVE",
"792 292 CURVE SMOOTH",
"725 208 OFFCURVE",
"606 166 OFFCURVE",
"436 166 CURVE SMOOTH"
);
}
);
width = 1233;
}
);
note = "\012\011D\012  ";
unicode = 0044;
},
{
glyphname = Eth;
layers = (
{
layerId = "1D6BC6EA-621B-4B6F-A209-F2A632971314";
name = Regular;
paths = (
{
closed = 1;
nodes = (
"133 0 LINE",
"436 0 LINE SMOOTH",
"660 0 OFFCURVE",
"829 58 OFFCURVE",
"940 182 CURVE SMOOTH",
"1048 303 OFFCURVE",
"1102 491 OFFCURVE",
"1102 746 CURVE SMOOTH",
"1102 1001 OFFCURVE",
"1048 1190 OFFCURVE",
"940 1311 CURVE SMOOTH",
"832 1432 OFFCURVE",
"664 1493 OFFCURVE",
"436 1493 CURVE SMOOTH",
"133 1493 LINE",
"133 858 LINE",
"8 858 LINE",
"8 709 LINE",
"133 709 LINE"
);
},
{
closed = 1;
nodes = (
"340 166 LINE",
"340 709 LINE",
"604 709 LINE",
"604 858 LINE",
"340 858 LINE",
"340 1327 LINE",
"436 1327 LINE SMOOTH",
"609 1327 OFFCURVE",
"721 1289 OFFCURVE",
"792 1200 CURVE SMOOTH",
"858 1115 OFFCURVE",
"893 982 OFFCURVE",
"893 748 CURVE SMOOTH",
"893 521 OFFCURVE",
"860 380 OFFCURVE",
"791 293 CURVE SMOOTH",
"725 211 OFFCURVE",
"620 166 OFFCURVE",
"436 166 CURVE SMOOTH"
);
}
);
width = 1233;
}
);
note = "\012\011Eth\012  ";
unicode = 00D0;
},
{
glyphname = Dcaron;
layers = (
{
layerId = "1D6BC6EA-621B-4B6F-A209-F2A632971314";
name = Regular;
paths = (
{
closed = 1;
nodes = (
"444 1586 LINE",
"633 1586 LINE",
"844 1852 LINE",
"704 1852 LINE",
"538 1674 LINE",
"373 1852 LINE",
"233 1852 LINE"
);
},
{
closed = 1;
nodes = (
"137 0 LINE",
"440 0 LINE SMOOTH",
"896 0 OFFCURVE",
"1106 236 OFFCURVE",
"1106 747 CURVE SMOOTH",
"1106 1256 OFFCURVE",
"896 1493 OFFCURVE",
"440 1493 CURVE SMOOTH",
"137 1493 LINE"
);
},
{
closed = 1;
nodes = (
"340 166 LINE",
"340 1327 LINE",
"436 1327 LINE SMOOTH",
"776 1327 OFFCURVE",
"893 1186 OFFCURVE",
"893 746 CURVE SMOOTH",
"893 308 OFFCURVE",
"777 166 OFFCURVE",
"436 166 CURVE SMOOTH"
);
}
);
width = 1233;
}
);
note = "\012\011Dcaron\012  ";
unicode = 010E;
},
{
glyphname = Dcroat;
layers = (
{
layerId = "1D6BC6EA-621B-4B6F-A209-F2A632971314";
name = Regular;
paths = (
{
closed = 1;
nodes = (
"133 0 LINE",
"436 0 LINE SMOOTH",
"892 0 OFFCURVE",
"1102 237 OFFCURVE",
"1102 746 CURVE SMOOTH",
"1102 1257 OFFCURVE",
"891 1493 OFFCURVE",
"436 1493 CURVE SMOOTH",
"133 1493 LINE",
"133 858 LINE",
"8 858 LINE",
"8 709 LINE",
"133 709 LINE"
);
},
{
closed = 1;
nodes = (
"340 166 LINE",
"340 709 LINE",
"604 709 LINE",
"604 858 LINE",
"340 858 LINE",
"340 1327 LINE",
"436 1327 LINE SMOOTH",
"776 1327 OFFCURVE",
"893 1186 OFFCURVE",
"893 746 CURVE SMOOTH",
"893 308 OFFCURVE",
"777 166 OFFCURVE",
"436 166 CURVE SMOOTH"
);
}
);
width = 1233;
}
);
note = "\012\011Dcroat\012  ";
unicode = 0110;
},
{
glyphname = E;
layers = (
{
layerId = "1D6BC6EA-621B-4B6F-A209-F2A632971314";
name = Regular;
paths = (
{
closed = 1;
nodes = (
"197 0 LINE",
"1102 0 LINE",
"1102 170 LINE",
"399 170 LINE",
"399 711 LINE",
"1053 711 LINE",
"1053 881 LINE",
"399 881 LINE",
"399 1323 LINE",
"1083 1323 LINE",
"1083 1493 LINE",
"197 1493 LINE"
);
}
);
width = 1233;
}
);
note = "\012\011E\012  ";
unicode = 0045;
},
{
glyphname = Eacute;
layers = (
{
layerId = "1D6BC6EA-621B-4B6F-A209-F2A632971314";
name = Regular;
paths = (
{
closed = 1;
nodes = (
"493 1592 LINE",
"647 1592 LINE",
"876 1856 LINE",
"690 1856 LINE"
);
},
{
closed = 1;
nodes = (
"197 0 LINE",
"1102 0 LINE",
"1102 170 LINE",
"399 170 LINE",
"399 711 LINE",
"1053 711 LINE",
"1053 881 LINE",
"399 881 LINE",
"399 1323 LINE",
"1083 1323 LINE",
"1083 1493 LINE",
"197 1493 LINE"
);
}
);
width = 1233;
}
);
note = "\012\011Eacute\012  ";
unicode = 00C9;
},
{
glyphname = Ecaron;
layers = (
{
layerId = "1D6BC6EA-621B-4B6F-A209-F2A632971314";
name = Regular;
paths = (
{
closed = 1;
nodes = (
"558 1586 LINE",
"747 1586 LINE",
"958 1852 LINE",
"818 1852 LINE",
"652 1674 LINE",
"487 1852 LINE",
"347 1852 LINE"
);
},
{
closed = 1;
nodes = (
"197 0 LINE",
"1102 0 LINE",
"1102 170 LINE",
"399 170 LINE",
"399 711 LINE",
"1053 711 LINE",
"1053 881 LINE",
"399 881 LINE",
"399 1323 LINE",
"1083 1323 LINE",
"1083 1493 LINE",
"197 1493 LINE"
);
}
);
width = 1233;
}
);
note = "\012\011Ecaron\012  ";
unicode = 011A;
},
{
glyphname = Ecircumflex;
layers = (
{
layerId = "1D6BC6EA-621B-4B6F-A209-F2A632971314";
name = Regular;
paths = (
{
closed = 1;
nodes = (
"329 1586 LINE",
"469 1586 LINE",
"634 1764 LINE",
"800 1586 LINE",
"940 1586 LINE",
"729 1852 LINE",
"540 1852 LINE"
);
},
{
closed = 1;
nodes = (
"197 0 LINE",
"1102 0 LINE",
"1102 170 LINE",
"399 170 LINE",
"399 711 LINE",
"1053 711 LINE",
"1053 881 LINE",
"399 881 LINE",
"399 1323 LINE",
"1083 1323 LINE",
"1083 1493 LINE",
"197 1493 LINE"
);
}
);
width = 1233;
}
);
note = "\012\011Ecircumflex\012  ";
unicode = 00CA;
},
{
glyphname = Edieresis;
layers = (
{
layerId = "1D6BC6EA-621B-4B6F-A209-F2A632971314";
name = Regular;
paths = (
{
closed = 1;
nodes = (
"510 1647 LINE SMOOTH",
"530 1647 OFFCURVE",
"540 1657 OFFCURVE",
"540 1677 CURVE SMOOTH",
"540 1820 LINE SMOOTH",
"540 1840 OFFCURVE",
"530 1850 OFFCURVE",
"510 1850 CURVE SMOOTH",
"367 1850 LINE SMOOTH",
"347 1850 OFFCURVE",
"337 1840 OFFCURVE",
"337 1820 CURVE SMOOTH",
"337 1677 LINE SMOOTH",
"337 1657 OFFCURVE",
"347 1647 OFFCURVE",
"367 1647 CURVE SMOOTH"
);
},
{
closed = 1;
nodes = (
"901 1647 LINE SMOOTH",
"921 1647 OFFCURVE",
"931 1657 OFFCURVE",
"931 1677 CURVE SMOOTH",
"931 1820 LINE SMOOTH",
"931 1840 OFFCURVE",
"921 1850 OFFCURVE",
"901 1850 CURVE SMOOTH",
"759 1850 LINE SMOOTH",
"739 1850 OFFCURVE",
"729 1840 OFFCURVE",
"729 1820 CURVE SMOOTH",
"729 1677 LINE SMOOTH",
"729 1657 OFFCURVE",
"739 1647 OFFCURVE",
"759 1647 CURVE SMOOTH"
);
},
{
closed = 1;
nodes = (
"197 0 LINE",
"1102 0 LINE",
"1102 170 LINE",
"399 170 LINE",
"399 711 LINE",
"1053 711 LINE",
"1053 881 LINE",
"399 881 LINE",
"399 1323 LINE",
"1083 1323 LINE",
"1083 1493 LINE",
"197 1493 LINE"
);
}
);
width = 1233;
}
);
note = "\012\011Edieresis\012  ";
unicode = 00CB;
},
{
glyphname = Edotaccent;
layers = (
{
layerId = "1D6BC6EA-621B-4B6F-A209-F2A632971314";
name = Regular;
paths = (
{
closed = 1;
nodes = (
"706 1647 LINE SMOOTH",
"726 1647 OFFCURVE",
"736 1657 OFFCURVE",
"736 1677 CURVE SMOOTH",
"736 1822 LINE SMOOTH",
"736 1842 OFFCURVE",
"726 1852 OFFCURVE",
"706 1852 CURVE SMOOTH",
"561 1852 LINE SMOOTH",
"541 1852 OFFCURVE",
"531 1842 OFFCURVE",
"531 1822 CURVE SMOOTH",
"531 1677 LINE SMOOTH",
"531 1657 OFFCURVE",
"541 1647 OFFCURVE",
"561 1647 CURVE SMOOTH"
);
},
{
closed = 1;
nodes = (
"197 0 LINE",
"1102 0 LINE",
"1102 170 LINE",
"399 170 LINE",
"399 711 LINE",
"1053 711 LINE",
"1053 881 LINE",
"399 881 LINE",
"399 1323 LINE",
"1083 1323 LINE",
"1083 1493 LINE",
"197 1493 LINE"
);
}
);
width = 1233;
}
);
note = "\012\011Edotaccent\012  ";
unicode = 0116;
},
{
glyphname = Egrave;
layers = (
{
layerId = "1D6BC6EA-621B-4B6F-A209-F2A632971314";
name = Regular;
paths = (
{
closed = 1;
nodes = (
"622 1592 LINE",
"776 1592 LINE",
"579 1856 LINE",
"395 1856 LINE"
);
},
{
closed = 1;
nodes = (
"197 0 LINE",
"1102 0 LINE",
"1102 170 LINE",
"399 170 LINE",
"399 711 LINE",
"1053 711 LINE",
"1053 881 LINE",
"399 881 LINE",
"399 1323 LINE",
"1083 1323 LINE",
"1083 1493 LINE",
"197 1493 LINE"
);
}
);
width = 1233;
}
);
note = "\012\011Egrave\012  ";
unicode = 00C8;
},
{
glyphname = Emacron;
layers = (
{
layerId = "1D6BC6EA-621B-4B6F-A209-F2A632971314";
name = Regular;
paths = (
{
closed = 1;
nodes = (
"335 1652 LINE",
"933 1652 LINE",
"933 1800 LINE",
"335 1800 LINE"
);
},
{
closed = 1;
nodes = (
"197 0 LINE",
"1102 0 LINE",
"1102 170 LINE",
"399 170 LINE",
"399 711 LINE",
"1053 711 LINE",
"1053 881 LINE",
"399 881 LINE",
"399 1323 LINE",
"1083 1323 LINE",
"1083 1493 LINE",
"197 1493 LINE"
);
}
);
width = 1233;
}
);
note = "\012\011Emacron\012  ";
unicode = 0112;
},
{
glyphname = Eogonek;
layers = (
{
layerId = "1D6BC6EA-621B-4B6F-A209-F2A632971314";
name = Regular;
paths = (
{
closed = 1;
nodes = (
"1102 0 LINE",
"1102 170 LINE",
"399 170 LINE",
"399 711 LINE",
"1053 711 LINE",
"1053 881 LINE",
"399 881 LINE",
"399 1323 LINE",
"1083 1323 LINE",
"1083 1493 LINE",
"197 1493 LINE",
"197 0 LINE",
"833 0 LINE",
"751 -93 OFFCURVE",
"725 -155 OFFCURVE",
"725 -221 CURVE SMOOTH",
"725 -340 OFFCURVE",
"806 -395 OFFCURVE",
"955 -395 CURVE SMOOTH",
"1004 -395 OFFCURVE",
"1042 -390 OFFCURVE",
"1098 -375 CURVE",
"1098 -242 LINE",
"1057 -262 OFFCURVE",
"1015 -272 OFFCURVE",
"974 -272 CURVE SMOOTH",
"902 -272 OFFCURVE",
"864 -240 OFFCURVE",
"864 -184 CURVE SMOOTH",
"864 -139 OFFCURVE",
"888 -87 OFFCURVE",
"952 0 CURVE"
);
}
);
width = 1233;
}
);
note = "\012\011Eogonek\012  ";
unicode = 0118;
},
{
glyphname = F;
layers = (
{
layerId = "1D6BC6EA-621B-4B6F-A209-F2A632971314";
name = Regular;
paths = (
{
closed = 1;
nodes = (
"233 0 LINE",
"436 0 LINE",
"436 693 LINE",
"1049 693 LINE",
"1049 863 LINE",
"436 863 LINE",
"436 1323 LINE",
"1112 1323 LINE",
"1112 1493 LINE",
"233 1493 LINE"
);
}
);
width = 1233;
}
);
note = "\012\011F\012  ";
unicode = 0046;
},
{
glyphname = G;
layers = (
{
layerId = "1D6BC6EA-621B-4B6F-A209-F2A632971314";
name = Regular;
paths = (
{
closed = 1;
nodes = (
"780 -29 OFFCURVE",
"854 -16 OFFCURVE",
"922 10 CURVE SMOOTH",
"989 35 OFFCURVE",
"1050 73 OFFCURVE",
"1104 123 CURVE",
"1104 766 LINE",
"694 766 LINE",
"694 600 LINE",
"911 600 LINE",
"911 199 LINE",
"883 176 OFFCURVE",
"852 162 OFFCURVE",
"820 151 CURVE SMOOTH",
"785 140 OFFCURVE",
"746 135 OFFCURVE",
"703 135 CURVE SMOOTH",
"570 135 OFFCURVE",
"472 185 OFFCURVE",
"409 285 CURVE SMOOTH",
"345 385 OFFCURVE",
"313 532 OFFCURVE",
"313 743 CURVE SMOOTH",
"313 952 OFFCURVE",
"345 1101 OFFCURVE",
"412 1204 CURVE SMOOTH",
"480 1308 OFFCURVE",
"577 1356 OFFCURVE",
"706 1356 CURVE SMOOTH",
"766 1356 OFFCURVE",
"828 1345 OFFCURVE",
"887 1320 CURVE SMOOTH",
"938 1297 OFFCURVE",
"996 1261 OFFCURVE",
"1053 1206 CURVE",
"1053 1413 LINE",
"1001 1448 OFFCURVE",
"946 1475 OFFCURVE",
"887 1494 CURVE SMOOTH",
"831 1511 OFFCURVE",
"770 1520 OFFCURVE",
"703 1520 CURVE SMOOTH",
"516 1520 OFFCURVE",
"366 1450 OFFCURVE",
"262 1317 CURVE SMOOTH",
"158 1184 OFFCURVE",
"102 992 OFFCURVE",
"102 744 CURVE SMOOTH",
"102 503 OFFCURVE",
"155 311 OFFCURVE",
"259 175 CURVE SMOOTH",
"362 42 OFFCURVE",
"509 -29 OFFCURVE",
"700 -29 CURVE SMOOTH"
);
}
);
width = 1233;
}
);
note = "\012\011G\012  ";
unicode = 0047;
},
{
glyphname = Gbreve;
layers = (
{
layerId = "1D6BC6EA-621B-4B6F-A209-F2A632971314";
name = Regular;
paths = (
{
closed = 1;
nodes = (
"849 1589 OFFCURVE",
"955 1671 OFFCURVE",
"970 1831 CURVE",
"851 1831 LINE",
"831 1757 OFFCURVE",
"767 1720 OFFCURVE",
"658 1720 CURVE SMOOTH",
"545 1720 OFFCURVE",
"478 1759 OFFCURVE",
"462 1831 CURVE",
"343 1831 LINE",
"358 1670 OFFCURVE",
"463 1589 OFFCURVE",
"656 1589 CURVE SMOOTH"
);
},
{
closed = 1;
nodes = (
"780 -29 OFFCURVE",
"854 -16 OFFCURVE",
"922 10 CURVE SMOOTH",
"989 35 OFFCURVE",
"1050 73 OFFCURVE",
"1104 123 CURVE",
"1104 766 LINE",
"694 766 LINE",
"694 600 LINE",
"911 600 LINE",
"911 199 LINE",
"883 176 OFFCURVE",
"852 162 OFFCURVE",
"820 151 CURVE SMOOTH",
"788 140 OFFCURVE",
"750 135 OFFCURVE",
"703 135 CURVE SMOOTH",
"571 135 OFFCURVE",
"476 181 OFFCURVE",
"409 285 CURVE SMOOTH",
"345 385 OFFCURVE",
"313 532 OFFCURVE",
"313 743 CURVE SMOOTH",
"313 952 OFFCURVE",
"345 1101 OFFCURVE",
"412 1204 CURVE SMOOTH",
"480 1308 OFFCURVE",
"577 1356 OFFCURVE",
"706 1356 CURVE SMOOTH",
"766 1356 OFFCURVE",
"828 1345 OFFCURVE",
"887 1320 CURVE SMOOTH",
"938 1297 OFFCURVE",
"996 1261 OFFCURVE",
"1053 1206 CURVE",
"1053 1413 LINE",
"1005 1446 OFFCURVE",
"946 1475 OFFCURVE",
"887 1494 CURVE SMOOTH",
"828 1513 OFFCURVE",
"765 1520 OFFCURVE",
"702 1520 CURVE SMOOTH",
"511 1520 OFFCURVE",
"362 1445 OFFCURVE",
"261 1316 CURVE SMOOTH",
"154 1179 OFFCURVE",
"102 985 OFFCURVE",
"102 744 CURVE SMOOTH",
"102 503 OFFCURVE",
"155 311 OFFCURVE",
"259 175 CURVE SMOOTH",
"362 42 OFFCURVE",
"509 -29 OFFCURVE",
"700 -29 CURVE SMOOTH"
);
}
);
width = 1233;
}
);
note = "\012\011Gbreve\012  ";
unicode = 011E;
},
{
glyphname = Gcaron;
layers = (
{
layerId = "1D6BC6EA-621B-4B6F-A209-F2A632971314";
name = Regular;
paths = (
{
closed = 1;
nodes = (
"612 1586 LINE",
"801 1586 LINE",
"1012 1852 LINE",
"872 1852 LINE",
"706 1674 LINE",
"541 1852 LINE",
"401 1852 LINE"
);
},
{
closed = 1;
nodes = (
"861 -29 OFFCURVE",
"996 23 OFFCURVE",
"1104 123 CURVE",
"1104 766 LINE",
"694 766 LINE",
"694 600 LINE",
"911 600 LINE",
"911 199 LINE",
"855 155 OFFCURVE",
"790 135 OFFCURVE",
"705 135 CURVE SMOOTH",
"438 135 OFFCURVE",
"313 330 OFFCURVE",
"313 739 CURVE SMOOTH",
"313 1155 OFFCURVE",
"440 1356 OFFCURVE",
"707 1356 CURVE SMOOTH",
"835 1356 OFFCURVE",
"945 1310 OFFCURVE",
"1053 1206 CURVE",
"1053 1413 LINE",
"945 1485 OFFCURVE",
"835 1520 OFFCURVE",
"703 1520 CURVE SMOOTH",
"327 1520 OFFCURVE",
"102 1233 OFFCURVE",
"102 743 CURVE SMOOTH",
"102 255 OFFCURVE",
"324 -29 OFFCURVE",
"700 -29 CURVE SMOOTH"
);
}
);
width = 1233;
}
);
note = "\012\011Gcaron\012  ";
unicode = 01E6;
},
{
glyphname = uni0122;
layers = (
{
layerId = "1D6BC6EA-621B-4B6F-A209-F2A632971314";
name = Regular;
paths = (
{
closed = 1;
nodes = (
"861 -29 OFFCURVE",
"996 23 OFFCURVE",
"1104 123 CURVE",
"1104 766 LINE",
"694 766 LINE",
"694 600 LINE",
"911 600 LINE",
"911 199 LINE",
"855 155 OFFCURVE",
"790 135 OFFCURVE",
"705 135 CURVE SMOOTH",
"438 135 OFFCURVE",
"313 330 OFFCURVE",
"313 739 CURVE SMOOTH",
"313 1155 OFFCURVE",
"440 1356 OFFCURVE",
"707 1356 CURVE SMOOTH",
"835 1356 OFFCURVE",
"945 1310 OFFCURVE",
"1053 1206 CURVE",
"1053 1413 LINE",
"945 1485 OFFCURVE",
"835 1520 OFFCURVE",
"703 1520 CURVE SMOOTH",
"327 1520 OFFCURVE",
"102 1233 OFFCURVE",
"102 743 CURVE SMOOTH",
"102 255 OFFCURVE",
"324 -29 OFFCURVE",
"700 -29 CURVE SMOOTH"
);
},
{
closed = 1;
nodes = (
"536 -573 LINE",
"682 -573 LINE",
"869 -228 LINE",
"630 -228 LINE"
);
}
);
width = 1233;
}
);
note = "\012\011uni0122\012  ";
unicode = 0122;
},
{
glyphname = Gdotaccent;
layers = (
{
layerId = "1D6BC6EA-621B-4B6F-A209-F2A632971314";
name = Regular;
paths = (
{
closed = 1;
nodes = (
"763 1647 LINE SMOOTH",
"783 1647 OFFCURVE",
"793 1657 OFFCURVE",
"793 1677 CURVE SMOOTH",
"793 1822 LINE SMOOTH",
"793 1842 OFFCURVE",
"783 1852 OFFCURVE",
"763 1852 CURVE SMOOTH",
"618 1852 LINE SMOOTH",
"598 1852 OFFCURVE",
"588 1842 OFFCURVE",
"588 1822 CURVE SMOOTH",
"588 1677 LINE SMOOTH",
"588 1657 OFFCURVE",
"598 1647 OFFCURVE",
"618 1647 CURVE SMOOTH"
);
},
{
closed = 1;
nodes = (
"861 -29 OFFCURVE",
"996 23 OFFCURVE",
"1104 123 CURVE",
"1104 766 LINE",
"694 766 LINE",
"694 600 LINE",
"911 600 LINE",
"911 199 LINE",
"855 155 OFFCURVE",
"790 135 OFFCURVE",
"705 135 CURVE SMOOTH",
"438 135 OFFCURVE",
"313 330 OFFCURVE",
"313 739 CURVE SMOOTH",
"313 1155 OFFCURVE",
"440 1356 OFFCURVE",
"707 1356 CURVE SMOOTH",
"835 1356 OFFCURVE",
"945 1310 OFFCURVE",
"1053 1206 CURVE",
"1053 1413 LINE",
"945 1485 OFFCURVE",
"835 1520 OFFCURVE",
"703 1520 CURVE SMOOTH",
"327 1520 OFFCURVE",
"102 1233 OFFCURVE",
"102 743 CURVE SMOOTH",
"102 255 OFFCURVE",
"324 -29 OFFCURVE",
"700 -29 CURVE SMOOTH"
);
}
);
width = 1233;
}
);
note = "\012\011Gdotaccent\012  ";
unicode = 0120;
},
{
glyphname = H;
layers = (
{
layerId = "1D6BC6EA-621B-4B6F-A209-F2A632971314";
name = Regular;
paths = (
{
closed = 1;
nodes = (
"137 0 LINE",
"340 0 LINE",
"340 711 LINE",
"893 711 LINE",
"893 0 LINE",
"1096 0 LINE",
"1096 1493 LINE",
"893 1493 LINE",
"893 881 LINE",
"340 881 LINE",
"340 1493 LINE",
"137 1493 LINE"
);
}
);
width = 1233;
}
);
note = "\012\011H\012  ";
unicode = 0048;
},
{
glyphname = Hbar;
layers = (
{
layerId = "1D6BC6EA-621B-4B6F-A209-F2A632971314";
name = Regular;
paths = (
{
closed = 1;
nodes = (
"137 0 LINE",
"339 0 LINE",
"339 711 LINE",
"893 711 LINE",
"893 0 LINE",
"1095 0 LINE",
"1095 1105 LINE",
"1230 1105 LINE",
"1230 1269 LINE",
"1095 1269 LINE",
"1095 1493 LINE",
"893 1493 LINE",
"893 1269 LINE",
"339 1269 LINE",
"339 1493 LINE",
"137 1493 LINE",
"137 1269 LINE",
"3 1269 LINE",
"3 1105 LINE",
"137 1105 LINE"
);
},
{
closed = 1;
nodes = (
"339 881 LINE",
"339 1105 LINE",
"893 1105 LINE",
"893 881 LINE"
);
}
);
width = 1233;
}
);
note = "\012\011Hbar\012  ";
unicode = 0126;
},
{
glyphname = I;
layers = (
{
layerId = "1D6BC6EA-621B-4B6F-A209-F2A632971314";
name = Regular;
paths = (
{
closed = 1;
nodes = (
"201 0 LINE",
"1030 0 LINE",
"1030 170 LINE",
"717 170 LINE",
"717 1323 LINE",
"1030 1323 LINE",
"1030 1493 LINE",
"201 1493 LINE",
"201 1323 LINE",
"514 1323 LINE",
"514 170 LINE",
"201 170 LINE"
);
}
);
width = 1233;
}
);
note = "\012\011I\012  ";
unicode = 0049;
},
{
glyphname = Iacute;
layers = (
{
layerId = "1D6BC6EA-621B-4B6F-A209-F2A632971314";
name = Regular;
paths = (
{
closed = 1;
nodes = (
"494 1592 LINE",
"648 1592 LINE",
"877 1856 LINE",
"691 1856 LINE"
);
},
{
closed = 1;
nodes = (
"201 0 LINE",
"1030 0 LINE",
"1030 170 LINE",
"717 170 LINE",
"717 1323 LINE",
"1030 1323 LINE",
"1030 1493 LINE",
"201 1493 LINE",
"201 1323 LINE",
"514 1323 LINE",
"514 170 LINE",
"201 170 LINE"
);
}
);
width = 1233;
}
);
note = "\012\011Iacute\012  ";
unicode = 00CD;
},
{
glyphname = Icircumflex;
layers = (
{
layerId = "1D6BC6EA-621B-4B6F-A209-F2A632971314";
name = Regular;
paths = (
{
closed = 1;
nodes = (
"310 1586 LINE",
"450 1586 LINE",
"615 1764 LINE",
"781 1586 LINE",
"921 1586 LINE",
"710 1852 LINE",
"521 1852 LINE"
);
},
{
closed = 1;
nodes = (
"201 0 LINE",
"1030 0 LINE",
"1030 170 LINE",
"717 170 LINE",
"717 1323 LINE",
"1030 1323 LINE",
"1030 1493 LINE",
"201 1493 LINE",
"201 1323 LINE",
"514 1323 LINE",
"514 170 LINE",
"201 170 LINE"
);
}
);
width = 1233;
}
);
note = "\012\011Icircumflex\012  ";
unicode = 00CE;
},
{
glyphname = Idieresis;
layers = (
{
layerId = "1D6BC6EA-621B-4B6F-A209-F2A632971314";
name = Regular;
paths = (
{
closed = 1;
nodes = (
"492 1647 LINE SMOOTH",
"512 1647 OFFCURVE",
"522 1657 OFFCURVE",
"522 1677 CURVE SMOOTH",
"522 1820 LINE SMOOTH",
"522 1840 OFFCURVE",
"512 1850 OFFCURVE",
"492 1850 CURVE SMOOTH",
"349 1850 LINE SMOOTH",
"329 1850 OFFCURVE",
"319 1840 OFFCURVE",
"319 1820 CURVE SMOOTH",
"319 1677 LINE SMOOTH",
"319 1657 OFFCURVE",
"329 1647 OFFCURVE",
"349 1647 CURVE SMOOTH"
);
},
{
closed = 1;
nodes = (
"883 1647 LINE SMOOTH",
"903 1647 OFFCURVE",
"913 1657 OFFCURVE",
"913 1677 CURVE SMOOTH",
"913 1820 LINE SMOOTH",
"913 1840 OFFCURVE",
"903 1850 OFFCURVE",
"883 1850 CURVE SMOOTH",
"741 1850 LINE SMOOTH",
"721 1850 OFFCURVE",
"711 1840 OFFCURVE",
"711 1820 CURVE SMOOTH",
"711 1677 LINE SMOOTH",
"711 1657 OFFCURVE",
"721 1647 OFFCURVE",
"741 1647 CURVE SMOOTH"
);
},
{
closed = 1;
nodes = (
"201 0 LINE",
"1030 0 LINE",
"1030 170 LINE",
"717 170 LINE",
"717 1323 LINE",
"1030 1323 LINE",
"1030 1493 LINE",
"201 1493 LINE",
"201 1323 LINE",
"514 1323 LINE",
"514 170 LINE",
"201 170 LINE"
);
}
);
width = 1233;
}
);
note = "\012\011Idieresis\012  ";
unicode = 00CF;
},
{
glyphname = Idotaccent;
layers = (
{
layerId = "1D6BC6EA-621B-4B6F-A209-F2A632971314";
name = Regular;
paths = (
{
closed = 1;
nodes = (
"688 1647 LINE SMOOTH",
"708 1647 OFFCURVE",
"718 1657 OFFCURVE",
"718 1677 CURVE SMOOTH",
"718 1822 LINE SMOOTH",
"718 1842 OFFCURVE",
"708 1852 OFFCURVE",
"688 1852 CURVE SMOOTH",
"543 1852 LINE SMOOTH",
"523 1852 OFFCURVE",
"513 1842 OFFCURVE",
"513 1822 CURVE SMOOTH",
"513 1677 LINE SMOOTH",
"513 1657 OFFCURVE",
"523 1647 OFFCURVE",
"543 1647 CURVE SMOOTH"
);
},
{
closed = 1;
nodes = (
"201 0 LINE",
"1030 0 LINE",
"1030 170 LINE",
"717 170 LINE",
"717 1323 LINE",
"1030 1323 LINE",
"1030 1493 LINE",
"201 1493 LINE",
"201 1323 LINE",
"514 1323 LINE",
"514 170 LINE",
"201 170 LINE"
);
}
);
width = 1233;
}
);
note = "\012\011Idotaccent\012  ";
unicode = 0130;
},
{
glyphname = Igrave;
layers = (
{
layerId = "1D6BC6EA-621B-4B6F-A209-F2A632971314";
name = Regular;
paths = (
{
closed = 1;
nodes = (
"599 1592 LINE",
"753 1592 LINE",
"556 1856 LINE",
"372 1856 LINE"
);
},
{
closed = 1;
nodes = (
"201 0 LINE",
"1030 0 LINE",
"1030 170 LINE",
"717 170 LINE",
"717 1323 LINE",
"1030 1323 LINE",
"1030 1493 LINE",
"201 1493 LINE",
"201 1323 LINE",
"514 1323 LINE",
"514 170 LINE",
"201 170 LINE"
);
}
);
width = 1233;
}
);
note = "\012\011Igrave\012  ";
unicode = 00CC;
},
{
glyphname = Imacron;
layers = (
{
layerId = "1D6BC6EA-621B-4B6F-A209-F2A632971314";
name = Regular;
paths = (
{
closed = 1;
nodes = (
"335 1652 LINE",
"933 1652 LINE",
"933 1800 LINE",
"335 1800 LINE"
);
},
{
closed = 1;
nodes = (
"201 0 LINE",
"1030 0 LINE",
"1030 170 LINE",
"717 170 LINE",
"717 1323 LINE",
"1030 1323 LINE",
"1030 1493 LINE",
"201 1493 LINE",
"201 1323 LINE",
"514 1323 LINE",
"514 170 LINE",
"201 170 LINE"
);
}
);
width = 1233;
}
);
note = "\012\011Imacron\012  ";
unicode = 012A;
},
{
glyphname = Iogonek;
layers = (
{
layerId = "1D6BC6EA-621B-4B6F-A209-F2A632971314";
name = Regular;
paths = (
{
closed = 1;
nodes = (
"1030 1323 LINE",
"1030 1493 LINE",
"201 1493 LINE",
"201 1323 LINE",
"514 1323 LINE",
"514 170 LINE",
"201 170 LINE",
"201 0 LINE",
"598 0 LINE",
"516 -93 OFFCURVE",
"490 -155 OFFCURVE",
"490 -221 CURVE SMOOTH",
"490 -340 OFFCURVE",
"571 -395 OFFCURVE",
"720 -395 CURVE SMOOTH",
"769 -395 OFFCURVE",
"807 -390 OFFCURVE",
"863 -375 CURVE",
"863 -242 LINE",
"822 -262 OFFCURVE",
"780 -272 OFFCURVE",
"739 -272 CURVE SMOOTH",
"667 -272 OFFCURVE",
"629 -240 OFFCURVE",
"629 -184 CURVE SMOOTH",
"629 -139 OFFCURVE",
"653 -87 OFFCURVE",
"717 0 CURVE",
"1030 0 LINE",
"1030 170 LINE",
"717 170 LINE",
"717 1323 LINE"
);
}
);
width = 1233;
}
);
note = "\012\011Iogonek\012  ";
unicode = 012E;
},
{
glyphname = Itilde;
layers = (
{
layerId = "1D6BC6EA-621B-4B6F-A209-F2A632971314";
name = Regular;
paths = (
{
closed = 1;
nodes = (
"412 1633 LINE",
"412 1639 LINE SMOOTH",
"412 1668 OFFCURVE",
"419 1692 OFFCURVE",
"432 1709 CURVE SMOOTH",
"445 1726 OFFCURVE",
"465 1734 OFFCURVE",
"485 1734 CURVE SMOOTH",
"492 1734 OFFCURVE",
"503 1733 OFFCURVE",
"514 1729 CURVE",
"526 1724 OFFCURVE",
"540 1718 OFFCURVE",
"555 1709 CURVE SMOOTH",
"612 1676 LINE",
"653 1655 OFFCURVE",
"675 1646 OFFCURVE",
"694 1641 CURVE SMOOTH",
"715 1636 OFFCURVE",
"736 1633 OFFCURVE",
"757 1633 CURVE SMOOTH",
"814 1633 OFFCURVE",
"859 1653 OFFCURVE",
"893 1693 CURVE SMOOTH",
"928 1733 OFFCURVE",
"945 1786 OFFCURVE",
"946 1852 CURVE",
"821 1852 LINE",
"821 1846 LINE SMOOTH",
"821 1819 OFFCURVE",
"814 1797 OFFCURVE",
"801 1780 CURVE SMOOTH",
"788 1763 OFFCURVE",
"771 1754 OFFCURVE",
"750 1754 CURVE SMOOTH",
"739 1754 OFFCURVE",
"729 1756 OFFCURVE",
"718 1760 CURVE",
"705 1764 OFFCURVE",
"692 1770 OFFCURVE",
"678 1779 CURVE",
"621 1809 LINE SMOOTH",
"586 1828 OFFCURVE",
"562 1839 OFFCURVE",
"542 1844 CURVE SMOOTH",
"519 1849 OFFCURVE",
"497 1852 OFFCURVE",
"476 1852 CURVE SMOOTH",
"419 1852 OFFCURVE",
"373 1832 OFFCURVE",
"339 1793 CURVE SMOOTH",
"302 1750 OFFCURVE",
"287 1697 OFFCURVE",
"287 1633 CURVE"
);
},
{
closed = 1;
nodes = (
"201 0 LINE",
"1030 0 LINE",
"1030 170 LINE",
"717 170 LINE",
"717 1323 LINE",
"1030 1323 LINE",
"1030 1493 LINE",
"201 1493 LINE",
"201 1323 LINE",
"514 1323 LINE",
"514 170 LINE",
"201 170 LINE"
);
}
);
width = 1233;
}
);
note = "\012\011Itilde\012  ";
unicode = 0128;
},
{
glyphname = J;
layers = (
{
layerId = "1D6BC6EA-621B-4B6F-A209-F2A632971314";
name = Regular;
paths = (
{
closed = 1;
nodes = (
"665 -29 OFFCURVE",
"777 8 OFFCURVE",
"850 89 CURVE SMOOTH",
"923 170 OFFCURVE",
"956 295 OFFCURVE",
"956 487 CURVE SMOOTH",
"956 1493 LINE",
"373 1493 LINE",
"373 1323 LINE",
"754 1323 LINE",
"754 487 LINE SMOOTH",
"754 352 OFFCURVE",
"735 259 OFFCURVE",
"698 210 CURVE SMOOTH",
"659 158 OFFCURVE",
"588 135 OFFCURVE",
"499 135 CURVE SMOOTH",
"430 135 OFFCURVE",
"363 149 OFFCURVE",
"297 176 CURVE SMOOTH",
"232 203 OFFCURVE",
"170 243 OFFCURVE",
"109 297 CURVE",
"109 61 LINE",
"176 31 OFFCURVE",
"242 8 OFFCURVE",
"307 -7 CURVE SMOOTH",
"368 -22 OFFCURVE",
"433 -29 OFFCURVE",
"502 -29 CURVE SMOOTH"
);
}
);
width = 1233;
}
);
note = "\012\011J\012  ";
unicode = 004A;
},
{
glyphname = K;
layers = (
{
layerId = "1D6BC6EA-621B-4B6F-A209-F2A632971314";
name = Regular;
paths = (
{
closed = 1;
nodes = (
"137 0 LINE",
"340 0 LINE",
"340 584 LINE",
"494 748 LINE",
"981 0 LINE",
"1225 0 LINE",
"627 883 LINE",
"1208 1493 LINE",
"971 1493 LINE",
"340 829 LINE",
"340 1493 LINE",
"137 1493 LINE"
);
}
);
width = 1233;
}
);
note = "\012\011K\012  ";
unicode = 004B;
},
{
glyphname = uni0136;
layers = (
{
layerId = "1D6BC6EA-621B-4B6F-A209-F2A632971314";
name = Regular;
paths = (
{
closed = 1;
nodes = (
"137 0 LINE",
"340 0 LINE",
"340 584 LINE",
"494 748 LINE",
"981 0 LINE",
"1225 0 LINE",
"627 883 LINE",
"1208 1493 LINE",
"971 1493 LINE",
"340 829 LINE",
"340 1493 LINE",
"137 1493 LINE"
);
},
{
closed = 1;
nodes = (
"514 -544 LINE",
"660 -544 LINE",
"847 -199 LINE",
"608 -199 LINE"
);
}
);
width = 1233;
}
);
note = "\012\011uni0136\012  ";
unicode = 0136;
},
{
glyphname = L;
layers = (
{
layerId = "1D6BC6EA-621B-4B6F-A209-F2A632971314";
name = Regular;
paths = (
{
closed = 1;
nodes = (
"215 0 LINE",
"1139 0 LINE",
"1139 170 LINE",
"418 170 LINE",
"418 1493 LINE",
"215 1493 LINE"
);
}
);
width = 1233;
}
);
note = "\012\011L\012  ";
unicode = 004C;
},
{
glyphname = Lacute;
layers = (
{
layerId = "1D6BC6EA-621B-4B6F-A209-F2A632971314";
name = Regular;
paths = (
{
closed = 1;
nodes = (
"215 1592 LINE",
"369 1592 LINE",
"598 1856 LINE",
"412 1856 LINE"
);
},
{
closed = 1;
nodes = (
"215 0 LINE",
"1139 0 LINE",
"1139 170 LINE",
"418 170 LINE",
"418 1493 LINE",
"215 1493 LINE"
);
}
);
width = 1233;
}
);
note = "\012\011Lacute\012  ";
unicode = 0139;
},
{
glyphname = Lcaron;
layers = (
{
layerId = "1D6BC6EA-621B-4B6F-A209-F2A632971314";
name = Regular;
paths = (
{
closed = 1;
nodes = (
"215 0 LINE",
"1139 0 LINE",
"1139 170 LINE",
"418 170 LINE",
"418 1493 LINE",
"215 1493 LINE"
);
},
{
closed = 1;
nodes = (
"649 1115 LINE",
"803 1115 LINE",
"916 1491 LINE",
"718 1491 LINE"
);
}
);
width = 1233;
}
);
note = "\012\011Lcaron\012  ";
unicode = 013D;
},
{
glyphname = uni013B;
layers = (
{
layerId = "1D6BC6EA-621B-4B6F-A209-F2A632971314";
name = Regular;
paths = (
{
closed = 1;
nodes = (
"215 0 LINE",
"1139 0 LINE",
"1139 170 LINE",
"418 170 LINE",
"418 1493 LINE",
"215 1493 LINE"
);
},
{
closed = 1;
nodes = (
"510 -544 LINE",
"656 -544 LINE",
"843 -199 LINE",
"604 -199 LINE"
);
}
);
width = 1233;
}
);
note = "\012\011uni013B\012  ";
unicode = 013B;
},
{
glyphname = Lslash;
layers = (
{
layerId = "1D6BC6EA-621B-4B6F-A209-F2A632971314";
name = Regular;
paths = (
{
closed = 1;
nodes = (
"215 0 LINE",
"1139 0 LINE",
"1139 170 LINE",
"418 170 LINE",
"418 711 LINE",
"811 985 LINE",
"733 1096 LINE",
"418 877 LINE",
"418 1493 LINE",
"215 1493 LINE",
"215 733 LINE",
"-10 575 LINE",
"70 465 LINE",
"215 571 LINE"
);
}
);
width = 1233;
}
);
note = "\012\011Lslash\012  ";
unicode = 0141;
},
{
glyphname = M;
layers = (
{
layerId = "1D6BC6EA-621B-4B6F-A209-F2A632971314";
name = Regular;
paths = (
{
closed = 1;
nodes = (
"86 0 LINE",
"272 0 LINE",
"272 1319 LINE",
"539 532 LINE",
"692 532 LINE",
"958 1319 LINE",
"958 0 LINE",
"1145 0 LINE",
"1145 1493 LINE",
"874 1493 LINE",
"614 733 LINE",
"356 1493 LINE",
"86 1493 LINE"
);
}
);
width = 1233;
}
);
note = "\012\011M\012  ";
unicode = 004D;
},
{
glyphname = N;
layers = (
{
layerId = "1D6BC6EA-621B-4B6F-A209-F2A632971314";
name = Regular;
paths = (
{
closed = 1;
nodes = (
"139 0 LINE",
"334 0 LINE",
"334 1229 LINE",
"838 0 LINE",
"1094 0 LINE",
"1094 1493 LINE",
"899 1493 LINE",
"899 264 LINE",
"395 1493 LINE",
"139 1493 LINE"
);
}
);
width = 1233;
}
);
note = "\012\011N\012  ";
unicode = 004E;
},
{
glyphname = Nacute;
layers = (
{
layerId = "1D6BC6EA-621B-4B6F-A209-F2A632971314";
name = Regular;
paths = (
{
closed = 1;
nodes = (
"534 1592 LINE",
"688 1592 LINE",
"917 1856 LINE",
"731 1856 LINE"
);
},
{
closed = 1;
nodes = (
"139 0 LINE",
"334 0 LINE",
"334 1229 LINE",
"838 0 LINE",
"1094 0 LINE",
"1094 1493 LINE",
"899 1493 LINE",
"899 264 LINE",
"395 1493 LINE",
"139 1493 LINE"
);
}
);
width = 1233;
}
);
note = "\012\011Nacute\012  ";
unicode = 0143;
},
{
glyphname = Ncaron;
layers = (
{
layerId = "1D6BC6EA-621B-4B6F-A209-F2A632971314";
name = Regular;
paths = (
{
closed = 1;
nodes = (
"558 1586 LINE",
"747 1586 LINE",
"958 1852 LINE",
"818 1852 LINE",
"652 1674 LINE",
"487 1852 LINE",
"347 1852 LINE"
);
},
{
closed = 1;
nodes = (
"139 0 LINE",
"334 0 LINE",
"334 1229 LINE",
"838 0 LINE",
"1094 0 LINE",
"1094 1493 LINE",
"899 1493 LINE",
"899 264 LINE",
"395 1493 LINE",
"139 1493 LINE"
);
}
);
width = 1233;
}
);
note = "\012\011Ncaron\012  ";
unicode = 0147;
},
{
glyphname = uni0145;
layers = (
{
layerId = "1D6BC6EA-621B-4B6F-A209-F2A632971314";
name = Regular;
paths = (
{
closed = 1;
nodes = (
"139 0 LINE",
"334 0 LINE",
"334 1229 LINE",
"838 0 LINE",
"1094 0 LINE",
"1094 1493 LINE",
"899 1493 LINE",
"899 264 LINE",
"395 1493 LINE",
"139 1493 LINE"
);
},
{
closed = 1;
nodes = (
"450 -544 LINE",
"596 -544 LINE",
"783 -199 LINE",
"544 -199 LINE"
);
}
);
width = 1233;
}
);
note = "\012\011uni0145\012  ";
unicode = 0145;
},
{
glyphname = Eng;
layers = (
{
layerId = "1D6BC6EA-621B-4B6F-A209-F2A632971314";
name = Regular;
paths = (
{
closed = 1;
nodes = (
"536 -426 LINE",
"741 -426 LINE SMOOTH",
"962 -426 OFFCURVE",
"1085 -281 OFFCURVE",
"1085 -20 CURVE SMOOTH",
"1085 999 LINE SMOOTH",
"1085 1348 OFFCURVE",
"961 1522 OFFCURVE",
"713 1522 CURVE SMOOTH",
"544 1522 OFFCURVE",
"421 1444 OFFCURVE",
"349 1295 CURVE",
"331 1493 LINE",
"147 1493 LINE",
"147 0 LINE",
"349 0 LINE",
"349 937 LINE SMOOTH",
"349 1209 OFFCURVE",
"453 1358 OFFCURVE",
"642 1358 CURVE SMOOTH",
"807 1358 OFFCURVE",
"882 1249 OFFCURVE",
"882 1009 CURVE SMOOTH",
"882 0 LINE SMOOTH",
"882 -195 OFFCURVE",
"823 -270 OFFCURVE",
"703 -270 CURVE SMOOTH",
"536 -270 LINE"
);
}
);
width = 1233;
}
);
note = "\012\011Eng\012  ";
unicode = 014A;
},
{
glyphname = Ntilde;
layers = (
{
layerId = "1D6BC6EA-621B-4B6F-A209-F2A632971314";
name = Regular;
paths = (
{
closed = 1;
nodes = (
"412 1633 LINE",
"412 1639 LINE SMOOTH",
"412 1668 OFFCURVE",
"419 1692 OFFCURVE",
"432 1709 CURVE SMOOTH",
"445 1726 OFFCURVE",
"465 1734 OFFCURVE",
"485 1734 CURVE SMOOTH",
"492 1734 OFFCURVE",
"503 1733 OFFCURVE",
"514 1729 CURVE",
"526 1724 OFFCURVE",
"540 1718 OFFCURVE",
"555 1709 CURVE SMOOTH",
"612 1676 LINE",
"653 1655 OFFCURVE",
"675 1646 OFFCURVE",
"694 1641 CURVE SMOOTH",
"715 1636 OFFCURVE",
"736 1633 OFFCURVE",
"757 1633 CURVE SMOOTH",
"814 1633 OFFCURVE",
"859 1653 OFFCURVE",
"893 1693 CURVE SMOOTH",
"928 1733 OFFCURVE",
"945 1786 OFFCURVE",
"946 1852 CURVE",
"821 1852 LINE",
"821 1846 LINE SMOOTH",
"821 1819 OFFCURVE",
"814 1797 OFFCURVE",
"801 1780 CURVE SMOOTH",
"788 1763 OFFCURVE",
"771 1754 OFFCURVE",
"750 1754 CURVE SMOOTH",
"739 1754 OFFCURVE",
"729 1756 OFFCURVE",
"718 1760 CURVE",
"705 1764 OFFCURVE",
"692 1770 OFFCURVE",
"678 1779 CURVE",
"621 1809 LINE SMOOTH",
"586 1828 OFFCURVE",
"562 1839 OFFCURVE",
"542 1844 CURVE SMOOTH",
"519 1849 OFFCURVE",
"497 1852 OFFCURVE",
"476 1852 CURVE SMOOTH",
"419 1852 OFFCURVE",
"373 1832 OFFCURVE",
"339 1793 CURVE SMOOTH",
"302 1750 OFFCURVE",
"287 1697 OFFCURVE",
"287 1633 CURVE"
);
},
{
closed = 1;
nodes = (
"139 0 LINE",
"334 0 LINE",
"334 1229 LINE",
"838 0 LINE",
"1094 0 LINE",
"1094 1493 LINE",
"899 1493 LINE",
"899 264 LINE",
"395 1493 LINE",
"139 1493 LINE"
);
}
);
width = 1233;
}
);
note = "\012\011Ntilde\012  ";
unicode = 00D1;
},
{
glyphname = O;
layers = (
{
layerId = "1D6BC6EA-621B-4B6F-A209-F2A632971314";
name = Regular;
paths = (
{
closed = 1;
nodes = (
"780 -29 OFFCURVE",
"908 30 OFFCURVE",
"993 163 CURVE SMOOTH",
"1075 291 OFFCURVE",
"1116 485 OFFCURVE",
"1116 745 CURVE SMOOTH",
"1116 1006 OFFCURVE",
"1075 1200 OFFCURVE",
"993 1328 CURVE SMOOTH",
"908 1461 OFFCURVE",
"780 1520 OFFCURVE",
"616 1520 CURVE SMOOTH",
"445 1520 OFFCURVE",
"324 1456 OFFCURVE",
"241 1328 CURVE SMOOTH",
"158 1201 OFFCURVE",
"117 1006 OFFCURVE",
"117 745 CURVE SMOOTH",
"117 483 OFFCURVE",
"158 289 OFFCURVE",
"240 162 CURVE SMOOTH",
"322 35 OFFCURVE",
"447 -29 OFFCURVE",
"616 -29 CURVE SMOOTH"
);
},
{
closed = 1;
nodes = (
"514 135 OFFCURVE",
"441 182 OFFCURVE",
"396 276 CURVE SMOOTH",
"351 371 OFFCURVE",
"328 527 OFFCURVE",
"328 745 CURVE SMOOTH",
"328 964 OFFCURVE",
"351 1120 OFFCURVE",
"396 1215 CURVE SMOOTH",
"441 1309 OFFCURVE",
"514 1356 OFFCURVE",
"616 1356 CURVE SMOOTH",
"719 1356 OFFCURVE",
"793 1309 OFFCURVE",
"838 1215 CURVE SMOOTH",
"883 1122 OFFCURVE",
"905 965 OFFCURVE",
"905 745 CURVE SMOOTH",
"905 524 OFFCURVE",
"883 368 OFFCURVE",
"838 276 CURVE SMOOTH",
"793 182 OFFCURVE",
"719 135 OFFCURVE",
"616 135 CURVE SMOOTH"
);
}
);
width = 1233;
}
);
note = "\012\011O\012  ";
unicode = 004F;
},
{
glyphname = Oacute;
layers = (
{
layerId = "1D6BC6EA-621B-4B6F-A209-F2A632971314";
name = Regular;
paths = (
{
closed = 1;
nodes = (
"504 1592 LINE",
"658 1592 LINE",
"887 1856 LINE",
"701 1856 LINE"
);
},
{
closed = 1;
nodes = (
"780 -29 OFFCURVE",
"908 30 OFFCURVE",
"993 163 CURVE SMOOTH",
"1075 291 OFFCURVE",
"1116 485 OFFCURVE",
"1116 745 CURVE SMOOTH",
"1116 1006 OFFCURVE",
"1075 1200 OFFCURVE",
"993 1328 CURVE SMOOTH",
"908 1461 OFFCURVE",
"780 1520 OFFCURVE",
"616 1520 CURVE SMOOTH",
"445 1520 OFFCURVE",
"324 1456 OFFCURVE",
"241 1328 CURVE SMOOTH",
"158 1201 OFFCURVE",
"117 1006 OFFCURVE",
"117 745 CURVE SMOOTH",
"117 483 OFFCURVE",
"158 289 OFFCURVE",
"240 162 CURVE SMOOTH",
"322 35 OFFCURVE",
"447 -29 OFFCURVE",
"616 -29 CURVE SMOOTH"
);
},
{
closed = 1;
nodes = (
"514 135 OFFCURVE",
"441 182 OFFCURVE",
"396 276 CURVE SMOOTH",
"351 371 OFFCURVE",
"328 527 OFFCURVE",
"328 745 CURVE SMOOTH",
"328 964 OFFCURVE",
"351 1120 OFFCURVE",
"396 1215 CURVE SMOOTH",
"441 1309 OFFCURVE",
"514 1356 OFFCURVE",
"616 1356 CURVE SMOOTH",
"719 1356 OFFCURVE",
"793 1309 OFFCURVE",
"838 1215 CURVE SMOOTH",
"883 1122 OFFCURVE",
"905 965 OFFCURVE",
"905 745 CURVE SMOOTH",
"905 524 OFFCURVE",
"883 368 OFFCURVE",
"838 276 CURVE SMOOTH",
"793 182 OFFCURVE",
"719 135 OFFCURVE",
"616 135 CURVE SMOOTH"
);
}
);
width = 1233;
}
);
note = "\012\011Oacute\012  ";
unicode = 00D3;
},
{
glyphname = Ocircumflex;
layers = (
{
layerId = "1D6BC6EA-621B-4B6F-A209-F2A632971314";
name = Regular;
paths = (
{
closed = 1;
nodes = (
"329 1586 LINE",
"469 1586 LINE",
"634 1764 LINE",
"800 1586 LINE",
"940 1586 LINE",
"729 1852 LINE",
"540 1852 LINE"
);
},
{
closed = 1;
nodes = (
"780 -29 OFFCURVE",
"908 30 OFFCURVE",
"993 163 CURVE SMOOTH",
"1075 291 OFFCURVE",
"1116 485 OFFCURVE",
"1116 745 CURVE SMOOTH",
"1116 1006 OFFCURVE",
"1075 1200 OFFCURVE",
"993 1328 CURVE SMOOTH",
"908 1461 OFFCURVE",
"780 1520 OFFCURVE",
"616 1520 CURVE SMOOTH",
"445 1520 OFFCURVE",
"324 1456 OFFCURVE",
"241 1328 CURVE SMOOTH",
"158 1201 OFFCURVE",
"117 1006 OFFCURVE",
"117 745 CURVE SMOOTH",
"117 483 OFFCURVE",
"158 289 OFFCURVE",
"240 162 CURVE SMOOTH",
"322 35 OFFCURVE",
"447 -29 OFFCURVE",
"616 -29 CURVE SMOOTH"
);
},
{
closed = 1;
nodes = (
"514 135 OFFCURVE",
"441 182 OFFCURVE",
"396 276 CURVE SMOOTH",
"351 371 OFFCURVE",
"328 527 OFFCURVE",
"328 745 CURVE SMOOTH",
"328 964 OFFCURVE",
"351 1120 OFFCURVE",
"396 1215 CURVE SMOOTH",
"441 1309 OFFCURVE",
"514 1356 OFFCURVE",
"616 1356 CURVE SMOOTH",
"719 1356 OFFCURVE",
"793 1309 OFFCURVE",
"838 1215 CURVE SMOOTH",
"883 1122 OFFCURVE",
"905 965 OFFCURVE",
"905 745 CURVE SMOOTH",
"905 524 OFFCURVE",
"883 368 OFFCURVE",
"838 276 CURVE SMOOTH",
"793 182 OFFCURVE",
"719 135 OFFCURVE",
"616 135 CURVE SMOOTH"
);
}
);
width = 1233;
}
);
note = "\012\011Ocircumflex\012  ";
unicode = 00D4;
},
{
glyphname = Odieresis;
layers = (
{
layerId = "1D6BC6EA-621B-4B6F-A209-F2A632971314";
name = Regular;
paths = (
{
closed = 1;
nodes = (
"492 1647 LINE SMOOTH",
"512 1647 OFFCURVE",
"522 1657 OFFCURVE",
"522 1677 CURVE SMOOTH",
"522 1820 LINE SMOOTH",
"522 1840 OFFCURVE",
"512 1850 OFFCURVE",
"492 1850 CURVE SMOOTH",
"349 1850 LINE SMOOTH",
"329 1850 OFFCURVE",
"319 1840 OFFCURVE",
"319 1820 CURVE SMOOTH",
"319 1677 LINE SMOOTH",
"319 1657 OFFCURVE",
"329 1647 OFFCURVE",
"349 1647 CURVE SMOOTH"
);
},
{
closed = 1;
nodes = (
"883 1647 LINE SMOOTH",
"903 1647 OFFCURVE",
"913 1657 OFFCURVE",
"913 1677 CURVE SMOOTH",
"913 1820 LINE SMOOTH",
"913 1840 OFFCURVE",
"903 1850 OFFCURVE",
"883 1850 CURVE SMOOTH",
"741 1850 LINE SMOOTH",
"721 1850 OFFCURVE",
"711 1840 OFFCURVE",
"711 1820 CURVE SMOOTH",
"711 1677 LINE SMOOTH",
"711 1657 OFFCURVE",
"721 1647 OFFCURVE",
"741 1647 CURVE SMOOTH"
);
},
{
closed = 1;
nodes = (
"780 -29 OFFCURVE",
"908 30 OFFCURVE",
"993 163 CURVE SMOOTH",
"1075 291 OFFCURVE",
"1116 485 OFFCURVE",
"1116 745 CURVE SMOOTH",
"1116 1006 OFFCURVE",
"1075 1200 OFFCURVE",
"993 1328 CURVE SMOOTH",
"908 1461 OFFCURVE",
"780 1520 OFFCURVE",
"616 1520 CURVE SMOOTH",
"445 1520 OFFCURVE",
"324 1456 OFFCURVE",
"241 1328 CURVE SMOOTH",
"158 1201 OFFCURVE",
"117 1006 OFFCURVE",
"117 745 CURVE SMOOTH",
"117 483 OFFCURVE",
"158 289 OFFCURVE",
"240 162 CURVE SMOOTH",
"322 35 OFFCURVE",
"447 -29 OFFCURVE",
"616 -29 CURVE SMOOTH"
);
},
{
closed = 1;
nodes = (
"514 135 OFFCURVE",
"441 182 OFFCURVE",
"396 276 CURVE SMOOTH",
"351 371 OFFCURVE",
"328 527 OFFCURVE",
"328 745 CURVE SMOOTH",
"328 964 OFFCURVE",
"351 1120 OFFCURVE",
"396 1215 CURVE SMOOTH",
"441 1309 OFFCURVE",
"514 1356 OFFCURVE",
"616 1356 CURVE SMOOTH",
"719 1356 OFFCURVE",
"793 1309 OFFCURVE",
"838 1215 CURVE SMOOTH",
"883 1122 OFFCURVE",
"905 965 OFFCURVE",
"905 745 CURVE SMOOTH",
"905 524 OFFCURVE",
"883 368 OFFCURVE",
"838 276 CURVE SMOOTH",
"793 182 OFFCURVE",
"719 135 OFFCURVE",
"616 135 CURVE SMOOTH"
);
}
);
width = 1233;
}
);
note = "\012\011Odieresis\012  ";
unicode = 00D6;
},
{
glyphname = Ograve;
layers = (
{
layerId = "1D6BC6EA-621B-4B6F-A209-F2A632971314";
name = Regular;
paths = (
{
closed = 1;
nodes = (
"609 1592 LINE",
"763 1592 LINE",
"566 1856 LINE",
"382 1856 LINE"
);
},
{
closed = 1;
nodes = (
"780 -29 OFFCURVE",
"908 30 OFFCURVE",
"993 163 CURVE SMOOTH",
"1075 291 OFFCURVE",
"1116 485 OFFCURVE",
"1116 745 CURVE SMOOTH",
"1116 1006 OFFCURVE",
"1075 1200 OFFCURVE",
"993 1328 CURVE SMOOTH",
"908 1461 OFFCURVE",
"780 1520 OFFCURVE",
"616 1520 CURVE SMOOTH",
"445 1520 OFFCURVE",
"324 1456 OFFCURVE",
"241 1328 CURVE SMOOTH",
"158 1201 OFFCURVE",
"117 1006 OFFCURVE",
"117 745 CURVE SMOOTH",
"117 483 OFFCURVE",
"158 289 OFFCURVE",
"240 162 CURVE SMOOTH",
"322 35 OFFCURVE",
"447 -29 OFFCURVE",
"616 -29 CURVE SMOOTH"
);
},
{
closed = 1;
nodes = (
"514 135 OFFCURVE",
"441 182 OFFCURVE",
"396 276 CURVE SMOOTH",
"351 371 OFFCURVE",
"328 527 OFFCURVE",
"328 745 CURVE SMOOTH",
"328 964 OFFCURVE",
"351 1120 OFFCURVE",
"396 1215 CURVE SMOOTH",
"441 1309 OFFCURVE",
"514 1356 OFFCURVE",
"616 1356 CURVE SMOOTH",
"719 1356 OFFCURVE",
"793 1309 OFFCURVE",
"838 1215 CURVE SMOOTH",
"883 1122 OFFCURVE",
"905 965 OFFCURVE",
"905 745 CURVE SMOOTH",
"905 524 OFFCURVE",
"883 368 OFFCURVE",
"838 276 CURVE SMOOTH",
"793 182 OFFCURVE",
"719 135 OFFCURVE",
"616 135 CURVE SMOOTH"
);
}
);
width = 1233;
}
);
note = "\012\011Ograve\012  ";
unicode = 00D2;
},
{
glyphname = Ohorn;
layers = (
{
layerId = "1D6BC6EA-621B-4B6F-A209-F2A632971314";
name = Regular;
paths = (
{
closed = 1;
nodes = (
"1038 1557 LINE",
"1058 1516 OFFCURVE",
"1068 1474 OFFCURVE",
"1068 1433 CURVE SMOOTH",
"1068 1361 OFFCURVE",
"1036 1323 OFFCURVE",
"980 1323 CURVE SMOOTH",
"944 1323 OFFCURVE",
"905 1337 OFFCURVE",
"845 1376 CURVE",
"765 1472 OFFCURVE",
"652 1520 OFFCURVE",
"505 1520 CURVE SMOOTH",
"169 1520 OFFCURVE",
"6 1267 OFFCURVE",
"6 744 CURVE SMOOTH",
"6 221 OFFCURVE",
"169 -29 OFFCURVE",
"504 -29 CURVE SMOOTH",
"841 -29 OFFCURVE",
"1005 225 OFFCURVE",
"1005 745 CURVE SMOOTH",
"1005 928 OFFCURVE",
"985 1079 OFFCURVE",
"944 1196 CURVE",
"969 1188 OFFCURVE",
"993 1184 OFFCURVE",
"1017 1184 CURVE SMOOTH",
"1136 1184 OFFCURVE",
"1191 1265 OFFCURVE",
"1191 1414 CURVE SMOOTH",
"1191 1463 OFFCURVE",
"1186 1501 OFFCURVE",
"1171 1557 CURVE"
);
},
{
closed = 1;
nodes = (
"682 182 OFFCURVE",
"608 135 OFFCURVE",
"505 135 CURVE SMOOTH",
"403 135 OFFCURVE",
"330 182 OFFCURVE",
"285 276 CURVE SMOOTH",
"240 371 OFFCURVE",
"217 527 OFFCURVE",
"217 745 CURVE SMOOTH",
"217 964 OFFCURVE",
"240 1120 OFFCURVE",
"285 1215 CURVE SMOOTH",
"330 1309 OFFCURVE",
"403 1356 OFFCURVE",
"505 1356 CURVE SMOOTH",
"608 1356 OFFCURVE",
"682 1309 OFFCURVE",
"727 1215 CURVE SMOOTH",
"772 1122 OFFCURVE",
"794 965 OFFCURVE",
"794 745 CURVE SMOOTH",
"794 524 OFFCURVE",
"772 368 OFFCURVE",
"727 276 CURVE SMOOTH"
);
}
);
width = 1233;
}
);
note = "\012\011Ohorn\012  ";
unicode = 01A0;
},
{
glyphname = Ohungarumlaut;
layers = (
{
layerId = "1D6BC6EA-621B-4B6F-A209-F2A632971314";
name = Regular;
paths = (
{
closed = 1;
nodes = (
"344 1595 LINE",
"498 1595 LINE",
"727 1859 LINE",
"541 1859 LINE"
);
},
{
closed = 1;
nodes = (
"663 1595 LINE",
"817 1595 LINE",
"1046 1859 LINE",
"860 1859 LINE"
);
},
{
closed = 1;
nodes = (
"952 -29 OFFCURVE",
"1116 225 OFFCURVE",
"1116 745 CURVE SMOOTH",
"1116 1266 OFFCURVE",
"953 1520 OFFCURVE",
"616 1520 CURVE SMOOTH",
"280 1520 OFFCURVE",
"117 1267 OFFCURVE",
"117 744 CURVE SMOOTH",
"117 221 OFFCURVE",
"280 -29 OFFCURVE",
"615 -29 CURVE SMOOTH"
);
},
{
closed = 1;
nodes = (
"514 135 OFFCURVE",
"441 182 OFFCURVE",
"396 276 CURVE SMOOTH",
"351 371 OFFCURVE",
"328 527 OFFCURVE",
"328 745 CURVE SMOOTH",
"328 964 OFFCURVE",
"351 1120 OFFCURVE",
"396 1215 CURVE SMOOTH",
"441 1309 OFFCURVE",
"514 1356 OFFCURVE",
"616 1356 CURVE SMOOTH",
"719 1356 OFFCURVE",
"793 1309 OFFCURVE",
"838 1215 CURVE SMOOTH",
"883 1122 OFFCURVE",
"905 965 OFFCURVE",
"905 745 CURVE SMOOTH",
"905 524 OFFCURVE",
"883 368 OFFCURVE",
"838 276 CURVE SMOOTH",
"793 182 OFFCURVE",
"719 135 OFFCURVE",
"616 135 CURVE SMOOTH"
);
}
);
width = 1233;
}
);
note = "\012\011Ohungarumlaut\012  ";
unicode = 0150;
},
{
glyphname = Omacron;
layers = (
{
layerId = "1D6BC6EA-621B-4B6F-A209-F2A632971314";
name = Regular;
paths = (
{
closed = 1;
nodes = (
"317 1652 LINE",
"915 1652 LINE",
"915 1800 LINE",
"317 1800 LINE"
);
},
{
closed = 1;
nodes = (
"952 -29 OFFCURVE",
"1116 225 OFFCURVE",
"1116 745 CURVE SMOOTH",
"1116 1266 OFFCURVE",
"953 1520 OFFCURVE",
"616 1520 CURVE SMOOTH",
"280 1520 OFFCURVE",
"117 1267 OFFCURVE",
"117 744 CURVE SMOOTH",
"117 221 OFFCURVE",
"280 -29 OFFCURVE",
"615 -29 CURVE SMOOTH"
);
},
{
closed = 1;
nodes = (
"514 135 OFFCURVE",
"441 182 OFFCURVE",
"396 276 CURVE SMOOTH",
"351 371 OFFCURVE",
"328 527 OFFCURVE",
"328 745 CURVE SMOOTH",
"328 964 OFFCURVE",
"351 1120 OFFCURVE",
"396 1215 CURVE SMOOTH",
"441 1309 OFFCURVE",
"514 1356 OFFCURVE",
"616 1356 CURVE SMOOTH",
"719 1356 OFFCURVE",
"793 1309 OFFCURVE",
"838 1215 CURVE SMOOTH",
"883 1122 OFFCURVE",
"905 965 OFFCURVE",
"905 745 CURVE SMOOTH",
"905 524 OFFCURVE",
"883 368 OFFCURVE",
"838 276 CURVE SMOOTH",
"793 182 OFFCURVE",
"719 135 OFFCURVE",
"616 135 CURVE SMOOTH"
);
}
);
width = 1233;
}
);
note = "\012\011Omacron\012  ";
unicode = 014C;
},
{
glyphname = Oslash;
layers = (
{
layerId = "1D6BC6EA-621B-4B6F-A209-F2A632971314";
name = Regular;
paths = (
{
closed = 1;
nodes = (
"111 -70 LINE",
"254 133 LINE",
"295 79 OFFCURVE",
"345 39 OFFCURVE",
"405 12 CURVE SMOOTH",
"469 -17 OFFCURVE",
"536 -29 OFFCURVE",
"612 -29 CURVE SMOOTH",
"791 -29 OFFCURVE",
"913 38 OFFCURVE",
"993 163 CURVE SMOOTH",
"1075 291 OFFCURVE",
"1116 485 OFFCURVE",
"1116 744 CURVE SMOOTH",
"1116 859 OFFCURVE",
"1108 960 OFFCURVE",
"1095 1037 CURVE SMOOTH",
"1080 1118 OFFCURVE",
"1060 1192 OFFCURVE",
"1032 1247 CURVE",
"1200 1485 LINE",
"1100 1559 LINE",
"961 1358 LINE",
"922 1412 OFFCURVE",
"875 1452 OFFCURVE",
"818 1479 CURVE SMOOTH",
"759 1506 OFFCURVE",
"695 1520 OFFCURVE",
"615 1520 CURVE SMOOTH",
"450 1520 OFFCURVE",
"326 1460 OFFCURVE",
"241 1328 CURVE SMOOTH",
"157 1199 OFFCURVE",
"117 1011 OFFCURVE",
"117 740 CURVE SMOOTH",
"117 628 OFFCURVE",
"124 540 OFFCURVE",
"136 456 CURVE SMOOTH",
"149 364 OFFCURVE",
"163 304 OFFCURVE",
"186 252 CURVE",
"8 0 LINE"
);
},
{
closed = 1;
nodes = (
"338 471 LINE",
"331 518 OFFCURVE",
"332 537 OFFCURVE",
"331 556 CURVE SMOOTH",
"328 598 OFFCURVE",
"328 628 OFFCURVE",
"328 686 CURVE SMOOTH",
"328 951 OFFCURVE",
"349 1107 OFFCURVE",
"394 1208 CURVE SMOOTH",
"437 1304 OFFCURVE",
"503 1356 OFFCURVE",
"615 1356 CURVE SMOOTH",
"671 1356 OFFCURVE",
"721 1343 OFFCURVE",
"760 1314 CURVE SMOOTH",
"795 1287 OFFCURVE",
"825 1246 OFFCURVE",
"842 1190 CURVE"
);
},
{
closed = 1;
nodes = (
"561 135 OFFCURVE",
"512 149 OFFCURVE",
"467 180 CURVE SMOOTH",
"423 210 OFFCURVE",
"391 251 OFFCURVE",
"371 303 CURVE",
"885 1036 LINE",
"893 1001 OFFCURVE",
"897 967 OFFCURVE",
"900 923 CURVE SMOOTH",
"903 878 OFFCURVE",
"905 817 OFFCURVE",
"905 748 CURVE SMOOTH",
"905 506 OFFCURVE",
"881 365 OFFCURVE",
"838 277 CURVE SMOOTH",
"795 186 OFFCURVE",
"726 135 OFFCURVE",
"617 135 CURVE SMOOTH"
);
}
);
width = 1233;
}
);
note = "\012\011Oslash\012  ";
unicode = 00D8;
},
{
glyphname = Oslashacute;
layers = (
{
layerId = "1D6BC6EA-621B-4B6F-A209-F2A632971314";
name = Regular;
paths = (
{
closed = 1;
nodes = (
"494 1592 LINE",
"648 1592 LINE",
"877 1856 LINE",
"691 1856 LINE"
);
},
{
closed = 1;
nodes = (
"111 -70 LINE",
"254 133 LINE",
"335 25 OFFCURVE",
"454 -29 OFFCURVE",
"613 -29 CURVE SMOOTH",
"953 -29 OFFCURVE",
"1116 224 OFFCURVE",
"1116 744 CURVE SMOOTH",
"1116 964 OFFCURVE",
"1088 1139 OFFCURVE",
"1032 1247 CURVE",
"1200 1485 LINE",
"1100 1559 LINE",
"961 1358 LINE",
"884 1466 OFFCURVE",
"769 1520 OFFCURVE",
"614 1520 CURVE SMOOTH",
"279 1520 OFFCURVE",
"117 1265 OFFCURVE",
"117 744 CURVE SMOOTH",
"117 536 OFFCURVE",
"143 348 OFFCURVE",
"186 252 CURVE",
"8 0 LINE"
);
},
{
closed = 1;
nodes = (
"338 471 LINE",
"331 516 OFFCURVE",
"328 581 OFFCURVE",
"328 682 CURVE SMOOTH",
"328 930 OFFCURVE",
"346 1101 OFFCURVE",
"395 1210 CURVE SMOOTH",
"438 1303 OFFCURVE",
"502 1356 OFFCURVE",
"615 1356 CURVE SMOOTH",
"736 1356 OFFCURVE",
"810 1294 OFFCURVE",
"842 1190 CURVE"
);
},
{
closed = 1;
nodes = (
"503 135 OFFCURVE",
"414 195 OFFCURVE",
"371 303 CURVE",
"885 1036 LINE",
"898 976 OFFCURVE",
"905 888 OFFCURVE",
"905 755 CURVE SMOOTH",
"905 502 OFFCURVE",
"881 366 OFFCURVE",
"838 277 CURVE SMOOTH",
"793 182 OFFCURVE",
"720 135 OFFCURVE",
"619 135 CURVE SMOOTH"
);
}
);
width = 1233;
}
);
note = "\012\011Oslashacute\012  ";
unicode = 01FE;
},
{
glyphname = Otilde;
layers = (
{
layerId = "1D6BC6EA-621B-4B6F-A209-F2A632971314";
name = Regular;
paths = (
{
closed = 1;
nodes = (
"412 1633 LINE",
"412 1639 LINE SMOOTH",
"412 1668 OFFCURVE",
"419 1692 OFFCURVE",
"432 1709 CURVE SMOOTH",
"445 1726 OFFCURVE",
"465 1734 OFFCURVE",
"485 1734 CURVE SMOOTH",
"492 1734 OFFCURVE",
"503 1733 OFFCURVE",
"514 1729 CURVE",
"526 1724 OFFCURVE",
"540 1718 OFFCURVE",
"555 1709 CURVE SMOOTH",
"612 1676 LINE",
"653 1655 OFFCURVE",
"675 1646 OFFCURVE",
"694 1641 CURVE SMOOTH",
"715 1636 OFFCURVE",
"736 1633 OFFCURVE",
"757 1633 CURVE SMOOTH",
"814 1633 OFFCURVE",
"859 1653 OFFCURVE",
"893 1693 CURVE SMOOTH",
"928 1733 OFFCURVE",
"945 1786 OFFCURVE",
"946 1852 CURVE",
"821 1852 LINE",
"821 1846 LINE SMOOTH",
"821 1819 OFFCURVE",
"814 1797 OFFCURVE",
"801 1780 CURVE SMOOTH",
"788 1763 OFFCURVE",
"771 1754 OFFCURVE",
"750 1754 CURVE SMOOTH",
"739 1754 OFFCURVE",
"729 1756 OFFCURVE",
"718 1760 CURVE",
"705 1764 OFFCURVE",
"692 1770 OFFCURVE",
"678 1779 CURVE",
"621 1809 LINE SMOOTH",
"586 1828 OFFCURVE",
"562 1839 OFFCURVE",
"542 1844 CURVE SMOOTH",
"519 1849 OFFCURVE",
"497 1852 OFFCURVE",
"476 1852 CURVE SMOOTH",
"419 1852 OFFCURVE",
"373 1832 OFFCURVE",
"339 1793 CURVE SMOOTH",
"302 1750 OFFCURVE",
"287 1697 OFFCURVE",
"287 1633 CURVE"
);
},
{
closed = 1;
nodes = (
"780 -29 OFFCURVE",
"908 30 OFFCURVE",
"993 163 CURVE SMOOTH",
"1075 291 OFFCURVE",
"1116 485 OFFCURVE",
"1116 745 CURVE SMOOTH",
"1116 1006 OFFCURVE",
"1075 1200 OFFCURVE",
"993 1328 CURVE SMOOTH",
"908 1461 OFFCURVE",
"780 1520 OFFCURVE",
"616 1520 CURVE SMOOTH",
"445 1520 OFFCURVE",
"324 1456 OFFCURVE",
"241 1328 CURVE SMOOTH",
"158 1201 OFFCURVE",
"117 1006 OFFCURVE",
"117 745 CURVE SMOOTH",
"117 483 OFFCURVE",
"158 289 OFFCURVE",
"240 162 CURVE SMOOTH",
"322 35 OFFCURVE",
"447 -29 OFFCURVE",
"616 -29 CURVE SMOOTH"
);
},
{
closed = 1;
nodes = (
"514 135 OFFCURVE",
"441 182 OFFCURVE",
"396 276 CURVE SMOOTH",
"351 371 OFFCURVE",
"328 527 OFFCURVE",
"328 745 CURVE SMOOTH",
"328 964 OFFCURVE",
"351 1120 OFFCURVE",
"396 1215 CURVE SMOOTH",
"441 1309 OFFCURVE",
"514 1356 OFFCURVE",
"616 1356 CURVE SMOOTH",
"719 1356 OFFCURVE",
"793 1309 OFFCURVE",
"838 1215 CURVE SMOOTH",
"883 1122 OFFCURVE",
"905 965 OFFCURVE",
"905 745 CURVE SMOOTH",
"905 524 OFFCURVE",
"883 368 OFFCURVE",
"838 276 CURVE SMOOTH",
"793 182 OFFCURVE",
"719 135 OFFCURVE",
"616 135 CURVE SMOOTH"
);
}
);
width = 1233;
}
);
note = "\012\011Otilde\012  ";
unicode = 00D5;
},
{
glyphname = OE;
layers = (
{
layerId = "1D6BC6EA-621B-4B6F-A209-F2A632971314";
name = Regular;
paths = (
{
closed = 1;
nodes = (
"1217 0 LINE",
"1217 170 LINE",
"848 170 LINE",
"848 711 LINE",
"1176 711 LINE",
"1176 881 LINE",
"848 881 LINE",
"848 1323 LINE",
"1206 1323 LINE",
"1206 1493 LINE",
"612 1493 LINE SMOOTH",
"405 1493 OFFCURVE",
"275 1436 OFFCURVE",
"195 1327 CURVE SMOOTH",
"116 1219 OFFCURVE",
"72 1042 OFFCURVE",
"72 747 CURVE SMOOTH",
"72 468 OFFCURVE",
"111 283 OFFCURVE",
"196 167 CURVE SMOOTH",
"275 60 OFFCURVE",
"401 0 OFFCURVE",
"612 0 CURVE SMOOTH"
);
},
{
closed = 1;
nodes = (
"590 170 LINE SMOOTH",
"472 170 OFFCURVE",
"390 208 OFFCURVE",
"344 285 CURVE SMOOTH",
"297 362 OFFCURVE",
"274 505 OFFCURVE",
"274 745 CURVE SMOOTH",
"274 990 OFFCURVE",
"299 1132 OFFCURVE",
"344 1208 CURVE SMOOTH",
"390 1285 OFFCURVE",
"472 1323 OFFCURVE",
"590 1323 CURVE SMOOTH",
"651 1323 LINE",
"651 170 LINE"
);
}
);
width = 1233;
}
);
note = "\012\011OE\012  ";
unicode = 0152;
},
{
glyphname = P;
layers = (
{
layerId = "1D6BC6EA-621B-4B6F-A209-F2A632971314";
name = Regular;
paths = (
{
closed = 1;
nodes = (
"172 0 LINE",
"374 0 LINE",
"374 600 LINE",
"608 600 LINE SMOOTH",
"777 600 OFFCURVE",
"904 638 OFFCURVE",
"988 713 CURVE SMOOTH",
"1073 788 OFFCURVE",
"1116 899 OFFCURVE",
"1116 1046 CURVE SMOOTH",
"1116 1187 OFFCURVE",
"1076 1301 OFFCURVE",
"987 1380 CURVE SMOOTH",
"900 1455 OFFCURVE",
"774 1493 OFFCURVE",
"608 1493 CURVE SMOOTH",
"172 1493 LINE"
);
},
{
closed = 1;
nodes = (
"374 766 LINE",
"374 1327 LINE",
"608 1327 LINE SMOOTH",
"703 1327 OFFCURVE",
"776 1303 OFFCURVE",
"827 1254 CURVE SMOOTH",
"879 1205 OFFCURVE",
"905 1136 OFFCURVE",
"905 1047 CURVE SMOOTH",
"905 958 OFFCURVE",
"879 889 OFFCURVE",
"827 840 CURVE SMOOTH",
"779 795 OFFCURVE",
"708 766 OFFCURVE",
"608 766 CURVE SMOOTH"
);
}
);
width = 1233;
}
);
note = "\012\011P\012  ";
unicode = 0050;
},
{
glyphname = Thorn;
layers = (
{
layerId = "1D6BC6EA-621B-4B6F-A209-F2A632971314";
name = Regular;
paths = (
{
closed = 1;
nodes = (
"201 0 LINE",
"403 0 LINE",
"403 367 LINE",
"657 367 LINE SMOOTH",
"830 367 OFFCURVE",
"958 402 OFFCURVE",
"1041 472 CURVE SMOOTH",
"1122 540 OFFCURVE",
"1165 645 OFFCURVE",
"1165 794 CURVE SMOOTH",
"1165 940 OFFCURVE",
"1124 1048 OFFCURVE",
"1041 1118 CURVE SMOOTH",
"958 1188 OFFCURVE",
"830 1223 OFFCURVE",
"657 1223 CURVE SMOOTH",
"403 1223 LINE",
"403 1493 LINE",
"201 1493 LINE"
);
},
{
closed = 1;
nodes = (
"403 532 LINE",
"403 1057 LINE",
"637 1057 LINE SMOOTH",
"748 1057 OFFCURVE",
"826 1032 OFFCURVE",
"874 992 CURVE SMOOTH",
"927 948 OFFCURVE",
"952 879 OFFCURVE",
"952 795 CURVE SMOOTH",
"952 708 OFFCURVE",
"926 642 OFFCURVE",
"874 598 CURVE SMOOTH",
"821 554 OFFCURVE",
"742 532 OFFCURVE",
"637 532 CURVE SMOOTH"
);
}
);
width = 1233;
}
);
note = "\012\011Thorn\012  ";
unicode = 00DE;
},
{
glyphname = Q;
layers = (
{
layerId = "1D6BC6EA-621B-4B6F-A209-F2A632971314";
name = Regular;
paths = (
{
closed = 1;
nodes = (
"889 -270 LINE",
"1125 -270 LINE",
"840 20 LINE",
"935 68 OFFCURVE",
"1004 155 OFFCURVE",
"1048 272 CURVE SMOOTH",
"1093 392 OFFCURVE",
"1116 550 OFFCURVE",
"1116 745 CURVE SMOOTH",
"1116 1006 OFFCURVE",
"1075 1200 OFFCURVE",
"993 1328 CURVE SMOOTH",
"908 1461 OFFCURVE",
"780 1520 OFFCURVE",
"616 1520 CURVE SMOOTH",
"445 1520 OFFCURVE",
"324 1456 OFFCURVE",
"241 1328 CURVE SMOOTH",
"158 1201 OFFCURVE",
"117 1006 OFFCURVE",
"117 745 CURVE SMOOTH",
"117 489 OFFCURVE",
"156 296 OFFCURVE",
"241 163 CURVE SMOOTH",
"326 30 OFFCURVE",
"450 -29 OFFCURVE",
"617 -29 CURVE SMOOTH",
"620 -29 OFFCURVE",
"626 -29 OFFCURVE",
"635 -28 CURVE SMOOTH",
"644 -27 OFFCURVE",
"650 -27 OFFCURVE",
"655 -27 CURVE"
);
},
{
closed = 1;
nodes = (
"514 135 OFFCURVE",
"441 182 OFFCURVE",
"396 276 CURVE SMOOTH",
"351 371 OFFCURVE",
"328 527 OFFCURVE",
"328 745 CURVE SMOOTH",
"328 964 OFFCURVE",
"351 1120 OFFCURVE",
"396 1215 CURVE SMOOTH",
"441 1309 OFFCURVE",
"514 1356 OFFCURVE",
"616 1356 CURVE SMOOTH",
"719 1356 OFFCURVE",
"793 1309 OFFCURVE",
"838 1215 CURVE SMOOTH",
"883 1122 OFFCURVE",
"905 965 OFFCURVE",
"905 745 CURVE SMOOTH",
"905 524 OFFCURVE",
"883 368 OFFCURVE",
"838 276 CURVE SMOOTH",
"793 182 OFFCURVE",
"719 135 OFFCURVE",
"616 135 CURVE SMOOTH"
);
}
);
width = 1233;
}
);
note = "\012\011Q\012  ";
unicode = 0051;
},
{
glyphname = R;
layers = (
{
layerId = "1D6BC6EA-621B-4B6F-A209-F2A632971314";
name = Regular;
paths = (
{
closed = 1;
nodes = (
"143 0 LINE",
"346 0 LINE",
"346 631 LINE",
"539 631 LINE SMOOTH",
"602 631 OFFCURVE",
"659 617 OFFCURVE",
"700 585 CURVE SMOOTH",
"740 554 OFFCURVE",
"786 488 OFFCURVE",
"838 377 CURVE SMOOTH",
"1016 0 LINE",
"1233 0 LINE",
"1030 408 LINE SMOOTH",
"971 525 OFFCURVE",
"930 591 OFFCURVE",
"893 630 CURVE SMOOTH",
"860 665 OFFCURVE",
"813 692 OFFCURVE",
"760 705 CURVE",
"858 719 OFFCURVE",
"934 757 OFFCURVE",
"987 820 CURVE SMOOTH",
"1040 883 OFFCURVE",
"1067 960 OFFCURVE",
"1067 1065 CURVE SMOOTH",
"1067 1200 OFFCURVE",
"1024 1307 OFFCURVE",
"936 1382 CURVE SMOOTH",
"849 1456 OFFCURVE",
"723 1493 OFFCURVE",
"559 1493 CURVE SMOOTH",
"143 1493 LINE"
);
},
{
closed = 1;
nodes = (
"346 797 LINE",
"346 1327 LINE",
"559 1327 LINE SMOOTH",
"659 1327 OFFCURVE",
"731 1302 OFFCURVE",
"779 1259 CURVE SMOOTH",
"830 1212 OFFCURVE",
"854 1146 OFFCURVE",
"854 1059 CURVE SMOOTH",
"854 972 OFFCURVE",
"830 905 OFFCURVE",
"783 862 CURVE SMOOTH",
"736 819 OFFCURVE",
"664 797 OFFCURVE",
"567 797 CURVE SMOOTH"
);
}
);
width = 1233;
}
);
note = "\012\011R\012  ";
unicode = 0052;
},
{
glyphname = Racute;
layers = (
{
layerId = "1D6BC6EA-621B-4B6F-A209-F2A632971314";
name = Regular;
paths = (
{
closed = 1;
nodes = (
"434 1592 LINE",
"588 1592 LINE",
"817 1856 LINE",
"631 1856 LINE"
);
},
{
closed = 1;
nodes = (
"143 0 LINE",
"346 0 LINE",
"346 631 LINE",
"539 631 LINE SMOOTH",
"667 631 OFFCURVE",
"734 596 OFFCURVE",
"838 377 CURVE SMOOTH",
"1016 0 LINE",
"1233 0 LINE",
"1030 408 LINE SMOOTH",
"920 626 OFFCURVE",
"869 675 OFFCURVE",
"760 705 CURVE",
"953 734 OFFCURVE",
"1067 856 OFFCURVE",
"1067 1069 CURVE SMOOTH",
"1067 1337 OFFCURVE",
"886 1493 OFFCURVE",
"559 1493 CURVE SMOOTH",
"143 1493 LINE"
);
},
{
closed = 1;
nodes = (
"346 797 LINE",
"346 1327 LINE",
"559 1327 LINE SMOOTH",
"751 1327 OFFCURVE",
"854 1237 OFFCURVE",
"854 1056 CURVE SMOOTH",
"854 883 OFFCURVE",
"758 797 OFFCURVE",
"567 797 CURVE SMOOTH"
);
}
);
width = 1233;
}
);
note = "\012\011Racute\012  ";
unicode = 0154;
},
{
glyphname = Rcaron;
layers = (
{
layerId = "1D6BC6EA-621B-4B6F-A209-F2A632971314";
name = Regular;
paths = (
{
closed = 1;
nodes = (
"468 1586 LINE",
"657 1586 LINE",
"868 1852 LINE",
"728 1852 LINE",
"562 1674 LINE",
"397 1852 LINE",
"257 1852 LINE"
);
},
{
closed = 1;
nodes = (
"143 0 LINE",
"346 0 LINE",
"346 631 LINE",
"539 631 LINE SMOOTH",
"667 631 OFFCURVE",
"734 596 OFFCURVE",
"838 377 CURVE SMOOTH",
"1016 0 LINE",
"1233 0 LINE",
"1030 408 LINE SMOOTH",
"920 626 OFFCURVE",
"869 675 OFFCURVE",
"760 705 CURVE",
"953 734 OFFCURVE",
"1067 856 OFFCURVE",
"1067 1069 CURVE SMOOTH",
"1067 1337 OFFCURVE",
"886 1493 OFFCURVE",
"559 1493 CURVE SMOOTH",
"143 1493 LINE"
);
},
{
closed = 1;
nodes = (
"346 797 LINE",
"346 1327 LINE",
"559 1327 LINE SMOOTH",
"751 1327 OFFCURVE",
"854 1237 OFFCURVE",
"854 1056 CURVE SMOOTH",
"854 883 OFFCURVE",
"758 797 OFFCURVE",
"567 797 CURVE SMOOTH"
);
}
);
width = 1233;
}
);
note = "\012\011Rcaron\012  ";
unicode = 0158;
},
{
glyphname = uni0156;
layers = (
{
layerId = "1D6BC6EA-621B-4B6F-A209-F2A632971314";
name = Regular;
paths = (
{
closed = 1;
nodes = (
"143 0 LINE",
"346 0 LINE",
"346 631 LINE",
"539 631 LINE SMOOTH",
"667 631 OFFCURVE",
"734 596 OFFCURVE",
"838 377 CURVE SMOOTH",
"1016 0 LINE",
"1233 0 LINE",
"1030 408 LINE SMOOTH",
"920 626 OFFCURVE",
"869 675 OFFCURVE",
"760 705 CURVE",
"953 734 OFFCURVE",
"1067 856 OFFCURVE",
"1067 1069 CURVE SMOOTH",
"1067 1337 OFFCURVE",
"886 1493 OFFCURVE",
"559 1493 CURVE SMOOTH",
"143 1493 LINE"
);
},
{
closed = 1;
nodes = (
"346 797 LINE",
"346 1327 LINE",
"559 1327 LINE SMOOTH",
"751 1327 OFFCURVE",
"854 1237 OFFCURVE",
"854 1056 CURVE SMOOTH",
"854 883 OFFCURVE",
"758 797 OFFCURVE",
"567 797 CURVE SMOOTH"
);
},
{
closed = 1;
nodes = (
"522 -544 LINE",
"668 -544 LINE",
"855 -199 LINE",
"616 -199 LINE"
);
}
);
width = 1233;
}
);
note = "\012\011uni0156\012  ";
unicode = 0156;
},
{
glyphname = S;
layers = (
{
layerId = "1D6BC6EA-621B-4B6F-A209-F2A632971314";
name = Regular;
paths = (
{
closed = 1;
nodes = (
"749 -29 OFFCURVE",
"879 8 OFFCURVE",
"967 83 CURVE SMOOTH",
"1048 152 OFFCURVE",
"1098 258 OFFCURVE",
"1098 410 CURVE SMOOTH",
"1098 530 OFFCURVE",
"1066 625 OFFCURVE",
"1001 694 CURVE SMOOTH",
"936 765 OFFCURVE",
"837 816 OFFCURVE",
"696 848 CURVE SMOOTH",
"590 872 LINE SMOOTH",
"490 895 OFFCURVE",
"428 921 OFFCURVE",
"387 960 CURVE SMOOTH",
"352 993 OFFCURVE",
"332 1037 OFFCURVE",
"332 1105 CURVE SMOOTH",
"332 1181 OFFCURVE",
"358 1245 OFFCURVE",
"414 1290 CURVE SMOOTH",
"470 1335 OFFCURVE",
"551 1356 OFFCURVE",
"642 1356 CURVE SMOOTH",
"704 1356 OFFCURVE",
"766 1346 OFFCURVE",
"828 1326 CURVE SMOOTH",
"888 1306 OFFCURVE",
"948 1278 OFFCURVE",
"1012 1237 CURVE",
"1012 1442 LINE",
"941 1469 OFFCURVE",
"874 1488 OFFCURVE",
"812 1501 CURVE SMOOTH",
"748 1514 OFFCURVE",
"688 1520 OFFCURVE",
"631 1520 CURVE SMOOTH",
"479 1520 OFFCURVE",
"359 1477 OFFCURVE",
"274 1401 CURVE SMOOTH",
"187 1324 OFFCURVE",
"139 1215 OFFCURVE",
"139 1079 CURVE SMOOTH",
"139 972 OFFCURVE",
"170 887 OFFCURVE",
"233 824 CURVE SMOOTH",
"300 756 OFFCURVE",
"400 713 OFFCURVE",
"535 682 CURVE SMOOTH",
"643 657 LINE SMOOTH",
"743 634 OFFCURVE",
"804 609 OFFCURVE",
"847 565 CURVE SMOOTH",
"886 526 OFFCURVE",
"905 475 OFFCURVE",
"905 400 CURVE SMOOTH",
"905 315 OFFCURVE",
"879 250 OFFCURVE",
"820 203 CURVE SMOOTH",
"763 158 OFFCURVE",
"681 135 OFFCURVE",
"581 135 CURVE SMOOTH",
"512 135 OFFCURVE",
"444 146 OFFCURVE",
"376 169 CURVE SMOOTH",
"307 192 OFFCURVE",
"235 227 OFFCURVE",
"158 276 CURVE",
"158 61 LINE",
"226 33 OFFCURVE",
"302 8 OFFCURVE",
"371 -7 CURVE SMOOTH",
"440 -22 OFFCURVE",
"513 -29 OFFCURVE",
"584 -29 CURVE SMOOTH"
);
}
);
width = 1233;
}
);
note = "\012\011S\012  ";
unicode = 0053;
},
{
glyphname = Sacute;
layers = (
{
layerId = "1D6BC6EA-621B-4B6F-A209-F2A632971314";
name = Regular;
paths = (
{
closed = 1;
nodes = (
"504 1592 LINE",
"658 1592 LINE",
"887 1856 LINE",
"701 1856 LINE"
);
},
{
closed = 1;
nodes = (
"917 -29 OFFCURVE",
"1098 124 OFFCURVE",
"1098 411 CURVE SMOOTH",
"1098 644 OFFCURVE",
"979 784 OFFCURVE",
"696 848 CURVE SMOOTH",
"590 872 LINE SMOOTH",
"395 915 OFFCURVE",
"332 982 OFFCURVE",
"332 1101 CURVE SMOOTH",
"332 1265 OFFCURVE",
"451 1356 OFFCURVE",
"640 1356 CURVE SMOOTH",
"765 1356 OFFCURVE",
"889 1316 OFFCURVE",
"1012 1237 CURVE",
"1012 1442 LINE",
"872 1494 OFFCURVE",
"745 1520 OFFCURVE",
"631 1520 CURVE SMOOTH",
"334 1520 OFFCURVE",
"139 1346 OFFCURVE",
"139 1077 CURVE SMOOTH",
"139 869 OFFCURVE",
"255 746 OFFCURVE",
"535 682 CURVE SMOOTH",
"643 657 LINE SMOOTH",
"839 611 OFFCURVE",
"905 539 OFFCURVE",
"905 405 CURVE SMOOTH",
"905 225 OFFCURVE",
"787 135 OFFCURVE",
"583 135 CURVE SMOOTH",
"442 135 OFFCURVE",
"311 179 OFFCURVE",
"158 276 CURVE",
"158 61 LINE",
"302 1 OFFCURVE",
"439 -29 OFFCURVE",
"586 -29 CURVE SMOOTH"
);
}
);
width = 1233;
}
);
note = "\012\011Sacute\012  ";
unicode = 015A;
},
{
glyphname = Scaron;
layers = (
{
layerId = "1D6BC6EA-621B-4B6F-A209-F2A632971314";
name = Regular;
paths = (
{
closed = 1;
nodes = (
"538 1586 LINE",
"727 1586 LINE",
"938 1852 LINE",
"798 1852 LINE",
"632 1674 LINE",
"467 1852 LINE",
"327 1852 LINE"
);
},
{
closed = 1;
nodes = (
"747 -29 OFFCURVE",
"879 7 OFFCURVE",
"967 83 CURVE SMOOTH",
"1048 152 OFFCURVE",
"1098 258 OFFCURVE",
"1098 410 CURVE SMOOTH",
"1098 530 OFFCURVE",
"1066 625 OFFCURVE",
"1001 694 CURVE SMOOTH",
"930 770 OFFCURVE",
"825 819 OFFCURVE",
"696 848 CURVE SMOOTH",
"590 872 LINE SMOOTH",
"489 895 OFFCURVE",
"426 923 OFFCURVE",
"387 960 CURVE SMOOTH",
"344 1000 OFFCURVE",
"332 1050 OFFCURVE",
"332 1105 CURVE SMOOTH",
"332 1185 OFFCURVE",
"361 1247 OFFCURVE",
"414 1290 CURVE SMOOTH",
"465 1331 OFFCURVE",
"542 1356 OFFCURVE",
"642 1356 CURVE SMOOTH",
"704 1356 OFFCURVE",
"766 1346 OFFCURVE",
"828 1326 CURVE SMOOTH",
"884 1307 OFFCURVE",
"945 1280 OFFCURVE",
"1012 1237 CURVE",
"1012 1442 LINE",
"941 1469 OFFCURVE",
"874 1488 OFFCURVE",
"812 1501 CURVE SMOOTH",
"748 1514 OFFCURVE",
"688 1520 OFFCURVE",
"631 1520 CURVE SMOOTH",
"479 1520 OFFCURVE",
"359 1477 OFFCURVE",
"274 1401 CURVE SMOOTH",
"189 1325 OFFCURVE",
"139 1216 OFFCURVE",
"139 1079 CURVE SMOOTH",
"139 967 OFFCURVE",
"172 887 OFFCURVE",
"233 824 CURVE SMOOTH",
"300 756 OFFCURVE",
"400 713 OFFCURVE",
"535 682 CURVE SMOOTH",
"643 657 LINE SMOOTH",
"736 636 OFFCURVE",
"806 609 OFFCURVE",
"847 566 CURVE SMOOTH",
"883 529 OFFCURVE",
"905 475 OFFCURVE",
"905 399 CURVE SMOOTH",
"905 307 OFFCURVE",
"873 246 OFFCURVE",
"820 203 CURVE SMOOTH",
"763 158 OFFCURVE",
"682 135 OFFCURVE",
"582 135 CURVE SMOOTH",
"515 135 OFFCURVE",
"448 145 OFFCURVE",
"376 169 CURVE SMOOTH",
"307 192 OFFCURVE",
"235 227 OFFCURVE",
"158 276 CURVE",
"158 61 LINE",
"226 33 OFFCURVE",
"300 8 OFFCURVE",
"371 -7 CURVE SMOOTH",
"435 -22 OFFCURVE",
"508 -29 OFFCURVE",
"584 -29 CURVE SMOOTH"
);
}
);
width = 1233;
}
);
note = "\012\011Scaron\012  ";
unicode = 0160;
},
{
glyphname = Scedilla;
layers = (
{
layerId = "1D6BC6EA-621B-4B6F-A209-F2A632971314";
name = Regular;
paths = (
{
closed = 1;
nodes = (
"930 770 OFFCURVE",
"825 819 OFFCURVE",
"696 848 CURVE SMOOTH",
"590 872 LINE SMOOTH",
"489 895 OFFCURVE",
"426 923 OFFCURVE",
"387 960 CURVE SMOOTH",
"344 1000 OFFCURVE",
"332 1050 OFFCURVE",
"332 1105 CURVE SMOOTH",
"332 1185 OFFCURVE",
"361 1247 OFFCURVE",
"414 1290 CURVE SMOOTH",
"465 1331 OFFCURVE",
"542 1356 OFFCURVE",
"642 1356 CURVE SMOOTH",
"704 1356 OFFCURVE",
"766 1346 OFFCURVE",
"828 1326 CURVE SMOOTH",
"884 1307 OFFCURVE",
"945 1280 OFFCURVE",
"1012 1237 CURVE",
"1012 1442 LINE",
"941 1469 OFFCURVE",
"874 1488 OFFCURVE",
"812 1501 CURVE SMOOTH",
"748 1514 OFFCURVE",
"688 1520 OFFCURVE",
"631 1520 CURVE SMOOTH",
"479 1520 OFFCURVE",
"359 1477 OFFCURVE",
"274 1401 CURVE SMOOTH",
"189 1325 OFFCURVE",
"139 1216 OFFCURVE",
"139 1079 CURVE SMOOTH",
"139 967 OFFCURVE",
"172 887 OFFCURVE",
"233 824 CURVE SMOOTH",
"300 756 OFFCURVE",
"400 713 OFFCURVE",
"535 682 CURVE SMOOTH",
"643 657 LINE SMOOTH",
"736 636 OFFCURVE",
"806 609 OFFCURVE",
"847 566 CURVE SMOOTH",
"883 529 OFFCURVE",
"905 475 OFFCURVE",
"905 399 CURVE SMOOTH",
"905 307 OFFCURVE",
"873 246 OFFCURVE",
"820 203 CURVE SMOOTH",
"763 158 OFFCURVE",
"682 135 OFFCURVE",
"582 135 CURVE SMOOTH",
"515 135 OFFCURVE",
"448 145 OFFCURVE",
"376 169 CURVE SMOOTH",
"307 192 OFFCURVE",
"235 227 OFFCURVE",
"158 276 CURVE",
"158 61 LINE",
"226 33 OFFCURVE",
"300 8 OFFCURVE",
"371 -7 CURVE SMOOTH",
"435 -22 OFFCURVE",
"508 -29 OFFCURVE",
"584 -29 CURVE SMOOTH",
"602 -29 LINE",
"621 -58 OFFCURVE",
"637 -82 OFFCURVE",
"648 -105 CURVE SMOOTH",
"663 -134 OFFCURVE",
"670 -159 OFFCURVE",
"670 -180 CURVE SMOOTH",
"670 -209 OFFCURVE",
"660 -232 OFFCURVE",
"640 -248 CURVE SMOOTH",
"620 -264 OFFCURVE",
"589 -272 OFFCURVE",
"546 -272 CURVE SMOOTH",
"523 -272 OFFCURVE",
"492 -270 OFFCURVE",
"467 -265 CURVE SMOOTH",
"442 -260 OFFCURVE",
"418 -251 OFFCURVE",
"395 -240 CURVE",
"395 -371 LINE",
"423 -379 OFFCURVE",
"452 -385 OFFCURVE",
"483 -389 CURVE SMOOTH",
"512 -393 OFFCURVE",
"541 -395 OFFCURVE",
"570 -395 CURVE SMOOTH",
"653 -395 OFFCURVE",
"710 -379 OFFCURVE",
"749 -350 CURVE SMOOTH",
"789 -319 OFFCURVE",
"809 -272 OFFCURVE",
"809 -219 CURVE SMOOTH",
"809 -179 OFFCURVE",
"798 -146 OFFCURVE",
"783 -115 CURVE SMOOTH",
"770 -88 OFFCURVE",
"746 -55 OFFCURVE",
"717 -20 CURVE",
"820 -4 OFFCURVE",
"904 30 OFFCURVE",
"967 83 CURVE SMOOTH",
"1048 152 OFFCURVE",
"1098 258 OFFCURVE",
"1098 410 CURVE SMOOTH",
"1098 530 OFFCURVE",
"1066 625 OFFCURVE",
"1001 694 CURVE SMOOTH"
);
}
);
width = 1233;
}
);
note = "\012\011Scedilla\012  ";
unicode = 015E;
},
{
glyphname = uni0218;
layers = (
{
layerId = "1D6BC6EA-621B-4B6F-A209-F2A632971314";
name = Regular;
paths = (
{
closed = 1;
nodes = (
"917 -29 OFFCURVE",
"1098 124 OFFCURVE",
"1098 411 CURVE SMOOTH",
"1098 644 OFFCURVE",
"979 784 OFFCURVE",
"696 848 CURVE SMOOTH",
"590 872 LINE SMOOTH",
"395 915 OFFCURVE",
"332 982 OFFCURVE",
"332 1101 CURVE SMOOTH",
"332 1265 OFFCURVE",
"451 1356 OFFCURVE",
"640 1356 CURVE SMOOTH",
"765 1356 OFFCURVE",
"889 1316 OFFCURVE",
"1012 1237 CURVE",
"1012 1442 LINE",
"872 1494 OFFCURVE",
"745 1520 OFFCURVE",
"631 1520 CURVE SMOOTH",
"334 1520 OFFCURVE",
"139 1346 OFFCURVE",
"139 1077 CURVE SMOOTH",
"139 869 OFFCURVE",
"255 746 OFFCURVE",
"535 682 CURVE SMOOTH",
"643 657 LINE SMOOTH",
"839 611 OFFCURVE",
"905 539 OFFCURVE",
"905 405 CURVE SMOOTH",
"905 225 OFFCURVE",
"787 135 OFFCURVE",
"583 135 CURVE SMOOTH",
"442 135 OFFCURVE",
"311 179 OFFCURVE",
"158 276 CURVE",
"158 61 LINE",
"302 1 OFFCURVE",
"439 -29 OFFCURVE",
"586 -29 CURVE SMOOTH"
);
},
{
closed = 1;
nodes = (
"408 -542 LINE",
"554 -542 LINE",
"741 -197 LINE",
"502 -197 LINE"
);
}
);
width = 1233;
}
);
note = "\012\011uni0218\012  ";
unicode = 0218;
},
{
glyphname = T;
layers = (
{
layerId = "1D6BC6EA-621B-4B6F-A209-F2A632971314";
name = Regular;
paths = (
{
closed = 1;
nodes = (
"516 0 LINE",
"719 0 LINE",
"719 1323 LINE",
"1186 1323 LINE",
"1186 1493 LINE",
"47 1493 LINE",
"47 1323 LINE",
"516 1323 LINE"
);
}
);
width = 1233;
}
);
note = "\012\011T\012  ";
unicode = 0054;
},
{
glyphname = Tbar;
layers = (
{
layerId = "1D6BC6EA-621B-4B6F-A209-F2A632971314";
name = Regular;
paths = (
{
closed = 1;
nodes = (
"516 0 LINE",
"719 0 LINE",
"719 577 LINE",
"984 577 LINE",
"984 747 LINE",
"719 747 LINE",
"719 1323 LINE",
"1186 1323 LINE",
"1186 1493 LINE",
"47 1493 LINE",
"47 1323 LINE",
"516 1323 LINE",
"516 747 LINE",
"251 747 LINE",
"251 577 LINE",
"516 577 LINE"
);
}
);
width = 1233;
}
);
note = "\012\011Tbar\012  ";
unicode = 0166;
},
{
glyphname = Tcaron;
layers = (
{
layerId = "1D6BC6EA-621B-4B6F-A209-F2A632971314";
name = Regular;
paths = (
{
closed = 1;
nodes = (
"528 1586 LINE",
"717 1586 LINE",
"928 1852 LINE",
"788 1852 LINE",
"622 1674 LINE",
"457 1852 LINE",
"317 1852 LINE"
);
},
{
closed = 1;
nodes = (
"516 0 LINE",
"719 0 LINE",
"719 1323 LINE",
"1186 1323 LINE",
"1186 1493 LINE",
"47 1493 LINE",
"47 1323 LINE",
"516 1323 LINE"
);
}
);
width = 1233;
}
);
note = "\012\011Tcaron\012  ";
unicode = 0164;
},
{
glyphname = uni021A;
layers = (
{
layerId = "1D6BC6EA-621B-4B6F-A209-F2A632971314";
name = Regular;
paths = (
{
closed = 1;
nodes = (
"719 1323 LINE",
"1186 1323 LINE",
"1186 1493 LINE",
"47 1493 LINE",
"47 1323 LINE",
"516 1323 LINE",
"516 0 LINE",
"582 0 LINE",
"647 -91 OFFCURVE",
"670 -141 OFFCURVE",
"670 -182 CURVE SMOOTH",
"670 -239 OFFCURVE",
"630 -272 OFFCURVE",
"542 -272 CURVE SMOOTH",
"493 -272 OFFCURVE",
"436 -263 OFFCURVE",
"395 -240 CURVE",
"395 -371 LINE",
"454 -387 OFFCURVE",
"512 -395 OFFCURVE",
"569 -395 CURVE SMOOTH",
"729 -395 OFFCURVE",
"809 -333 OFFCURVE",
"809 -220 CURVE SMOOTH",
"809 -147 OFFCURVE",
"776 -84 OFFCURVE",
"700 0 CURVE",
"719 0 LINE"
);
}
);
width = 1233;
}
);
note = "\012\011uni021A\012  ";
unicode = 021A;
},
{
glyphname = U;
layers = (
{
layerId = "1D6BC6EA-621B-4B6F-A209-F2A632971314";
name = Regular;
paths = (
{
closed = 1;
nodes = (
"695 -29 OFFCURVE",
"757 -17 OFFCURVE",
"806 0 CURVE SMOOTH",
"858 19 OFFCURVE",
"915 48 OFFCURVE",
"959 88 CURVE SMOOTH",
"1004 129 OFFCURVE",
"1038 182 OFFCURVE",
"1057 249 CURVE SMOOTH",
"1073 309 OFFCURVE",
"1085 397 OFFCURVE",
"1085 573 CURVE SMOOTH",
"1085 1493 LINE",
"883 1493 LINE",
"883 479 LINE SMOOTH",
"883 407 OFFCURVE",
"881 356 OFFCURVE",
"877 325 CURVE SMOOTH",
"873 293 OFFCURVE",
"867 274 OFFCURVE",
"856 254 CURVE SMOOTH",
"835 215 OFFCURVE",
"804 186 OFFCURVE",
"763 165 CURVE SMOOTH",
"723 145 OFFCURVE",
"674 135 OFFCURVE",
"616 135 CURVE SMOOTH",
"559 135 OFFCURVE",
"510 145 OFFCURVE",
"470 165 CURVE SMOOTH",
"429 185 OFFCURVE",
"398 215 OFFCURVE",
"377 254 CURVE",
"367 271 OFFCURVE",
"360 295 OFFCURVE",
"356 326 CURVE SMOOTH",
"352 357 OFFCURVE",
"350 408 OFFCURVE",
"350 481 CURVE SMOOTH",
"350 1493 LINE",
"147 1493 LINE",
"147 573 LINE SMOOTH",
"147 409 OFFCURVE",
"156 316 OFFCURVE",
"177 249 CURVE SMOOTH",
"200 173 OFFCURVE",
"232 125 OFFCURVE",
"273 88 CURVE SMOOTH",
"316 49 OFFCURVE",
"375 19 OFFCURVE",
"427 0 CURVE SMOOTH",
"483 -19 OFFCURVE",
"544 -29 OFFCURVE",
"616 -29 CURVE SMOOTH"
);
}
);
width = 1233;
}
);
note = "\012\011U\012  ";
unicode = 0055;
},
{
glyphname = Uacute;
layers = (
{
layerId = "1D6BC6EA-621B-4B6F-A209-F2A632971314";
name = Regular;
paths = (
{
closed = 1;
nodes = (
"475 1592 LINE",
"629 1592 LINE",
"858 1856 LINE",
"672 1856 LINE"
);
},
{
closed = 1;
nodes = (
"695 -29 OFFCURVE",
"757 -17 OFFCURVE",
"806 0 CURVE SMOOTH",
"858 19 OFFCURVE",
"915 48 OFFCURVE",
"959 88 CURVE SMOOTH",
"1004 129 OFFCURVE",
"1038 182 OFFCURVE",
"1057 249 CURVE SMOOTH",
"1073 309 OFFCURVE",
"1085 397 OFFCURVE",
"1085 573 CURVE SMOOTH",
"1085 1493 LINE",
"883 1493 LINE",
"883 479 LINE SMOOTH",
"883 407 OFFCURVE",
"881 356 OFFCURVE",
"877 325 CURVE SMOOTH",
"873 293 OFFCURVE",
"867 274 OFFCURVE",
"856 254 CURVE SMOOTH",
"835 215 OFFCURVE",
"804 186 OFFCURVE",
"763 165 CURVE SMOOTH",
"723 145 OFFCURVE",
"674 135 OFFCURVE",
"616 135 CURVE SMOOTH",
"559 135 OFFCURVE",
"510 145 OFFCURVE",
"470 165 CURVE SMOOTH",
"429 185 OFFCURVE",
"398 215 OFFCURVE",
"377 254 CURVE",
"367 271 OFFCURVE",
"360 295 OFFCURVE",
"356 326 CURVE SMOOTH",
"352 357 OFFCURVE",
"350 408 OFFCURVE",
"350 481 CURVE SMOOTH",
"350 1493 LINE",
"147 1493 LINE",
"147 573 LINE SMOOTH",
"147 409 OFFCURVE",
"156 316 OFFCURVE",
"177 249 CURVE SMOOTH",
"200 173 OFFCURVE",
"232 125 OFFCURVE",
"273 88 CURVE SMOOTH",
"316 49 OFFCURVE",
"375 19 OFFCURVE",
"427 0 CURVE SMOOTH",
"483 -19 OFFCURVE",
"544 -29 OFFCURVE",
"616 -29 CURVE SMOOTH"
);
}
);
width = 1233;
}
);
note = "\012\011Uacute\012  ";
unicode = 00DA;
},
{
glyphname = Ucircumflex;
layers = (
{
layerId = "1D6BC6EA-621B-4B6F-A209-F2A632971314";
name = Regular;
paths = (
{
closed = 1;
nodes = (
"311 1586 LINE",
"451 1586 LINE",
"616 1764 LINE",
"782 1586 LINE",
"922 1586 LINE",
"711 1852 LINE",
"522 1852 LINE"
);
},
{
closed = 1;
nodes = (
"695 -29 OFFCURVE",
"757 -17 OFFCURVE",
"806 0 CURVE SMOOTH",
"858 19 OFFCURVE",
"915 48 OFFCURVE",
"959 88 CURVE SMOOTH",
"1004 129 OFFCURVE",
"1038 182 OFFCURVE",
"1057 249 CURVE SMOOTH",
"1073 309 OFFCURVE",
"1085 397 OFFCURVE",
"1085 573 CURVE SMOOTH",
"1085 1493 LINE",
"883 1493 LINE",
"883 479 LINE SMOOTH",
"883 407 OFFCURVE",
"881 356 OFFCURVE",
"877 325 CURVE SMOOTH",
"873 293 OFFCURVE",
"867 274 OFFCURVE",
"856 254 CURVE SMOOTH",
"835 215 OFFCURVE",
"804 186 OFFCURVE",
"763 165 CURVE SMOOTH",
"723 145 OFFCURVE",
"674 135 OFFCURVE",
"616 135 CURVE SMOOTH",
"559 135 OFFCURVE",
"510 145 OFFCURVE",
"470 165 CURVE SMOOTH",
"429 185 OFFCURVE",
"398 215 OFFCURVE",
"377 254 CURVE",
"367 271 OFFCURVE",
"360 295 OFFCURVE",
"356 326 CURVE SMOOTH",
"352 357 OFFCURVE",
"350 408 OFFCURVE",
"350 481 CURVE SMOOTH",
"350 1493 LINE",
"147 1493 LINE",
"147 573 LINE SMOOTH",
"147 409 OFFCURVE",
"156 316 OFFCURVE",
"177 249 CURVE SMOOTH",
"200 173 OFFCURVE",
"232 125 OFFCURVE",
"273 88 CURVE SMOOTH",
"316 49 OFFCURVE",
"375 19 OFFCURVE",
"427 0 CURVE SMOOTH",
"483 -19 OFFCURVE",
"544 -29 OFFCURVE",
"616 -29 CURVE SMOOTH"
);
}
);
width = 1233;
}
);
note = "\012\011Ucircumflex\012  ";
unicode = 00DB;
},
{
glyphname = Udieresis;
layers = (
{
layerId = "1D6BC6EA-621B-4B6F-A209-F2A632971314";
name = Regular;
paths = (
{
closed = 1;
nodes = (
"492 1647 LINE SMOOTH",
"512 1647 OFFCURVE",
"522 1657 OFFCURVE",
"522 1677 CURVE SMOOTH",
"522 1820 LINE SMOOTH",
"522 1840 OFFCURVE",
"512 1850 OFFCURVE",
"492 1850 CURVE SMOOTH",
"349 1850 LINE SMOOTH",
"329 1850 OFFCURVE",
"319 1840 OFFCURVE",
"319 1820 CURVE SMOOTH",
"319 1677 LINE SMOOTH",
"319 1657 OFFCURVE",
"329 1647 OFFCURVE",
"349 1647 CURVE SMOOTH"
);
},
{
closed = 1;
nodes = (
"883 1647 LINE SMOOTH",
"903 1647 OFFCURVE",
"913 1657 OFFCURVE",
"913 1677 CURVE SMOOTH",
"913 1820 LINE SMOOTH",
"913 1840 OFFCURVE",
"903 1850 OFFCURVE",
"883 1850 CURVE SMOOTH",
"741 1850 LINE SMOOTH",
"721 1850 OFFCURVE",
"711 1840 OFFCURVE",
"711 1820 CURVE SMOOTH",
"711 1677 LINE SMOOTH",
"711 1657 OFFCURVE",
"721 1647 OFFCURVE",
"741 1647 CURVE SMOOTH"
);
},
{
closed = 1;
nodes = (
"695 -29 OFFCURVE",
"757 -17 OFFCURVE",
"806 0 CURVE SMOOTH",
"858 19 OFFCURVE",
"915 48 OFFCURVE",
"959 88 CURVE SMOOTH",
"1004 129 OFFCURVE",
"1038 182 OFFCURVE",
"1057 249 CURVE SMOOTH",
"1073 309 OFFCURVE",
"1085 397 OFFCURVE",
"1085 573 CURVE SMOOTH",
"1085 1493 LINE",
"883 1493 LINE",
"883 479 LINE SMOOTH",
"883 407 OFFCURVE",
"881 356 OFFCURVE",
"877 325 CURVE SMOOTH",
"873 293 OFFCURVE",
"867 274 OFFCURVE",
"856 254 CURVE SMOOTH",
"835 215 OFFCURVE",
"804 186 OFFCURVE",
"763 165 CURVE SMOOTH",
"723 145 OFFCURVE",
"674 135 OFFCURVE",
"616 135 CURVE SMOOTH",
"559 135 OFFCURVE",
"510 145 OFFCURVE",
"470 165 CURVE SMOOTH",
"429 185 OFFCURVE",
"398 215 OFFCURVE",
"377 254 CURVE",
"367 271 OFFCURVE",
"360 295 OFFCURVE",
"356 326 CURVE SMOOTH",
"352 357 OFFCURVE",
"350 408 OFFCURVE",
"350 481 CURVE SMOOTH",
"350 1493 LINE",
"147 1493 LINE",
"147 573 LINE SMOOTH",
"147 409 OFFCURVE",
"156 316 OFFCURVE",
"177 249 CURVE SMOOTH",
"200 173 OFFCURVE",
"232 125 OFFCURVE",
"273 88 CURVE SMOOTH",
"316 49 OFFCURVE",
"375 19 OFFCURVE",
"427 0 CURVE SMOOTH",
"483 -19 OFFCURVE",
"544 -29 OFFCURVE",
"616 -29 CURVE SMOOTH"
);
}
);
width = 1233;
}
);
note = "\012\011Udieresis\012  ";
unicode = 00DC;
},
{
glyphname = Ugrave;
layers = (
{
layerId = "1D6BC6EA-621B-4B6F-A209-F2A632971314";
name = Regular;
paths = (
{
closed = 1;
nodes = (
"604 1588 LINE",
"758 1588 LINE",
"561 1852 LINE",
"377 1852 LINE"
);
},
{
closed = 1;
nodes = (
"695 -29 OFFCURVE",
"757 -17 OFFCURVE",
"806 0 CURVE SMOOTH",
"858 19 OFFCURVE",
"915 48 OFFCURVE",
"959 88 CURVE SMOOTH",
"1004 129 OFFCURVE",
"1038 182 OFFCURVE",
"1057 249 CURVE SMOOTH",
"1073 309 OFFCURVE",
"1085 397 OFFCURVE",
"1085 573 CURVE SMOOTH",
"1085 1493 LINE",
"883 1493 LINE",
"883 479 LINE SMOOTH",
"883 407 OFFCURVE",
"881 356 OFFCURVE",
"877 325 CURVE SMOOTH",
"873 293 OFFCURVE",
"867 274 OFFCURVE",
"856 254 CURVE SMOOTH",
"835 215 OFFCURVE",
"804 186 OFFCURVE",
"763 165 CURVE SMOOTH",
"723 145 OFFCURVE",
"674 135 OFFCURVE",
"616 135 CURVE SMOOTH",
"559 135 OFFCURVE",
"510 145 OFFCURVE",
"470 165 CURVE SMOOTH",
"429 185 OFFCURVE",
"398 215 OFFCURVE",
"377 254 CURVE",
"367 271 OFFCURVE",
"360 295 OFFCURVE",
"356 326 CURVE SMOOTH",
"352 357 OFFCURVE",
"350 408 OFFCURVE",
"350 481 CURVE SMOOTH",
"350 1493 LINE",
"147 1493 LINE",
"147 573 LINE SMOOTH",
"147 409 OFFCURVE",
"156 316 OFFCURVE",
"177 249 CURVE SMOOTH",
"200 173 OFFCURVE",
"232 125 OFFCURVE",
"273 88 CURVE SMOOTH",
"316 49 OFFCURVE",
"375 19 OFFCURVE",
"427 0 CURVE SMOOTH",
"483 -19 OFFCURVE",
"544 -29 OFFCURVE",
"616 -29 CURVE SMOOTH"
);
}
);
width = 1233;
}
);
note = "\012\011Ugrave\012  ";
unicode = 00D9;
},
{
glyphname = Uhorn;
layers = (
{
layerId = "1D6BC6EA-621B-4B6F-A209-F2A632971314";
name = Regular;
paths = (
{
closed = 1;
nodes = (
"1071 1561 LINE",
"1091 1520 OFFCURVE",
"1101 1478 OFFCURVE",
"1101 1437 CURVE SMOOTH",
"1101 1365 OFFCURVE",
"1069 1327 OFFCURVE",
"1013 1327 CURVE SMOOTH",
"994 1327 OFFCURVE",
"972 1332 OFFCURVE",
"947 1342 CURVE",
"947 1493 LINE",
"745 1493 LINE",
"745 479 LINE SMOOTH",
"745 407 OFFCURVE",
"743 356 OFFCURVE",
"739 325 CURVE SMOOTH",
"735 294 OFFCURVE",
"727 270 OFFCURVE",
"719 254 CURVE SMOOTH",
"682 178 OFFCURVE",
"591 135 OFFCURVE",
"478 135 CURVE SMOOTH",
"422 135 OFFCURVE",
"371 145 OFFCURVE",
"332 164 CURVE SMOOTH",
"253 201 OFFCURVE",
"226 269 OFFCURVE",
"218 326 CURVE SMOOTH",
"214 357 OFFCURVE",
"212 408 OFFCURVE",
"212 481 CURVE SMOOTH",
"212 1493 LINE",
"9 1493 LINE",
"9 573 LINE SMOOTH",
"9 409 OFFCURVE",
"19 313 OFFCURVE",
"38 250 CURVE SMOOTH",
"57 186 OFFCURVE",
"88 131 OFFCURVE",
"136 87 CURVE SMOOTH",
"216 15 OFFCURVE",
"335 -29 OFFCURVE",
"480 -29 CURVE SMOOTH",
"548 -29 OFFCURVE",
"611 -19 OFFCURVE",
"669 0 CURVE SMOOTH",
"774 35 OFFCURVE",
"876 108 OFFCURVE",
"918 248 CURVE SMOOTH",
"937 316 OFFCURVE",
"947 405 OFFCURVE",
"947 573 CURVE SMOOTH",
"947 1213 LINE",
"983 1194 OFFCURVE",
"1015 1188 OFFCURVE",
"1050 1188 CURVE SMOOTH",
"1169 1188 OFFCURVE",
"1224 1269 OFFCURVE",
"1224 1418 CURVE SMOOTH",
"1224 1467 OFFCURVE",
"1219 1505 OFFCURVE",
"1204 1561 CURVE"
);
}
);
width = 1233;
}
);
note = "\012\011Uhorn\012  ";
unicode = 01AF;
},
{
glyphname = Uhungarumlaut;
layers = (
{
layerId = "1D6BC6EA-621B-4B6F-A209-F2A632971314";
name = Regular;
paths = (
{
closed = 1;
nodes = (
"344 1588 LINE",
"498 1588 LINE",
"727 1852 LINE",
"541 1852 LINE"
);
},
{
closed = 1;
nodes = (
"663 1588 LINE",
"817 1588 LINE",
"1046 1852 LINE",
"860 1852 LINE"
);
},
{
closed = 1;
nodes = (
"686 -29 OFFCURVE",
"749 -19 OFFCURVE",
"807 0 CURVE SMOOTH",
"912 35 OFFCURVE",
"1014 108 OFFCURVE",
"1056 248 CURVE SMOOTH",
"1075 316 OFFCURVE",
"1085 405 OFFCURVE",
"1085 573 CURVE SMOOTH",
"1085 1493 LINE",
"883 1493 LINE",
"883 479 LINE SMOOTH",
"883 407 OFFCURVE",
"881 356 OFFCURVE",
"877 325 CURVE SMOOTH",
"873 294 OFFCURVE",
"865 270 OFFCURVE",
"857 254 CURVE SMOOTH",
"820 178 OFFCURVE",
"729 135 OFFCURVE",
"616 135 CURVE SMOOTH",
"560 135 OFFCURVE",
"509 145 OFFCURVE",
"470 164 CURVE SMOOTH",
"391 201 OFFCURVE",
"364 269 OFFCURVE",
"356 326 CURVE SMOOTH",
"352 357 OFFCURVE",
"350 408 OFFCURVE",
"350 481 CURVE SMOOTH",
"350 1493 LINE",
"147 1493 LINE",
"147 573 LINE SMOOTH",
"147 409 OFFCURVE",
"157 313 OFFCURVE",
"176 250 CURVE SMOOTH",
"195 186 OFFCURVE",
"226 131 OFFCURVE",
"274 87 CURVE SMOOTH",
"354 15 OFFCURVE",
"473 -29 OFFCURVE",
"618 -29 CURVE SMOOTH"
);
}
);
width = 1233;
}
);
note = "\012\011Uhungarumlaut\012  ";
unicode = 0170;
},
{
glyphname = Umacron;
layers = (
{
layerId = "1D6BC6EA-621B-4B6F-A209-F2A632971314";
name = Regular;
paths = (
{
closed = 1;
nodes = (
"317 1652 LINE",
"915 1652 LINE",
"915 1800 LINE",
"317 1800 LINE"
);
},
{
closed = 1;
nodes = (
"686 -29 OFFCURVE",
"749 -19 OFFCURVE",
"807 0 CURVE SMOOTH",
"912 35 OFFCURVE",
"1014 108 OFFCURVE",
"1056 248 CURVE SMOOTH",
"1075 316 OFFCURVE",
"1085 405 OFFCURVE",
"1085 573 CURVE SMOOTH",
"1085 1493 LINE",
"883 1493 LINE",
"883 479 LINE SMOOTH",
"883 407 OFFCURVE",
"881 356 OFFCURVE",
"877 325 CURVE SMOOTH",
"873 294 OFFCURVE",
"865 270 OFFCURVE",
"857 254 CURVE SMOOTH",
"820 178 OFFCURVE",
"729 135 OFFCURVE",
"616 135 CURVE SMOOTH",
"560 135 OFFCURVE",
"509 145 OFFCURVE",
"470 164 CURVE SMOOTH",
"391 201 OFFCURVE",
"364 269 OFFCURVE",
"356 326 CURVE SMOOTH",
"352 357 OFFCURVE",
"350 408 OFFCURVE",
"350 481 CURVE SMOOTH",
"350 1493 LINE",
"147 1493 LINE",
"147 573 LINE SMOOTH",
"147 409 OFFCURVE",
"157 313 OFFCURVE",
"176 250 CURVE SMOOTH",
"195 186 OFFCURVE",
"226 131 OFFCURVE",
"274 87 CURVE SMOOTH",
"354 15 OFFCURVE",
"473 -29 OFFCURVE",
"618 -29 CURVE SMOOTH"
);
}
);
width = 1233;
}
);
note = "\012\011Umacron\012  ";
unicode = 016A;
},
{
glyphname = Uogonek;
layers = (
{
layerId = "1D6BC6EA-621B-4B6F-A209-F2A632971314";
name = Regular;
paths = (
{
closed = 1;
nodes = (
"883 1493 LINE",
"883 479 LINE SMOOTH",
"883 407 OFFCURVE",
"881 356 OFFCURVE",
"877 325 CURVE SMOOTH",
"873 294 OFFCURVE",
"865 270 OFFCURVE",
"857 254 CURVE SMOOTH",
"820 178 OFFCURVE",
"729 135 OFFCURVE",
"616 135 CURVE SMOOTH",
"560 135 OFFCURVE",
"509 145 OFFCURVE",
"470 164 CURVE SMOOTH",
"391 201 OFFCURVE",
"364 269 OFFCURVE",
"356 326 CURVE SMOOTH",
"352 357 OFFCURVE",
"350 408 OFFCURVE",
"350 481 CURVE SMOOTH",
"350 1493 LINE",
"147 1493 LINE",
"147 573 LINE SMOOTH",
"147 409 OFFCURVE",
"157 313 OFFCURVE",
"176 250 CURVE SMOOTH",
"195 186 OFFCURVE",
"226 131 OFFCURVE",
"274 87 CURVE SMOOTH",
"341 27 OFFCURVE",
"433 -14 OFFCURVE",
"548 -25 CURVE",
"471 -112 OFFCURVE",
"448 -174 OFFCURVE",
"448 -237 CURVE SMOOTH",
"448 -356 OFFCURVE",
"529 -411 OFFCURVE",
"678 -411 CURVE SMOOTH",
"727 -411 OFFCURVE",
"765 -406 OFFCURVE",
"821 -391 CURVE",
"821 -258 LINE",
"780 -278 OFFCURVE",
"738 -288 OFFCURVE",
"697 -288 CURVE SMOOTH",
"625 -288 OFFCURVE",
"587 -256 OFFCURVE",
"587 -200 CURVE SMOOTH",
"587 -157 OFFCURVE",
"608 -108 OFFCURVE",
"667 -27 CURVE",
"718 -24 OFFCURVE",
"764 -15 OFFCURVE",
"807 0 CURVE SMOOTH",
"912 35 OFFCURVE",
"1014 108 OFFCURVE",
"1056 248 CURVE SMOOTH",
"1075 316 OFFCURVE",
"1085 405 OFFCURVE",
"1085 573 CURVE SMOOTH",
"1085 1493 LINE"
);
}
);
width = 1233;
}
);
note = "\012\011Uogonek\012  ";
unicode = 0172;
},
{
glyphname = Uring;
layers = (
{
layerId = "1D6BC6EA-621B-4B6F-A209-F2A632971314";
name = Regular;
paths = (
{
closed = 1;
nodes = (
"782 1352 OFFCURVE",
"901 1474 OFFCURVE",
"901 1627 CURVE SMOOTH",
"901 1779 OFFCURVE",
"782 1901 OFFCURVE",
"627 1901 CURVE SMOOTH",
"473 1901 OFFCURVE",
"352 1779 OFFCURVE",
"352 1627 CURVE SMOOTH",
"352 1474 OFFCURVE",
"473 1352 OFFCURVE",
"627 1352 CURVE SMOOTH"
);
},
{
closed = 1;
nodes = (
"541 1475 OFFCURVE",
"475 1541 OFFCURVE",
"475 1627 CURVE SMOOTH",
"475 1712 OFFCURVE",
"541 1778 OFFCURVE",
"626 1778 CURVE SMOOTH",
"710 1778 OFFCURVE",
"778 1711 OFFCURVE",
"778 1627 CURVE SMOOTH",
"778 1543 OFFCURVE",
"710 1475 OFFCURVE",
"626 1475 CURVE SMOOTH"
);
},
{
closed = 1;
nodes = (
"686 -29 OFFCURVE",
"749 -19 OFFCURVE",
"807 0 CURVE SMOOTH",
"912 35 OFFCURVE",
"1014 108 OFFCURVE",
"1056 248 CURVE SMOOTH",
"1075 316 OFFCURVE",
"1085 405 OFFCURVE",
"1085 573 CURVE SMOOTH",
"1085 1493 LINE",
"883 1493 LINE",
"883 479 LINE SMOOTH",
"883 407 OFFCURVE",
"881 356 OFFCURVE",
"877 325 CURVE SMOOTH",
"873 294 OFFCURVE",
"865 270 OFFCURVE",
"857 254 CURVE SMOOTH",
"820 178 OFFCURVE",
"729 135 OFFCURVE",
"616 135 CURVE SMOOTH",
"560 135 OFFCURVE",
"509 145 OFFCURVE",
"470 164 CURVE SMOOTH",
"391 201 OFFCURVE",
"364 269 OFFCURVE",
"356 326 CURVE SMOOTH",
"352 357 OFFCURVE",
"350 408 OFFCURVE",
"350 481 CURVE SMOOTH",
"350 1493 LINE",
"147 1493 LINE",
"147 573 LINE SMOOTH",
"147 409 OFFCURVE",
"157 313 OFFCURVE",
"176 250 CURVE SMOOTH",
"195 186 OFFCURVE",
"226 131 OFFCURVE",
"274 87 CURVE SMOOTH",
"354 15 OFFCURVE",
"473 -29 OFFCURVE",
"618 -29 CURVE SMOOTH"
);
}
);
width = 1233;
}
);
note = "\012\011Uring\012  ";
unicode = 016E;
},
{
glyphname = Utilde;
layers = (
{
layerId = "1D6BC6EA-621B-4B6F-A209-F2A632971314";
name = Regular;
paths = (
{
closed = 1;
nodes = (
"412 1633 LINE",
"412 1639 LINE SMOOTH",
"412 1699 OFFCURVE",
"441 1734 OFFCURVE",
"486 1734 CURVE SMOOTH",
"505 1734 OFFCURVE",
"522 1728 OFFCURVE",
"555 1709 CURVE SMOOTH",
"612 1676 LINE",
"673 1644 OFFCURVE",
"710 1633 OFFCURVE",
"753 1633 CURVE SMOOTH",
"877 1633 OFFCURVE",
"941 1721 OFFCURVE",
"946 1852 CURVE",
"821 1852 LINE",
"821 1846 LINE SMOOTH",
"821 1790 OFFCURVE",
"791 1754 OFFCURVE",
"750 1754 CURVE SMOOTH",
"731 1754 OFFCURVE",
"707 1762 OFFCURVE",
"678 1779 CURVE",
"621 1809 LINE SMOOTH",
"570 1836 OFFCURVE",
"535 1852 OFFCURVE",
"482 1852 CURVE SMOOTH",
"357 1852 OFFCURVE",
"287 1769 OFFCURVE",
"287 1633 CURVE"
);
},
{
closed = 1;
nodes = (
"686 -29 OFFCURVE",
"749 -19 OFFCURVE",
"807 0 CURVE SMOOTH",
"912 35 OFFCURVE",
"1014 108 OFFCURVE",
"1056 248 CURVE SMOOTH",
"1075 316 OFFCURVE",
"1085 405 OFFCURVE",
"1085 573 CURVE SMOOTH",
"1085 1493 LINE",
"883 1493 LINE",
"883 479 LINE SMOOTH",
"883 407 OFFCURVE",
"881 356 OFFCURVE",
"877 325 CURVE SMOOTH",
"873 294 OFFCURVE",
"865 270 OFFCURVE",
"857 254 CURVE SMOOTH",
"820 178 OFFCURVE",
"729 135 OFFCURVE",
"616 135 CURVE SMOOTH",
"560 135 OFFCURVE",
"509 145 OFFCURVE",
"470 164 CURVE SMOOTH",
"391 201 OFFCURVE",
"364 269 OFFCURVE",
"356 326 CURVE SMOOTH",
"352 357 OFFCURVE",
"350 408 OFFCURVE",
"350 481 CURVE SMOOTH",
"350 1493 LINE",
"147 1493 LINE",
"147 573 LINE SMOOTH",
"147 409 OFFCURVE",
"157 313 OFFCURVE",
"176 250 CURVE SMOOTH",
"195 186 OFFCURVE",
"226 131 OFFCURVE",
"274 87 CURVE SMOOTH",
"354 15 OFFCURVE",
"473 -29 OFFCURVE",
"618 -29 CURVE SMOOTH"
);
}
);
width = 1233;
}
);
note = "\012\011Utilde\012  ";
unicode = 0168;
},
{
glyphname = V;
layers = (
{
layerId = "1D6BC6EA-621B-4B6F-A209-F2A632971314";
name = Regular;
paths = (
{
closed = 1;
nodes = (
"494 0 LINE",
"739 0 LINE",
"1176 1493 LINE",
"967 1493 LINE",
"616 170 LINE",
"266 1493 LINE",
"57 1493 LINE"
);
}
);
width = 1233;
}
);
note = "\012\011V\012  ";
unicode = 0056;
},
{
glyphname = W;
layers = (
{
layerId = "1D6BC6EA-621B-4B6F-A209-F2A632971314";
name = Regular;
paths = (
{
closed = 1;
nodes = (
"223 0 LINE",
"414 0 LINE",
"616 887 LINE",
"819 0 LINE",
"1010 0 LINE",
"1233 1493 LINE",
"1036 1493 LINE",
"893 279 LINE",
"721 1083 LINE",
"510 1083 LINE",
"340 281 LINE",
"197 1493 LINE",
"0 1493 LINE"
);
}
);
width = 1233;
}
);
note = "\012\011W\012  ";
unicode = 0057;
},
{
glyphname = Wacute;
layers = (
{
layerId = "1D6BC6EA-621B-4B6F-A209-F2A632971314";
name = Regular;
paths = (
{
closed = 1;
nodes = (
"475 1592 LINE",
"629 1592 LINE",
"858 1856 LINE",
"672 1856 LINE"
);
},
{
closed = 1;
nodes = (
"223 0 LINE",
"414 0 LINE",
"616 887 LINE",
"819 0 LINE",
"1010 0 LINE",
"1233 1493 LINE",
"1036 1493 LINE",
"893 279 LINE",
"721 1083 LINE",
"510 1083 LINE",
"340 281 LINE",
"197 1493 LINE",
"0 1493 LINE"
);
}
);
width = 1233;
}
);
note = "\012\011Wacute\012  ";
unicode = 1E82;
},
{
glyphname = Wcircumflex;
layers = (
{
layerId = "1D6BC6EA-621B-4B6F-A209-F2A632971314";
name = Regular;
paths = (
{
closed = 1;
nodes = (
"311 1586 LINE",
"451 1586 LINE",
"616 1764 LINE",
"782 1586 LINE",
"922 1586 LINE",
"711 1852 LINE",
"522 1852 LINE"
);
},
{
closed = 1;
nodes = (
"223 0 LINE",
"414 0 LINE",
"616 887 LINE",
"819 0 LINE",
"1010 0 LINE",
"1233 1493 LINE",
"1036 1493 LINE",
"893 279 LINE",
"721 1083 LINE",
"510 1083 LINE",
"340 281 LINE",
"197 1493 LINE",
"0 1493 LINE"
);
}
);
width = 1233;
}
);
note = "\012\011Wcircumflex\012  ";
unicode = 0174;
},
{
glyphname = Wdieresis;
layers = (
{
layerId = "1D6BC6EA-621B-4B6F-A209-F2A632971314";
name = Regular;
paths = (
{
closed = 1;
nodes = (
"491 1650 LINE SMOOTH",
"508 1650 OFFCURVE",
"522 1664 OFFCURVE",
"522 1681 CURVE SMOOTH",
"522 1821 LINE SMOOTH",
"522 1838 OFFCURVE",
"508 1852 OFFCURVE",
"491 1852 CURVE SMOOTH",
"350 1852 LINE SMOOTH",
"333 1852 OFFCURVE",
"319 1838 OFFCURVE",
"319 1821 CURVE SMOOTH",
"319 1681 LINE SMOOTH",
"319 1664 OFFCURVE",
"333 1650 OFFCURVE",
"350 1650 CURVE SMOOTH"
);
},
{
closed = 1;
nodes = (
"882 1650 LINE SMOOTH",
"899 1650 OFFCURVE",
"913 1664 OFFCURVE",
"913 1681 CURVE SMOOTH",
"913 1821 LINE SMOOTH",
"913 1838 OFFCURVE",
"899 1852 OFFCURVE",
"882 1852 CURVE SMOOTH",
"742 1852 LINE SMOOTH",
"725 1852 OFFCURVE",
"711 1838 OFFCURVE",
"711 1821 CURVE SMOOTH",
"711 1681 LINE SMOOTH",
"711 1664 OFFCURVE",
"725 1650 OFFCURVE",
"742 1650 CURVE SMOOTH"
);
},
{
closed = 1;
nodes = (
"223 0 LINE",
"414 0 LINE",
"616 887 LINE",
"819 0 LINE",
"1010 0 LINE",
"1233 1493 LINE",
"1036 1493 LINE",
"893 279 LINE",
"721 1083 LINE",
"510 1083 LINE",
"340 281 LINE",
"197 1493 LINE",
"0 1493 LINE"
);
}
);
width = 1233;
}
);
note = "\012\011Wdieresis\012  ";
unicode = 1E84;
},
{
glyphname = Wgrave;
layers = (
{
layerId = "1D6BC6EA-621B-4B6F-A209-F2A632971314";
name = Regular;
paths = (
{
closed = 1;
nodes = (
"604 1588 LINE",
"758 1588 LINE",
"561 1852 LINE",
"377 1852 LINE"
);
},
{
closed = 1;
nodes = (
"223 0 LINE",
"414 0 LINE",
"616 887 LINE",
"819 0 LINE",
"1010 0 LINE",
"1233 1493 LINE",
"1036 1493 LINE",
"893 279 LINE",
"721 1083 LINE",
"510 1083 LINE",
"340 281 LINE",
"197 1493 LINE",
"0 1493 LINE"
);
}
);
width = 1233;
}
);
note = "\012\011Wgrave\012  ";
unicode = 1E80;
},
{
glyphname = X;
layers = (
{
layerId = "1D6BC6EA-621B-4B6F-A209-F2A632971314";
name = Regular;
paths = (
{
closed = 1;
nodes = (
"18 0 LINE",
"236 0 LINE",
"631 643 LINE",
"997 0 LINE",
"1214 0 LINE",
"735 791 LINE",
"1182 1493 LINE",
"965 1493 LINE",
"631 930 LINE",
"303 1493 LINE",
"86 1493 LINE",
"518 791 LINE"
);
}
);
width = 1233;
}
);
note = "\012\011X\012  ";
unicode = 0058;
},
{
glyphname = Y;
layers = (
{
layerId = "1D6BC6EA-621B-4B6F-A209-F2A632971314";
name = Regular;
paths = (
{
closed = 1;
nodes = (
"514 0 LINE",
"717 0 LINE",
"717 670 LINE",
"1196 1493 LINE",
"979 1493 LINE",
"616 834 LINE",
"252 1493 LINE",
"37 1493 LINE",
"514 670 LINE"
);
}
);
width = 1233;
}
);
note = "\012\011Y\012  ";
unicode = 0059;
},
{
glyphname = Yacute;
layers = (
{
layerId = "1D6BC6EA-621B-4B6F-A209-F2A632971314";
name = Regular;
paths = (
{
closed = 1;
nodes = (
"475 1588 LINE",
"629 1588 LINE",
"858 1852 LINE",
"672 1852 LINE"
);
},
{
closed = 1;
nodes = (
"514 0 LINE",
"717 0 LINE",
"717 670 LINE",
"1196 1493 LINE",
"979 1493 LINE",
"616 834 LINE",
"252 1493 LINE",
"37 1493 LINE",
"514 670 LINE"
);
}
);
width = 1233;
}
);
note = "\012\011Yacute\012  ";
unicode = 00DD;
},
{
glyphname = Ycircumflex;
layers = (
{
layerId = "1D6BC6EA-621B-4B6F-A209-F2A632971314";
name = Regular;
paths = (
{
closed = 1;
nodes = (
"311 1586 LINE",
"451 1586 LINE",
"616 1764 LINE",
"782 1586 LINE",
"922 1586 LINE",
"711 1852 LINE",
"522 1852 LINE"
);
},
{
closed = 1;
nodes = (
"514 0 LINE",
"717 0 LINE",
"717 670 LINE",
"1196 1493 LINE",
"979 1493 LINE",
"616 834 LINE",
"252 1493 LINE",
"37 1493 LINE",
"514 670 LINE"
);
}
);
width = 1233;
}
);
note = "\012\011Ycircumflex\012  ";
unicode = 0176;
},
{
glyphname = Ydieresis;
layers = (
{
layerId = "1D6BC6EA-621B-4B6F-A209-F2A632971314";
name = Regular;
paths = (
{
closed = 1;
nodes = (
"492 1649 LINE SMOOTH",
"512 1649 OFFCURVE",
"522 1659 OFFCURVE",
"522 1679 CURVE SMOOTH",
"522 1822 LINE SMOOTH",
"522 1842 OFFCURVE",
"512 1852 OFFCURVE",
"492 1852 CURVE SMOOTH",
"349 1852 LINE SMOOTH",
"329 1852 OFFCURVE",
"319 1842 OFFCURVE",
"319 1822 CURVE SMOOTH",
"319 1679 LINE SMOOTH",
"319 1659 OFFCURVE",
"329 1649 OFFCURVE",
"349 1649 CURVE SMOOTH"
);
},
{
closed = 1;
nodes = (
"883 1649 LINE SMOOTH",
"903 1649 OFFCURVE",
"913 1659 OFFCURVE",
"913 1679 CURVE SMOOTH",
"913 1822 LINE SMOOTH",
"913 1842 OFFCURVE",
"903 1852 OFFCURVE",
"883 1852 CURVE SMOOTH",
"741 1852 LINE SMOOTH",
"721 1852 OFFCURVE",
"711 1842 OFFCURVE",
"711 1822 CURVE SMOOTH",
"711 1679 LINE SMOOTH",
"711 1659 OFFCURVE",
"721 1649 OFFCURVE",
"741 1649 CURVE SMOOTH"
);
},
{
closed = 1;
nodes = (
"514 0 LINE",
"717 0 LINE",
"717 670 LINE",
"1196 1493 LINE",
"979 1493 LINE",
"616 834 LINE",
"252 1493 LINE",
"37 1493 LINE",
"514 670 LINE"
);
}
);
width = 1233;
}
);
note = "\012\011Ydieresis\012  ";
unicode = 0178;
},
{
glyphname = Ygrave;
layers = (
{
layerId = "1D6BC6EA-621B-4B6F-A209-F2A632971314";
name = Regular;
paths = (
{
closed = 1;
nodes = (
"604 1588 LINE",
"758 1588 LINE",
"561 1852 LINE",
"377 1852 LINE"
);
},
{
closed = 1;
nodes = (
"514 0 LINE",
"717 0 LINE",
"717 670 LINE",
"1196 1493 LINE",
"979 1493 LINE",
"616 834 LINE",
"252 1493 LINE",
"37 1493 LINE",
"514 670 LINE"
);
}
);
width = 1233;
}
);
note = "\012\011Ygrave\012  ";
unicode = 1EF2;
},
{
glyphname = Z;
layers = (
{
layerId = "1D6BC6EA-621B-4B6F-A209-F2A632971314";
name = Regular;
paths = (
{
closed = 1;
nodes = (
"110 0 LINE",
"1123 0 LINE",
"1123 170 LINE",
"321 170 LINE",
"1101 1339 LINE",
"1101 1493 LINE",
"132 1493 LINE",
"132 1323 LINE",
"869 1323 LINE",
"110 154 LINE"
);
}
);
width = 1233;
}
);
note = "\012\011Z\012  ";
unicode = 005A;
},
{
glyphname = Zacute;
layers = (
{
layerId = "1D6BC6EA-621B-4B6F-A209-F2A632971314";
name = Regular;
paths = (
{
closed = 1;
nodes = (
"456 1588 LINE",
"610 1588 LINE",
"839 1852 LINE",
"653 1852 LINE"
);
},
{
closed = 1;
nodes = (
"110 0 LINE",
"1123 0 LINE",
"1123 170 LINE",
"321 170 LINE",
"1101 1339 LINE",
"1101 1493 LINE",
"132 1493 LINE",
"132 1323 LINE",
"869 1323 LINE",
"110 154 LINE"
);
}
);
width = 1233;
}
);
note = "\012\011Zacute\012  ";
unicode = 0179;
},
{
glyphname = Zcaron;
layers = (
{
layerId = "1D6BC6EA-621B-4B6F-A209-F2A632971314";
name = Regular;
paths = (
{
closed = 1;
nodes = (
"476 1586 LINE",
"665 1586 LINE",
"876 1852 LINE",
"736 1852 LINE",
"570 1674 LINE",
"405 1852 LINE",
"265 1852 LINE"
);
},
{
closed = 1;
nodes = (
"110 0 LINE",
"1123 0 LINE",
"1123 170 LINE",
"321 170 LINE",
"1101 1339 LINE",
"1101 1493 LINE",
"132 1493 LINE",
"132 1323 LINE",
"869 1323 LINE",
"110 154 LINE"
);
}
);
width = 1233;
}
);
note = "\012\011Zcaron\012  ";
unicode = 017D;
},
{
glyphname = Zdotaccent;
layers = (
{
layerId = "1D6BC6EA-621B-4B6F-A209-F2A632971314";
name = Regular;
paths = (
{
closed = 1;
nodes = (
"692 1647 LINE SMOOTH",
"712 1647 OFFCURVE",
"722 1657 OFFCURVE",
"722 1677 CURVE SMOOTH",
"722 1822 LINE SMOOTH",
"722 1842 OFFCURVE",
"712 1852 OFFCURVE",
"692 1852 CURVE SMOOTH",
"547 1852 LINE SMOOTH",
"527 1852 OFFCURVE",
"517 1842 OFFCURVE",
"517 1822 CURVE SMOOTH",
"517 1677 LINE SMOOTH",
"517 1657 OFFCURVE",
"527 1647 OFFCURVE",
"547 1647 CURVE SMOOTH"
);
},
{
closed = 1;
nodes = (
"110 0 LINE",
"1123 0 LINE",
"1123 170 LINE",
"321 170 LINE",
"1101 1339 LINE",
"1101 1493 LINE",
"132 1493 LINE",
"132 1323 LINE",
"869 1323 LINE",
"110 154 LINE"
);
}
);
width = 1233;
}
);
note = "\012\011Zdotaccent\012  ";
unicode = 017B;
},
{
glyphname = a;
layers = (
{
layerId = "1D6BC6EA-621B-4B6F-A209-F2A632971314";
name = Regular;
paths = (
{
closed = 1;
nodes = (
"594 -29 OFFCURVE",
"665 -14 OFFCURVE",
"729 19 CURVE SMOOTH",
"788 50 OFFCURVE",
"854 103 OFFCURVE",
"893 170 CURVE",
"896 149 OFFCURVE",
"902 116 OFFCURVE",
"909 87 CURVE SMOOTH",
"918 50 OFFCURVE",
"929 16 OFFCURVE",
"936 0 CURVE",
"1121 0 LINE",
"1118 7 OFFCURVE",
"1103 50 OFFCURVE",
"1094 91 CURVE",
"1087 116 OFFCURVE",
"1078 170 OFFCURVE",
"1071 226 CURVE SMOOTH",
"1064 277 OFFCURVE",
"1065 333 OFFCURVE",
"1062 410 CURVE",
"1062 639 LINE SMOOTH",
"1062 738 OFFCURVE",
"1057 811 OFFCURVE",
"1046 860 CURVE SMOOTH",
"1037 901 OFFCURVE",
"1020 945 OFFCURVE",
"992 984 CURVE SMOOTH",
"953 1037 OFFCURVE",
"895 1078 OFFCURVE",
"834 1105 CURVE SMOOTH",
"767 1133 OFFCURVE",
"692 1147 OFFCURVE",
"597 1147 CURVE SMOOTH",
"536 1147 OFFCURVE",
"475 1141 OFFCURVE",
"414 1128 CURVE SMOOTH",
"345 1113 OFFCURVE",
"274 1090 OFFCURVE",
"218 1069 CURVE",
"218 885 LINE",
"278 920 OFFCURVE",
"340 946 OFFCURVE",
"405 964 CURVE SMOOTH",
"469 982 OFFCURVE",
"533 991 OFFCURVE",
"596 991 CURVE SMOOTH",
"692 991 OFFCURVE",
"765 971 OFFCURVE",
"809 931 CURVE SMOOTH",
"854 890 OFFCURVE",
"877 821 OFFCURVE",
"877 736 CURVE SMOOTH",
"877 707 LINE",
"630 707 LINE SMOOTH",
"467 707 OFFCURVE",
"345 675 OFFCURVE",
"262 610 CURVE SMOOTH",
"178 545 OFFCURVE",
"136 450 OFFCURVE",
"136 327 CURVE SMOOTH",
"136 210 OFFCURVE",
"174 129 OFFCURVE",
"238 68 CURVE SMOOTH",
"305 3 OFFCURVE",
"397 -29 OFFCURVE",
"513 -29 CURVE SMOOTH"
);
},
{
closed = 1;
nodes = (
"474 125 OFFCURVE",
"420 146 OFFCURVE",
"381 181 CURVE SMOOTH",
"342 217 OFFCURVE",
"320 268 OFFCURVE",
"320 337 CURVE SMOOTH",
"320 412 OFFCURVE",
"345 468 OFFCURVE",
"402 507 CURVE SMOOTH",
"457 544 OFFCURVE",
"537 563 OFFCURVE",
"644 563 CURVE SMOOTH",
"877 563 LINE",
"877 522 LINE SMOOTH",
"877 400 OFFCURVE",
"848 303 OFFCURVE",
"789 231 CURVE SMOOTH",
"731 160 OFFCURVE",
"652 125 OFFCURVE",
"551 125 CURVE SMOOTH"
);
}
);
width = 1233;
}
);
note = "\012\011a\012  ";
unicode = 0061;
},
{
glyphname = aacute;
layers = (
{
layerId = "1D6BC6EA-621B-4B6F-A209-F2A632971314";
name = Regular;
paths = (
{
closed = 1;
nodes = (
"478 1297 LINE",
"632 1297 LINE",
"957 1673 LINE",
"759 1673 LINE"
);
},
{
closed = 1;
nodes = (
"594 -29 OFFCURVE",
"665 -14 OFFCURVE",
"729 19 CURVE SMOOTH",
"788 50 OFFCURVE",
"854 103 OFFCURVE",
"893 170 CURVE",
"896 149 OFFCURVE",
"902 116 OFFCURVE",
"909 87 CURVE SMOOTH",
"918 50 OFFCURVE",
"929 16 OFFCURVE",
"936 0 CURVE",
"1121 0 LINE",
"1118 7 OFFCURVE",
"1103 50 OFFCURVE",
"1094 91 CURVE",
"1087 116 OFFCURVE",
"1078 170 OFFCURVE",
"1071 226 CURVE SMOOTH",
"1064 277 OFFCURVE",
"1065 333 OFFCURVE",
"1062 410 CURVE",
"1062 639 LINE SMOOTH",
"1062 738 OFFCURVE",
"1057 811 OFFCURVE",
"1046 860 CURVE SMOOTH",
"1037 901 OFFCURVE",
"1020 945 OFFCURVE",
"992 984 CURVE SMOOTH",
"953 1037 OFFCURVE",
"895 1078 OFFCURVE",
"834 1105 CURVE SMOOTH",
"767 1133 OFFCURVE",
"692 1147 OFFCURVE",
"597 1147 CURVE SMOOTH",
"536 1147 OFFCURVE",
"475 1141 OFFCURVE",
"414 1128 CURVE SMOOTH",
"345 1113 OFFCURVE",
"274 1090 OFFCURVE",
"218 1069 CURVE",
"218 885 LINE",
"278 920 OFFCURVE",
"340 946 OFFCURVE",
"405 964 CURVE SMOOTH",
"469 982 OFFCURVE",
"533 991 OFFCURVE",
"596 991 CURVE SMOOTH",
"692 991 OFFCURVE",
"765 971 OFFCURVE",
"809 931 CURVE SMOOTH",
"854 890 OFFCURVE",
"877 821 OFFCURVE",
"877 736 CURVE SMOOTH",
"877 707 LINE",
"630 707 LINE SMOOTH",
"467 707 OFFCURVE",
"345 675 OFFCURVE",
"262 610 CURVE SMOOTH",
"178 545 OFFCURVE",
"136 450 OFFCURVE",
"136 327 CURVE SMOOTH",
"136 210 OFFCURVE",
"174 129 OFFCURVE",
"238 68 CURVE SMOOTH",
"305 3 OFFCURVE",
"397 -29 OFFCURVE",
"513 -29 CURVE SMOOTH"
);
},
{
closed = 1;
nodes = (
"474 125 OFFCURVE",
"420 146 OFFCURVE",
"381 181 CURVE SMOOTH",
"342 217 OFFCURVE",
"320 268 OFFCURVE",
"320 337 CURVE SMOOTH",
"320 412 OFFCURVE",
"345 468 OFFCURVE",
"402 507 CURVE SMOOTH",
"457 544 OFFCURVE",
"537 563 OFFCURVE",
"644 563 CURVE SMOOTH",
"877 563 LINE",
"877 522 LINE SMOOTH",
"877 400 OFFCURVE",
"848 303 OFFCURVE",
"789 231 CURVE SMOOTH",
"731 160 OFFCURVE",
"652 125 OFFCURVE",
"551 125 CURVE SMOOTH"
);
}
);
width = 1233;
}
);
note = "\012\011aacute\012  ";
unicode = 00E1;
},
{
glyphname = abreve;
layers = (
{
layerId = "1D6BC6EA-621B-4B6F-A209-F2A632971314";
name = Regular;
paths = (
{
closed = 1;
nodes = (
"813 1296 OFFCURVE",
"918 1392 OFFCURVE",
"933 1583 CURVE",
"814 1583 LINE",
"795 1482 OFFCURVE",
"733 1433 OFFCURVE",
"618 1433 CURVE SMOOTH",
"497 1433 OFFCURVE",
"440 1487 OFFCURVE",
"425 1583 CURVE",
"306 1583 LINE",
"321 1392 OFFCURVE",
"426 1296 OFFCURVE",
"619 1296 CURVE SMOOTH"
);
},
{
closed = 1;
nodes = (
"594 -29 OFFCURVE",
"665 -14 OFFCURVE",
"729 19 CURVE SMOOTH",
"788 50 OFFCURVE",
"854 103 OFFCURVE",
"893 170 CURVE",
"896 149 OFFCURVE",
"902 116 OFFCURVE",
"909 87 CURVE SMOOTH",
"918 50 OFFCURVE",
"929 16 OFFCURVE",
"936 0 CURVE",
"1121 0 LINE",
"1118 7 OFFCURVE",
"1103 50 OFFCURVE",
"1094 91 CURVE",
"1087 116 OFFCURVE",
"1078 170 OFFCURVE",
"1071 226 CURVE SMOOTH",
"1064 277 OFFCURVE",
"1065 333 OFFCURVE",
"1062 410 CURVE",
"1062 639 LINE SMOOTH",
"1062 738 OFFCURVE",
"1057 811 OFFCURVE",
"1046 860 CURVE SMOOTH",
"1037 901 OFFCURVE",
"1020 945 OFFCURVE",
"992 984 CURVE SMOOTH",
"953 1037 OFFCURVE",
"895 1078 OFFCURVE",
"834 1105 CURVE SMOOTH",
"767 1133 OFFCURVE",
"692 1147 OFFCURVE",
"597 1147 CURVE SMOOTH",
"536 1147 OFFCURVE",
"475 1141 OFFCURVE",
"414 1128 CURVE SMOOTH",
"345 1113 OFFCURVE",
"274 1090 OFFCURVE",
"218 1069 CURVE",
"218 885 LINE",
"278 920 OFFCURVE",
"340 946 OFFCURVE",
"405 964 CURVE SMOOTH",
"469 982 OFFCURVE",
"533 991 OFFCURVE",
"596 991 CURVE SMOOTH",
"692 991 OFFCURVE",
"765 971 OFFCURVE",
"809 931 CURVE SMOOTH",
"854 890 OFFCURVE",
"877 821 OFFCURVE",
"877 736 CURVE SMOOTH",
"877 707 LINE",
"630 707 LINE SMOOTH",
"467 707 OFFCURVE",
"345 675 OFFCURVE",
"262 610 CURVE SMOOTH",
"178 545 OFFCURVE",
"136 450 OFFCURVE",
"136 327 CURVE SMOOTH",
"136 210 OFFCURVE",
"174 129 OFFCURVE",
"238 68 CURVE SMOOTH",
"305 3 OFFCURVE",
"397 -29 OFFCURVE",
"513 -29 CURVE SMOOTH"
);
},
{
closed = 1;
nodes = (
"474 125 OFFCURVE",
"420 146 OFFCURVE",
"381 181 CURVE SMOOTH",
"342 217 OFFCURVE",
"320 268 OFFCURVE",
"320 337 CURVE SMOOTH",
"320 412 OFFCURVE",
"345 468 OFFCURVE",
"402 507 CURVE SMOOTH",
"457 544 OFFCURVE",
"537 563 OFFCURVE",
"644 563 CURVE SMOOTH",
"877 563 LINE",
"877 522 LINE SMOOTH",
"877 400 OFFCURVE",
"848 303 OFFCURVE",
"789 231 CURVE SMOOTH",
"731 160 OFFCURVE",
"652 125 OFFCURVE",
"551 125 CURVE SMOOTH"
);
}
);
width = 1233;
}
);
note = "\012\011abreve\012  ";
unicode = 0103;
},
{
glyphname = acircumflex;
layers = (
{
layerId = "1D6BC6EA-621B-4B6F-A209-F2A632971314";
name = Regular;
paths = (
{
closed = 1;
nodes = (
"300 1297 LINE",
"439 1297 LINE",
"619 1542 LINE",
"800 1297 LINE",
"939 1297 LINE",
"693 1673 LINE",
"546 1673 LINE"
);
},
{
closed = 1;
nodes = (
"594 -29 OFFCURVE",
"665 -14 OFFCURVE",
"729 19 CURVE SMOOTH",
"788 50 OFFCURVE",
"854 103 OFFCURVE",
"893 170 CURVE",
"896 149 OFFCURVE",
"902 116 OFFCURVE",
"909 87 CURVE SMOOTH",
"918 50 OFFCURVE",
"929 16 OFFCURVE",
"936 0 CURVE",
"1121 0 LINE",
"1118 7 OFFCURVE",
"1103 50 OFFCURVE",
"1094 91 CURVE",
"1087 116 OFFCURVE",
"1078 170 OFFCURVE",
"1071 226 CURVE SMOOTH",
"1064 277 OFFCURVE",
"1065 333 OFFCURVE",
"1062 410 CURVE",
"1062 639 LINE SMOOTH",
"1062 738 OFFCURVE",
"1057 811 OFFCURVE",
"1046 860 CURVE SMOOTH",
"1037 901 OFFCURVE",
"1020 945 OFFCURVE",
"992 984 CURVE SMOOTH",
"953 1037 OFFCURVE",
"895 1078 OFFCURVE",
"834 1105 CURVE SMOOTH",
"767 1133 OFFCURVE",
"692 1147 OFFCURVE",
"597 1147 CURVE SMOOTH",
"536 1147 OFFCURVE",
"475 1141 OFFCURVE",
"414 1128 CURVE SMOOTH",
"345 1113 OFFCURVE",
"274 1090 OFFCURVE",
"218 1069 CURVE",
"218 885 LINE",
"278 920 OFFCURVE",
"340 946 OFFCURVE",
"405 964 CURVE SMOOTH",
"469 982 OFFCURVE",
"533 991 OFFCURVE",
"596 991 CURVE SMOOTH",
"692 991 OFFCURVE",
"765 971 OFFCURVE",
"809 931 CURVE SMOOTH",
"854 890 OFFCURVE",
"877 821 OFFCURVE",
"877 736 CURVE SMOOTH",
"877 707 LINE",
"630 707 LINE SMOOTH",
"467 707 OFFCURVE",
"345 675 OFFCURVE",
"262 610 CURVE SMOOTH",
"178 545 OFFCURVE",
"136 450 OFFCURVE",
"136 327 CURVE SMOOTH",
"136 210 OFFCURVE",
"174 129 OFFCURVE",
"238 68 CURVE SMOOTH",
"305 3 OFFCURVE",
"397 -29 OFFCURVE",
"513 -29 CURVE SMOOTH"
);
},
{
closed = 1;
nodes = (
"474 125 OFFCURVE",
"420 146 OFFCURVE",
"381 181 CURVE SMOOTH",
"342 217 OFFCURVE",
"320 268 OFFCURVE",
"320 337 CURVE SMOOTH",
"320 412 OFFCURVE",
"345 468 OFFCURVE",
"402 507 CURVE SMOOTH",
"457 544 OFFCURVE",
"537 563 OFFCURVE",
"644 563 CURVE SMOOTH",
"877 563 LINE",
"877 522 LINE SMOOTH",
"877 400 OFFCURVE",
"848 303 OFFCURVE",
"789 231 CURVE SMOOTH",
"731 160 OFFCURVE",
"652 125 OFFCURVE",
"551 125 CURVE SMOOTH"
);
}
);
width = 1233;
}
);
note = "\012\011acircumflex\012  ";
unicode = 00E2;
},
{
glyphname = adieresis;
layers = (
{
layerId = "1D6BC6EA-621B-4B6F-A209-F2A632971314";
name = Regular;
paths = (
{
closed = 1;
nodes = (
"495 1350 LINE SMOOTH",
"515 1350 OFFCURVE",
"525 1360 OFFCURVE",
"525 1380 CURVE SMOOTH",
"525 1522 LINE SMOOTH",
"525 1542 OFFCURVE",
"515 1552 OFFCURVE",
"495 1552 CURVE SMOOTH",
"352 1552 LINE SMOOTH",
"332 1552 OFFCURVE",
"322 1542 OFFCURVE",
"322 1522 CURVE SMOOTH",
"322 1380 LINE SMOOTH",
"322 1360 OFFCURVE",
"332 1350 OFFCURVE",
"352 1350 CURVE SMOOTH"
);
},
{
closed = 1;
nodes = (
"886 1350 LINE SMOOTH",
"906 1350 OFFCURVE",
"916 1360 OFFCURVE",
"916 1380 CURVE SMOOTH",
"916 1522 LINE SMOOTH",
"916 1542 OFFCURVE",
"906 1552 OFFCURVE",
"886 1552 CURVE SMOOTH",
"744 1552 LINE SMOOTH",
"724 1552 OFFCURVE",
"714 1542 OFFCURVE",
"714 1522 CURVE SMOOTH",
"714 1380 LINE SMOOTH",
"714 1360 OFFCURVE",
"724 1350 OFFCURVE",
"744 1350 CURVE SMOOTH"
);
},
{
closed = 1;
nodes = (
"594 -29 OFFCURVE",
"665 -14 OFFCURVE",
"729 19 CURVE SMOOTH",
"788 50 OFFCURVE",
"854 103 OFFCURVE",
"893 170 CURVE",
"896 149 OFFCURVE",
"902 116 OFFCURVE",
"909 87 CURVE SMOOTH",
"918 50 OFFCURVE",
"929 16 OFFCURVE",
"936 0 CURVE",
"1121 0 LINE",
"1118 7 OFFCURVE",
"1103 50 OFFCURVE",
"1094 91 CURVE",
"1087 116 OFFCURVE",
"1078 170 OFFCURVE",
"1071 226 CURVE SMOOTH",
"1064 277 OFFCURVE",
"1065 333 OFFCURVE",
"1062 410 CURVE",
"1062 639 LINE SMOOTH",
"1062 738 OFFCURVE",
"1057 811 OFFCURVE",
"1046 860 CURVE SMOOTH",
"1037 901 OFFCURVE",
"1020 945 OFFCURVE",
"992 984 CURVE SMOOTH",
"953 1037 OFFCURVE",
"895 1078 OFFCURVE",
"834 1105 CURVE SMOOTH",
"767 1133 OFFCURVE",
"692 1147 OFFCURVE",
"597 1147 CURVE SMOOTH",
"536 1147 OFFCURVE",
"475 1141 OFFCURVE",
"414 1128 CURVE SMOOTH",
"345 1113 OFFCURVE",
"274 1090 OFFCURVE",
"218 1069 CURVE",
"218 885 LINE",
"278 920 OFFCURVE",
"340 946 OFFCURVE",
"405 964 CURVE SMOOTH",
"469 982 OFFCURVE",
"533 991 OFFCURVE",
"596 991 CURVE SMOOTH",
"692 991 OFFCURVE",
"765 971 OFFCURVE",
"809 931 CURVE SMOOTH",
"854 890 OFFCURVE",
"877 821 OFFCURVE",
"877 736 CURVE SMOOTH",
"877 707 LINE",
"630 707 LINE SMOOTH",
"467 707 OFFCURVE",
"345 675 OFFCURVE",
"262 610 CURVE SMOOTH",
"178 545 OFFCURVE",
"136 450 OFFCURVE",
"136 327 CURVE SMOOTH",
"136 210 OFFCURVE",
"174 129 OFFCURVE",
"238 68 CURVE SMOOTH",
"305 3 OFFCURVE",
"397 -29 OFFCURVE",
"513 -29 CURVE SMOOTH"
);
},
{
closed = 1;
nodes = (
"474 125 OFFCURVE",
"420 146 OFFCURVE",
"381 181 CURVE SMOOTH",
"342 217 OFFCURVE",
"320 268 OFFCURVE",
"320 337 CURVE SMOOTH",
"320 412 OFFCURVE",
"345 468 OFFCURVE",
"402 507 CURVE SMOOTH",
"457 544 OFFCURVE",
"537 563 OFFCURVE",
"644 563 CURVE SMOOTH",
"877 563 LINE",
"877 522 LINE SMOOTH",
"877 400 OFFCURVE",
"848 303 OFFCURVE",
"789 231 CURVE SMOOTH",
"731 160 OFFCURVE",
"652 125 OFFCURVE",
"551 125 CURVE SMOOTH"
);
}
);
width = 1233;
}
);
note = "\012\011adieresis\012  ";
unicode = 00E4;
},
{
glyphname = agrave;
layers = (
{
layerId = "1D6BC6EA-621B-4B6F-A209-F2A632971314";
name = Regular;
paths = (
{
closed = 1;
nodes = (
"607 1297 LINE",
"761 1297 LINE",
"480 1673 LINE",
"282 1673 LINE"
);
},
{
closed = 1;
nodes = (
"594 -29 OFFCURVE",
"665 -14 OFFCURVE",
"729 19 CURVE SMOOTH",
"788 50 OFFCURVE",
"854 103 OFFCURVE",
"893 170 CURVE",
"896 149 OFFCURVE",
"902 116 OFFCURVE",
"909 87 CURVE SMOOTH",
"918 50 OFFCURVE",
"929 16 OFFCURVE",
"936 0 CURVE",
"1121 0 LINE",
"1118 7 OFFCURVE",
"1103 50 OFFCURVE",
"1094 91 CURVE",
"1087 116 OFFCURVE",
"1078 170 OFFCURVE",
"1071 226 CURVE SMOOTH",
"1064 277 OFFCURVE",
"1065 333 OFFCURVE",
"1062 410 CURVE",
"1062 639 LINE SMOOTH",
"1062 738 OFFCURVE",
"1057 811 OFFCURVE",
"1046 860 CURVE SMOOTH",
"1037 901 OFFCURVE",
"1020 945 OFFCURVE",
"992 984 CURVE SMOOTH",
"953 1037 OFFCURVE",
"895 1078 OFFCURVE",
"834 1105 CURVE SMOOTH",
"767 1133 OFFCURVE",
"692 1147 OFFCURVE",
"597 1147 CURVE SMOOTH",
"536 1147 OFFCURVE",
"475 1141 OFFCURVE",
"414 1128 CURVE SMOOTH",
"345 1113 OFFCURVE",
"274 1090 OFFCURVE",
"218 1069 CURVE",
"218 885 LINE",
"278 920 OFFCURVE",
"340 946 OFFCURVE",
"405 964 CURVE SMOOTH",
"469 982 OFFCURVE",
"533 991 OFFCURVE",
"596 991 CURVE SMOOTH",
"692 991 OFFCURVE",
"765 971 OFFCURVE",
"809 931 CURVE SMOOTH",
"854 890 OFFCURVE",
"877 821 OFFCURVE",
"877 736 CURVE SMOOTH",
"877 707 LINE",
"630 707 LINE SMOOTH",
"467 707 OFFCURVE",
"345 675 OFFCURVE",
"262 610 CURVE SMOOTH",
"178 545 OFFCURVE",
"136 450 OFFCURVE",
"136 327 CURVE SMOOTH",
"136 210 OFFCURVE",
"174 129 OFFCURVE",
"238 68 CURVE SMOOTH",
"305 3 OFFCURVE",
"397 -29 OFFCURVE",
"513 -29 CURVE SMOOTH"
);
},
{
closed = 1;
nodes = (
"474 125 OFFCURVE",
"420 146 OFFCURVE",
"381 181 CURVE SMOOTH",
"342 217 OFFCURVE",
"320 268 OFFCURVE",
"320 337 CURVE SMOOTH",
"320 412 OFFCURVE",
"345 468 OFFCURVE",
"402 507 CURVE SMOOTH",
"457 544 OFFCURVE",
"537 563 OFFCURVE",
"644 563 CURVE SMOOTH",
"877 563 LINE",
"877 522 LINE SMOOTH",
"877 400 OFFCURVE",
"848 303 OFFCURVE",
"789 231 CURVE SMOOTH",
"731 160 OFFCURVE",
"652 125 OFFCURVE",
"551 125 CURVE SMOOTH"
);
}
);
width = 1233;
}
);
note = "\012\011agrave\012  ";
unicode = 00E0;
},
{
glyphname = amacron;
layers = (
{
layerId = "1D6BC6EA-621B-4B6F-A209-F2A632971314";
name = Regular;
paths = (
{
closed = 1;
nodes = (
"320 1348 LINE",
"918 1348 LINE",
"918 1496 LINE",
"320 1496 LINE"
);
},
{
closed = 1;
nodes = (
"594 -29 OFFCURVE",
"665 -14 OFFCURVE",
"729 19 CURVE SMOOTH",
"788 50 OFFCURVE",
"854 103 OFFCURVE",
"893 170 CURVE",
"896 149 OFFCURVE",
"902 116 OFFCURVE",
"909 87 CURVE SMOOTH",
"918 50 OFFCURVE",
"929 16 OFFCURVE",
"936 0 CURVE",
"1121 0 LINE",
"1118 7 OFFCURVE",
"1103 50 OFFCURVE",
"1094 91 CURVE",
"1087 116 OFFCURVE",
"1078 170 OFFCURVE",
"1071 226 CURVE SMOOTH",
"1064 277 OFFCURVE",
"1065 333 OFFCURVE",
"1062 410 CURVE",
"1062 639 LINE SMOOTH",
"1062 738 OFFCURVE",
"1057 811 OFFCURVE",
"1046 860 CURVE SMOOTH",
"1037 901 OFFCURVE",
"1020 945 OFFCURVE",
"992 984 CURVE SMOOTH",
"953 1037 OFFCURVE",
"895 1078 OFFCURVE",
"834 1105 CURVE SMOOTH",
"767 1133 OFFCURVE",
"692 1147 OFFCURVE",
"597 1147 CURVE SMOOTH",
"536 1147 OFFCURVE",
"475 1141 OFFCURVE",
"414 1128 CURVE SMOOTH",
"345 1113 OFFCURVE",
"274 1090 OFFCURVE",
"218 1069 CURVE",
"218 885 LINE",
"278 920 OFFCURVE",
"340 946 OFFCURVE",
"405 964 CURVE SMOOTH",
"469 982 OFFCURVE",
"533 991 OFFCURVE",
"596 991 CURVE SMOOTH",
"692 991 OFFCURVE",
"765 971 OFFCURVE",
"809 931 CURVE SMOOTH",
"854 890 OFFCURVE",
"877 821 OFFCURVE",
"877 736 CURVE SMOOTH",
"877 707 LINE",
"630 707 LINE SMOOTH",
"467 707 OFFCURVE",
"345 675 OFFCURVE",
"262 610 CURVE SMOOTH",
"178 545 OFFCURVE",
"136 450 OFFCURVE",
"136 327 CURVE SMOOTH",
"136 210 OFFCURVE",
"174 129 OFFCURVE",
"238 68 CURVE SMOOTH",
"305 3 OFFCURVE",
"397 -29 OFFCURVE",
"513 -29 CURVE SMOOTH"
);
},
{
closed = 1;
nodes = (
"474 125 OFFCURVE",
"420 146 OFFCURVE",
"381 181 CURVE SMOOTH",
"342 217 OFFCURVE",
"320 268 OFFCURVE",
"320 337 CURVE SMOOTH",
"320 412 OFFCURVE",
"345 468 OFFCURVE",
"402 507 CURVE SMOOTH",
"457 544 OFFCURVE",
"537 563 OFFCURVE",
"644 563 CURVE SMOOTH",
"877 563 LINE",
"877 522 LINE SMOOTH",
"877 400 OFFCURVE",
"848 303 OFFCURVE",
"789 231 CURVE SMOOTH",
"731 160 OFFCURVE",
"652 125 OFFCURVE",
"551 125 CURVE SMOOTH"
);
}
);
width = 1233;
}
);
note = "\012\011amacron\012  ";
unicode = 0101;
},
{
glyphname = aogonek;
layers = (
{
layerId = "1D6BC6EA-621B-4B6F-A209-F2A632971314";
name = Regular;
paths = (
{
closed = 1;
nodes = (
"1006 -269 OFFCURVE",
"968 -237 OFFCURVE",
"968 -181 CURVE SMOOTH",
"968 -137 OFFCURVE",
"991 -85 OFFCURVE",
"1054 0 CURVE",
"1121 0 LINE",
"1118 7 OFFCURVE",
"1103 50 OFFCURVE",
"1094 91 CURVE",
"1087 116 OFFCURVE",
"1078 170 OFFCURVE",
"1071 226 CURVE SMOOTH",
"1064 277 OFFCURVE",
"1065 333 OFFCURVE",
"1062 410 CURVE",
"1062 639 LINE SMOOTH",
"1062 738 OFFCURVE",
"1057 811 OFFCURVE",
"1046 860 CURVE SMOOTH",
"1037 901 OFFCURVE",
"1020 945 OFFCURVE",
"992 984 CURVE SMOOTH",
"953 1037 OFFCURVE",
"895 1078 OFFCURVE",
"834 1105 CURVE SMOOTH",
"767 1133 OFFCURVE",
"692 1147 OFFCURVE",
"597 1147 CURVE SMOOTH",
"536 1147 OFFCURVE",
"475 1141 OFFCURVE",
"414 1128 CURVE SMOOTH",
"345 1113 OFFCURVE",
"274 1090 OFFCURVE",
"218 1069 CURVE",
"218 885 LINE",
"278 920 OFFCURVE",
"340 946 OFFCURVE",
"405 964 CURVE SMOOTH",
"469 982 OFFCURVE",
"533 991 OFFCURVE",
"596 991 CURVE SMOOTH",
"692 991 OFFCURVE",
"765 971 OFFCURVE",
"809 931 CURVE SMOOTH",
"854 890 OFFCURVE",
"877 821 OFFCURVE",
"877 736 CURVE SMOOTH",
"877 707 LINE",
"630 707 LINE SMOOTH",
"467 707 OFFCURVE",
"345 675 OFFCURVE",
"262 610 CURVE SMOOTH",
"178 545 OFFCURVE",
"136 450 OFFCURVE",
"136 327 CURVE SMOOTH",
"136 210 OFFCURVE",
"174 129 OFFCURVE",
"238 68 CURVE SMOOTH",
"305 3 OFFCURVE",
"397 -29 OFFCURVE",
"513 -29 CURVE SMOOTH",
"594 -29 OFFCURVE",
"665 -14 OFFCURVE",
"729 19 CURVE SMOOTH",
"788 50 OFFCURVE",
"854 103 OFFCURVE",
"893 170 CURVE",
"896 149 OFFCURVE",
"902 116 OFFCURVE",
"909 87 CURVE SMOOTH",
"918 51 OFFCURVE",
"928 18 OFFCURVE",
"935 1 CURVE",
"855 -92 OFFCURVE",
"829 -152 OFFCURVE",
"829 -218 CURVE SMOOTH",
"829 -337 OFFCURVE",
"910 -392 OFFCURVE",
"1059 -392 CURVE SMOOTH",
"1108 -392 OFFCURVE",
"1146 -387 OFFCURVE",
"1202 -372 CURVE",
"1202 -239 LINE",
"1161 -259 OFFCURVE",
"1119 -269 OFFCURVE",
"1078 -269 CURVE SMOOTH"
);
},
{
closed = 1;
nodes = (
"877 522 LINE SMOOTH",
"877 400 OFFCURVE",
"848 303 OFFCURVE",
"789 231 CURVE SMOOTH",
"731 160 OFFCURVE",
"652 125 OFFCURVE",
"551 125 CURVE SMOOTH",
"474 125 OFFCURVE",
"420 146 OFFCURVE",
"381 181 CURVE SMOOTH",
"342 217 OFFCURVE",
"320 268 OFFCURVE",
"320 337 CURVE SMOOTH",
"320 412 OFFCURVE",
"345 468 OFFCURVE",
"402 507 CURVE SMOOTH",
"457 544 OFFCURVE",
"537 563 OFFCURVE",
"644 563 CURVE SMOOTH",
"877 563 LINE"
);
}
);
width = 1233;
}
);
note = "\012\011aogonek\012  ";
unicode = 0105;
},
{
glyphname = aring;
layers = (
{
layerId = "1D6BC6EA-621B-4B6F-A209-F2A632971314";
name = Regular;
paths = (
{
closed = 1;
nodes = (
"696 1249 OFFCURVE",
"762 1276 OFFCURVE",
"815 1329 CURVE SMOOTH",
"868 1382 OFFCURVE",
"894 1447 OFFCURVE",
"894 1524 CURVE SMOOTH",
"894 1601 OFFCURVE",
"868 1666 OFFCURVE",
"815 1719 CURVE SMOOTH",
"762 1772 OFFCURVE",
"697 1798 OFFCURVE",
"619 1798 CURVE SMOOTH",
"542 1798 OFFCURVE",
"478 1772 OFFCURVE",
"425 1719 CURVE SMOOTH",
"372 1666 OFFCURVE",
"345 1601 OFFCURVE",
"345 1524 CURVE SMOOTH",
"345 1447 OFFCURVE",
"372 1382 OFFCURVE",
"425 1329 CURVE SMOOTH",
"478 1276 OFFCURVE",
"543 1249 OFFCURVE",
"619 1249 CURVE SMOOTH"
);
},
{
closed = 1;
nodes = (
"577 1372 OFFCURVE",
"541 1387 OFFCURVE",
"512 1416 CURVE SMOOTH",
"483 1445 OFFCURVE",
"468 1481 OFFCURVE",
"468 1524 CURVE SMOOTH",
"468 1567 OFFCURVE",
"483 1603 OFFCURVE",
"512 1632 CURVE SMOOTH",
"541 1661 OFFCURVE",
"576 1675 OFFCURVE",
"618 1675 CURVE SMOOTH",
"661 1675 OFFCURVE",
"698 1660 OFFCURVE",
"727 1631 CURVE SMOOTH",
"756 1602 OFFCURVE",
"771 1566 OFFCURVE",
"771 1524 CURVE SMOOTH",
"771 1481 OFFCURVE",
"756 1445 OFFCURVE",
"727 1416 CURVE SMOOTH",
"698 1387 OFFCURVE",
"662 1372 OFFCURVE",
"619 1372 CURVE SMOOTH"
);
},
{
closed = 1;
nodes = (
"594 -29 OFFCURVE",
"665 -14 OFFCURVE",
"729 19 CURVE SMOOTH",
"788 50 OFFCURVE",
"854 103 OFFCURVE",
"893 170 CURVE",
"896 149 OFFCURVE",
"902 116 OFFCURVE",
"909 87 CURVE SMOOTH",
"918 50 OFFCURVE",
"929 16 OFFCURVE",
"936 0 CURVE",
"1121 0 LINE",
"1118 7 OFFCURVE",
"1103 50 OFFCURVE",
"1094 91 CURVE",
"1087 116 OFFCURVE",
"1078 170 OFFCURVE",
"1071 226 CURVE SMOOTH",
"1064 277 OFFCURVE",
"1065 333 OFFCURVE",
"1062 410 CURVE",
"1062 639 LINE SMOOTH",
"1062 738 OFFCURVE",
"1057 811 OFFCURVE",
"1046 860 CURVE SMOOTH",
"1037 901 OFFCURVE",
"1020 945 OFFCURVE",
"992 984 CURVE SMOOTH",
"953 1037 OFFCURVE",
"895 1078 OFFCURVE",
"834 1105 CURVE SMOOTH",
"767 1133 OFFCURVE",
"692 1147 OFFCURVE",
"597 1147 CURVE SMOOTH",
"536 1147 OFFCURVE",
"475 1141 OFFCURVE",
"414 1128 CURVE SMOOTH",
"345 1113 OFFCURVE",
"274 1090 OFFCURVE",
"218 1069 CURVE",
"218 885 LINE",
"278 920 OFFCURVE",
"340 946 OFFCURVE",
"405 964 CURVE SMOOTH",
"469 982 OFFCURVE",
"533 991 OFFCURVE",
"596 991 CURVE SMOOTH",
"692 991 OFFCURVE",
"765 971 OFFCURVE",
"809 931 CURVE SMOOTH",
"854 890 OFFCURVE",
"877 821 OFFCURVE",
"877 736 CURVE SMOOTH",
"877 707 LINE",
"630 707 LINE SMOOTH",
"467 707 OFFCURVE",
"345 675 OFFCURVE",
"262 610 CURVE SMOOTH",
"178 545 OFFCURVE",
"136 450 OFFCURVE",
"136 327 CURVE SMOOTH",
"136 210 OFFCURVE",
"174 129 OFFCURVE",
"238 68 CURVE SMOOTH",
"305 3 OFFCURVE",
"397 -29 OFFCURVE",
"513 -29 CURVE SMOOTH"
);
},
{
closed = 1;
nodes = (
"474 125 OFFCURVE",
"420 146 OFFCURVE",
"381 181 CURVE SMOOTH",
"342 217 OFFCURVE",
"320 268 OFFCURVE",
"320 337 CURVE SMOOTH",
"320 412 OFFCURVE",
"345 468 OFFCURVE",
"402 507 CURVE SMOOTH",
"457 544 OFFCURVE",
"537 563 OFFCURVE",
"644 563 CURVE SMOOTH",
"877 563 LINE",
"877 522 LINE SMOOTH",
"877 400 OFFCURVE",
"848 303 OFFCURVE",
"789 231 CURVE SMOOTH",
"731 160 OFFCURVE",
"652 125 OFFCURVE",
"551 125 CURVE SMOOTH"
);
}
);
width = 1233;
}
);
note = "\012\011aring\012  ";
unicode = 00E5;
},
{
glyphname = atilde;
layers = (
{
layerId = "1D6BC6EA-621B-4B6F-A209-F2A632971314";
name = Regular;
paths = (
{
closed = 1;
nodes = (
"414 1339 LINE",
"415 1392 OFFCURVE",
"421 1431 OFFCURVE",
"434 1457 CURVE SMOOTH",
"446 1482 OFFCURVE",
"465 1494 OFFCURVE",
"490 1494 CURVE SMOOTH",
"501 1494 OFFCURVE",
"508 1492 OFFCURVE",
"520 1485 CURVE SMOOTH",
"528 1480 OFFCURVE",
"541 1471 OFFCURVE",
"558 1455 CURVE SMOOTH",
"615 1400 LINE",
"641 1377 OFFCURVE",
"664 1362 OFFCURVE",
"684 1353 CURVE SMOOTH",
"706 1344 OFFCURVE",
"730 1339 OFFCURVE",
"756 1339 CURVE SMOOTH",
"816 1339 OFFCURVE",
"863 1364 OFFCURVE",
"897 1413 CURVE SMOOTH",
"930 1462 OFFCURVE",
"948 1531 OFFCURVE",
"949 1621 CURVE",
"824 1621 LINE",
"823 1566 OFFCURVE",
"816 1527 OFFCURVE",
"805 1503 CURVE SMOOTH",
"793 1478 OFFCURVE",
"774 1466 OFFCURVE",
"749 1466 CURVE SMOOTH",
"738 1466 OFFCURVE",
"732 1468 OFFCURVE",
"719 1476 CURVE SMOOTH",
"711 1481 OFFCURVE",
"696 1492 OFFCURVE",
"681 1505 CURVE",
"624 1560 LINE",
"598 1583 OFFCURVE",
"575 1598 OFFCURVE",
"555 1607 CURVE SMOOTH",
"533 1616 OFFCURVE",
"509 1621 OFFCURVE",
"483 1621 CURVE SMOOTH",
"423 1621 OFFCURVE",
"376 1596 OFFCURVE",
"342 1547 CURVE SMOOTH",
"309 1498 OFFCURVE",
"291 1429 OFFCURVE",
"290 1339 CURVE"
);
},
{
closed = 1;
nodes = (
"594 -29 OFFCURVE",
"665 -14 OFFCURVE",
"729 19 CURVE SMOOTH",
"788 50 OFFCURVE",
"854 103 OFFCURVE",
"893 170 CURVE",
"896 149 OFFCURVE",
"902 116 OFFCURVE",
"909 87 CURVE SMOOTH",
"918 50 OFFCURVE",
"929 16 OFFCURVE",
"936 0 CURVE",
"1121 0 LINE",
"1118 7 OFFCURVE",
"1103 50 OFFCURVE",
"1094 91 CURVE",
"1087 116 OFFCURVE",
"1078 170 OFFCURVE",
"1071 226 CURVE SMOOTH",
"1064 277 OFFCURVE",
"1065 333 OFFCURVE",
"1062 410 CURVE",
"1062 639 LINE SMOOTH",
"1062 738 OFFCURVE",
"1057 811 OFFCURVE",
"1046 860 CURVE SMOOTH",
"1037 901 OFFCURVE",
"1020 945 OFFCURVE",
"992 984 CURVE SMOOTH",
"953 1037 OFFCURVE",
"895 1078 OFFCURVE",
"834 1105 CURVE SMOOTH",
"767 1133 OFFCURVE",
"692 1147 OFFCURVE",
"597 1147 CURVE SMOOTH",
"536 1147 OFFCURVE",
"475 1141 OFFCURVE",
"414 1128 CURVE SMOOTH",
"345 1113 OFFCURVE",
"274 1090 OFFCURVE",
"218 1069 CURVE",
"218 885 LINE",
"278 920 OFFCURVE",
"340 946 OFFCURVE",
"405 964 CURVE SMOOTH",
"469 982 OFFCURVE",
"533 991 OFFCURVE",
"596 991 CURVE SMOOTH",
"692 991 OFFCURVE",
"765 971 OFFCURVE",
"809 931 CURVE SMOOTH",
"854 890 OFFCURVE",
"877 821 OFFCURVE",
"877 736 CURVE SMOOTH",
"877 707 LINE",
"630 707 LINE SMOOTH",
"467 707 OFFCURVE",
"345 675 OFFCURVE",
"262 610 CURVE SMOOTH",
"178 545 OFFCURVE",
"136 450 OFFCURVE",
"136 327 CURVE SMOOTH",
"136 210 OFFCURVE",
"174 129 OFFCURVE",
"238 68 CURVE SMOOTH",
"305 3 OFFCURVE",
"397 -29 OFFCURVE",
"513 -29 CURVE SMOOTH"
);
},
{
closed = 1;
nodes = (
"474 125 OFFCURVE",
"420 146 OFFCURVE",
"381 181 CURVE SMOOTH",
"342 217 OFFCURVE",
"320 268 OFFCURVE",
"320 337 CURVE SMOOTH",
"320 412 OFFCURVE",
"345 468 OFFCURVE",
"402 507 CURVE SMOOTH",
"457 544 OFFCURVE",
"537 563 OFFCURVE",
"644 563 CURVE SMOOTH",
"877 563 LINE",
"877 522 LINE SMOOTH",
"877 400 OFFCURVE",
"848 303 OFFCURVE",
"789 231 CURVE SMOOTH",
"731 160 OFFCURVE",
"652 125 OFFCURVE",
"551 125 CURVE SMOOTH"
);
}
);
width = 1233;
}
);
note = "\012\011atilde\012  ";
unicode = 00E3;
},
{
glyphname = ae;
layers = (
{
layerId = "1D6BC6EA-621B-4B6F-A209-F2A632971314";
name = Regular;
paths = (
{
closed = 1;
nodes = (
"426 -29 OFFCURVE",
"479 -16 OFFCURVE",
"524 11 CURVE SMOOTH",
"568 38 OFFCURVE",
"603 78 OFFCURVE",
"629 131 CURVE",
"650 79 OFFCURVE",
"686 39 OFFCURVE",
"736 12 CURVE SMOOTH",
"785 -15 OFFCURVE",
"849 -29 OFFCURVE",
"917 -29 CURVE SMOOTH",
"969 -29 OFFCURVE",
"1018 -21 OFFCURVE",
"1057 -8 CURVE SMOOTH",
"1096 5 OFFCURVE",
"1139 27 OFFCURVE",
"1178 55 CURVE",
"1178 227 LINE",
"1145 194 OFFCURVE",
"1107 168 OFFCURVE",
"1064 151 CURVE SMOOTH",
"1020 134 OFFCURVE",
"973 125 OFFCURVE",
"923 125 CURVE SMOOTH",
"848 125 OFFCURVE",
"794 145 OFFCURVE",
"758 196 CURVE SMOOTH",
"726 241 OFFCURVE",
"707 312 OFFCURVE",
"707 443 CURVE SMOOTH",
"707 474 OFFCURVE",
"708 478 OFFCURVE",
"708 482 CURVE SMOOTH",
"708 493 OFFCURVE",
"708 503 OFFCURVE",
"709 514 CURVE",
"1200 514 LINE",
"1200 604 LINE SMOOTH",
"1200 808 OFFCURVE",
"1176 950 OFFCURVE",
"1128 1029 CURVE SMOOTH",
"1080 1109 OFFCURVE",
"995 1147 OFFCURVE",
"882 1147 CURVE SMOOTH",
"822 1147 OFFCURVE",
"770 1136 OFFCURVE",
"726 1114 CURVE SMOOTH",
"682 1092 OFFCURVE",
"649 1061 OFFCURVE",
"627 1020 CURVE",
"602 1063 OFFCURVE",
"569 1095 OFFCURVE",
"528 1116 CURVE SMOOTH",
"487 1137 OFFCURVE",
"437 1147 OFFCURVE",
"376 1147 CURVE SMOOTH",
"334 1147 OFFCURVE",
"292 1142 OFFCURVE",
"249 1131 CURVE SMOOTH",
"205 1120 OFFCURVE",
"157 1102 OFFCURVE",
"106 1079 CURVE",
"106 911 LINE",
"147 938 OFFCURVE",
"194 959 OFFCURVE",
"234 972 CURVE SMOOTH",
"273 985 OFFCURVE",
"318 993 OFFCURVE",
"357 993 CURVE SMOOTH",
"420 993 OFFCURVE",
"467 972 OFFCURVE",
"500 929 CURVE SMOOTH",
"533 886 OFFCURVE",
"549 825 OFFCURVE",
"549 745 CURVE SMOOTH",
"549 657 LINE",
"432 657 LINE SMOOTH",
"305 657 OFFCURVE",
"208 627 OFFCURVE",
"141 568 CURVE SMOOTH",
"70 505 OFFCURVE",
"41 417 OFFCURVE",
"41 304 CURVE SMOOTH",
"41 201 OFFCURVE",
"66 117 OFFCURVE",
"123 57 CURVE SMOOTH",
"177 0 OFFCURVE",
"255 -29 OFFCURVE",
"358 -29 CURVE SMOOTH"
);
},
{
closed = 1;
nodes = (
"709 657 LINE",
"709 700 LINE SMOOTH",
"709 805 OFFCURVE",
"722 880 OFFCURVE",
"747 925 CURVE SMOOTH",
"772 970 OFFCURVE",
"814 993 OFFCURVE",
"872 993 CURVE SMOOTH",
"935 993 OFFCURVE",
"975 967 OFFCURVE",
"998 927 CURVE SMOOTH",
"1022 884 OFFCURVE",
"1036 813 OFFCURVE",
"1036 709 CURVE SMOOTH",
"1036 657 LINE"
);
},
{
closed = 1;
nodes = (
"322 125 OFFCURVE",
"280 141 OFFCURVE",
"250 174 CURVE SMOOTH",
"220 206 OFFCURVE",
"205 252 OFFCURVE",
"205 313 CURVE SMOOTH",
"205 385 OFFCURVE",
"225 438 OFFCURVE",
"265 469 CURVE SMOOTH",
"305 499 OFFCURVE",
"381 514 OFFCURVE",
"494 514 CURVE SMOOTH",
"543 514 LINE",
"543 442 LINE SMOOTH",
"543 306 OFFCURVE",
"529 235 OFFCURVE",
"506 192 CURVE SMOOTH",
"481 147 OFFCURVE",
"438 125 OFFCURVE",
"375 125 CURVE SMOOTH"
);
}
);
width = 1233;
}
);
note = "\012\011ae\012  ";
unicode = 00E6;
},
{
glyphname = b;
layers = (
{
layerId = "1D6BC6EA-621B-4B6F-A209-F2A632971314";
name = Regular;
paths = (
{
closed = 1;
nodes = (
"813 -29 OFFCURVE",
"920 25 OFFCURVE",
"996 129 CURVE SMOOTH",
"1073 234 OFFCURVE",
"1112 378 OFFCURVE",
"1112 561 CURVE SMOOTH",
"1112 742 OFFCURVE",
"1073 889 OFFCURVE",
"996 993 CURVE SMOOTH",
"917 1097 OFFCURVE",
"808 1147 OFFCURVE",
"680 1147 CURVE SMOOTH",
"611 1147 OFFCURVE",
"550 1132 OFFCURVE",
"499 1103 CURVE SMOOTH",
"446 1074 OFFCURVE",
"406 1032 OFFCURVE",
"377 977 CURVE",
"377 1556 LINE",
"193 1556 LINE",
"193 0 LINE",
"359 0 LINE",
"377 141 LINE",
"408 86 OFFCURVE",
"449 44 OFFCURVE",
"500 15 CURVE SMOOTH",
"555 -16 OFFCURVE",
"608 -29 OFFCURVE",
"676 -29 CURVE SMOOTH"
);
},
{
closed = 1;
nodes = (
"560 127 OFFCURVE",
"492 164 OFFCURVE",
"446 237 CURVE SMOOTH",
"400 310 OFFCURVE",
"377 417 OFFCURVE",
"377 559 CURVE SMOOTH",
"377 701 OFFCURVE",
"400 809 OFFCURVE",
"446 882 CURVE SMOOTH",
"492 955 OFFCURVE",
"560 991 OFFCURVE",
"649 991 CURVE SMOOTH",
"738 991 OFFCURVE",
"805 955 OFFCURVE",
"850 882 CURVE SMOOTH",
"895 809 OFFCURVE",
"918 701 OFFCURVE",
"918 559 CURVE SMOOTH",
"918 417 OFFCURVE",
"895 309 OFFCURVE",
"850 236 CURVE SMOOTH",
"805 163 OFFCURVE",
"739 127 OFFCURVE",
"650 127 CURVE SMOOTH"
);
}
);
width = 1233;
}
);
note = "\012\011b\012  ";
unicode = 0062;
},
{
glyphname = c;
layers = (
{
layerId = "1D6BC6EA-621B-4B6F-A209-F2A632971314";
name = Regular;
paths = (
{
closed = 1;
nodes = (
"776 -29 OFFCURVE",
"831 -21 OFFCURVE",
"878 -8 CURVE SMOOTH",
"929 7 OFFCURVE",
"985 30 OFFCURVE",
"1030 57 CURVE",
"1030 248 LINE",
"989 209 OFFCURVE",
"949 180 OFFCURVE",
"889 157 CURVE SMOOTH",
"842 138 OFFCURVE",
"788 127 OFFCURVE",
"721 127 CURVE SMOOTH",
"604 127 OFFCURVE",
"514 165 OFFCURVE",
"451 240 CURVE SMOOTH",
"384 320 OFFCURVE",
"358 432 OFFCURVE",
"358 560 CURVE SMOOTH",
"358 697 OFFCURVE",
"389 804 OFFCURVE",
"451 879 CURVE SMOOTH",
"513 954 OFFCURVE",
"602 991 OFFCURVE",
"718 991 CURVE SMOOTH",
"779 991 OFFCURVE",
"834 981 OFFCURVE",
"884 962 CURVE SMOOTH",
"933 943 OFFCURVE",
"981 911 OFFCURVE",
"1030 868 CURVE",
"1030 1061 LINE",
"977 1090 OFFCURVE",
"926 1112 OFFCURVE",
"875 1126 CURVE SMOOTH",
"824 1141 OFFCURVE",
"774 1147 OFFCURVE",
"713 1147 CURVE SMOOTH",
"546 1147 OFFCURVE",
"410 1096 OFFCURVE",
"311 992 CURVE SMOOTH",
"218 893 OFFCURVE",
"164 750 OFFCURVE",
"164 559 CURVE SMOOTH",
"164 376 OFFCURVE",
"213 231 OFFCURVE",
"310 127 CURVE SMOOTH",
"406 24 OFFCURVE",
"545 -29 OFFCURVE",
"712 -29 CURVE SMOOTH"
);
}
);
width = 1233;
}
);
note = "\012\011c\012  ";
unicode = 0063;
},
{
glyphname = cacute;
layers = (
{
layerId = "1D6BC6EA-621B-4B6F-A209-F2A632971314";
name = Regular;
paths = (
{
closed = 1;
nodes = (
"534 1297 LINE",
"688 1297 LINE",
"1013 1673 LINE",
"815 1673 LINE"
);
},
{
closed = 1;
nodes = (
"776 -29 OFFCURVE",
"831 -21 OFFCURVE",
"878 -8 CURVE SMOOTH",
"929 7 OFFCURVE",
"985 30 OFFCURVE",
"1030 57 CURVE",
"1030 248 LINE",
"989 209 OFFCURVE",
"949 180 OFFCURVE",
"889 157 CURVE SMOOTH",
"842 138 OFFCURVE",
"788 127 OFFCURVE",
"721 127 CURVE SMOOTH",
"604 127 OFFCURVE",
"514 165 OFFCURVE",
"451 240 CURVE SMOOTH",
"384 320 OFFCURVE",
"358 432 OFFCURVE",
"358 560 CURVE SMOOTH",
"358 697 OFFCURVE",
"389 804 OFFCURVE",
"451 879 CURVE SMOOTH",
"513 954 OFFCURVE",
"602 991 OFFCURVE",
"718 991 CURVE SMOOTH",
"779 991 OFFCURVE",
"834 981 OFFCURVE",
"884 962 CURVE SMOOTH",
"933 943 OFFCURVE",
"981 911 OFFCURVE",
"1030 868 CURVE",
"1030 1061 LINE",
"977 1090 OFFCURVE",
"926 1112 OFFCURVE",
"875 1126 CURVE SMOOTH",
"824 1141 OFFCURVE",
"774 1147 OFFCURVE",
"713 1147 CURVE SMOOTH",
"546 1147 OFFCURVE",
"410 1096 OFFCURVE",
"311 992 CURVE SMOOTH",
"218 893 OFFCURVE",
"164 750 OFFCURVE",
"164 559 CURVE SMOOTH",
"164 376 OFFCURVE",
"214 230 OFFCURVE",
"310 127 CURVE SMOOTH",
"406 24 OFFCURVE",
"545 -29 OFFCURVE",
"712 -29 CURVE SMOOTH"
);
}
);
width = 1233;
}
);
note = "\012\011cacute\012  ";
unicode = 0107;
},
{
glyphname = ccaron;
layers = (
{
layerId = "1D6BC6EA-621B-4B6F-A209-F2A632971314";
name = Regular;
paths = (
{
closed = 1;
nodes = (
"602 1297 LINE",
"749 1297 LINE",
"995 1673 LINE",
"856 1673 LINE",
"675 1428 LINE",
"495 1673 LINE",
"356 1673 LINE"
);
},
{
closed = 1;
nodes = (
"776 -29 OFFCURVE",
"831 -21 OFFCURVE",
"878 -8 CURVE SMOOTH",
"929 7 OFFCURVE",
"985 30 OFFCURVE",
"1030 57 CURVE",
"1030 248 LINE",
"989 209 OFFCURVE",
"949 180 OFFCURVE",
"889 157 CURVE SMOOTH",
"842 138 OFFCURVE",
"788 127 OFFCURVE",
"721 127 CURVE SMOOTH",
"604 127 OFFCURVE",
"514 165 OFFCURVE",
"451 240 CURVE SMOOTH",
"384 320 OFFCURVE",
"358 432 OFFCURVE",
"358 560 CURVE SMOOTH",
"358 697 OFFCURVE",
"389 804 OFFCURVE",
"451 879 CURVE SMOOTH",
"513 954 OFFCURVE",
"602 991 OFFCURVE",
"718 991 CURVE SMOOTH",
"779 991 OFFCURVE",
"834 981 OFFCURVE",
"884 962 CURVE SMOOTH",
"933 943 OFFCURVE",
"981 911 OFFCURVE",
"1030 868 CURVE",
"1030 1061 LINE",
"977 1090 OFFCURVE",
"926 1112 OFFCURVE",
"875 1126 CURVE SMOOTH",
"824 1141 OFFCURVE",
"774 1147 OFFCURVE",
"713 1147 CURVE SMOOTH",
"546 1147 OFFCURVE",
"410 1096 OFFCURVE",
"311 992 CURVE SMOOTH",
"218 893 OFFCURVE",
"164 750 OFFCURVE",
"164 559 CURVE SMOOTH",
"164 376 OFFCURVE",
"214 230 OFFCURVE",
"310 127 CURVE SMOOTH",
"406 24 OFFCURVE",
"545 -29 OFFCURVE",
"712 -29 CURVE SMOOTH"
);
}
);
width = 1233;
}
);
note = "\012\011ccaron\012  ";
unicode = 010D;
},
{
glyphname = ccedilla;
layers = (
{
layerId = "1D6BC6EA-621B-4B6F-A209-F2A632971314";
name = Regular;
paths = (
{
closed = 1;
nodes = (
"779 991 OFFCURVE",
"834 981 OFFCURVE",
"884 962 CURVE SMOOTH",
"933 943 OFFCURVE",
"981 911 OFFCURVE",
"1030 868 CURVE",
"1030 1061 LINE",
"977 1090 OFFCURVE",
"926 1112 OFFCURVE",
"875 1126 CURVE SMOOTH",
"824 1141 OFFCURVE",
"774 1147 OFFCURVE",
"713 1147 CURVE SMOOTH",
"546 1147 OFFCURVE",
"410 1096 OFFCURVE",
"311 992 CURVE SMOOTH",
"218 893 OFFCURVE",
"164 750 OFFCURVE",
"164 559 CURVE SMOOTH",
"164 376 OFFCURVE",
"214 230 OFFCURVE",
"310 127 CURVE SMOOTH",
"399 32 OFFCURVE",
"525 -20 OFFCURVE",
"674 -28 CURVE",
"695 -58 OFFCURVE",
"710 -84 OFFCURVE",
"721 -105 CURVE SMOOTH",
"736 -134 OFFCURVE",
"743 -159 OFFCURVE",
"743 -180 CURVE SMOOTH",
"743 -209 OFFCURVE",
"733 -232 OFFCURVE",
"713 -248 CURVE SMOOTH",
"693 -264 OFFCURVE",
"662 -272 OFFCURVE",
"619 -272 CURVE SMOOTH",
"596 -272 OFFCURVE",
"565 -270 OFFCURVE",
"540 -265 CURVE SMOOTH",
"515 -260 OFFCURVE",
"491 -251 OFFCURVE",
"468 -240 CURVE",
"468 -371 LINE",
"496 -379 OFFCURVE",
"525 -385 OFFCURVE",
"556 -389 CURVE SMOOTH",
"585 -393 OFFCURVE",
"614 -395 OFFCURVE",
"643 -395 CURVE SMOOTH",
"726 -395 OFFCURVE",
"783 -379 OFFCURVE",
"822 -350 CURVE SMOOTH",
"862 -319 OFFCURVE",
"882 -272 OFFCURVE",
"882 -219 CURVE SMOOTH",
"882 -179 OFFCURVE",
"871 -146 OFFCURVE",
"856 -115 CURVE SMOOTH",
"841 -86 OFFCURVE",
"821 -56 OFFCURVE",
"794 -24 CURVE",
"825 -21 OFFCURVE",
"851 -15 OFFCURVE",
"878 -8 CURVE SMOOTH",
"929 7 OFFCURVE",
"985 30 OFFCURVE",
"1030 57 CURVE",
"1030 248 LINE",
"989 209 OFFCURVE",
"949 180 OFFCURVE",
"889 157 CURVE SMOOTH",
"842 138 OFFCURVE",
"788 127 OFFCURVE",
"721 127 CURVE SMOOTH",
"604 127 OFFCURVE",
"514 165 OFFCURVE",
"451 240 CURVE SMOOTH",
"384 320 OFFCURVE",
"358 432 OFFCURVE",
"358 560 CURVE SMOOTH",
"358 697 OFFCURVE",
"389 804 OFFCURVE",
"451 879 CURVE SMOOTH",
"513 954 OFFCURVE",
"602 991 OFFCURVE",
"718 991 CURVE SMOOTH"
);
}
);
width = 1233;
}
);
note = "\012\011ccedilla\012  ";
unicode = 00E7;
},
{
glyphname = cdotaccent;
layers = (
{
layerId = "1D6BC6EA-621B-4B6F-A209-F2A632971314";
name = Regular;
paths = (
{
closed = 1;
nodes = (
"732 1348 LINE SMOOTH",
"752 1348 OFFCURVE",
"762 1358 OFFCURVE",
"762 1378 CURVE SMOOTH",
"762 1522 LINE SMOOTH",
"762 1542 OFFCURVE",
"752 1552 OFFCURVE",
"732 1552 CURVE SMOOTH",
"587 1552 LINE SMOOTH",
"567 1552 OFFCURVE",
"557 1542 OFFCURVE",
"557 1522 CURVE SMOOTH",
"557 1378 LINE SMOOTH",
"557 1358 OFFCURVE",
"567 1348 OFFCURVE",
"587 1348 CURVE SMOOTH"
);
},
{
closed = 1;
nodes = (
"826 -29 OFFCURVE",
"931 0 OFFCURVE",
"1030 57 CURVE",
"1030 248 LINE",
"942 164 OFFCURVE",
"846 127 OFFCURVE",
"717 127 CURVE SMOOTH",
"486 127 OFFCURVE",
"358 282 OFFCURVE",
"358 559 CURVE SMOOTH",
"358 838 OFFCURVE",
"485 991 OFFCURVE",
"717 991 CURVE SMOOTH",
"841 991 OFFCURVE",
"933 955 OFFCURVE",
"1030 868 CURVE",
"1030 1061 LINE",
"926 1121 OFFCURVE",
"825 1147 OFFCURVE",
"717 1147 CURVE SMOOTH",
"370 1147 OFFCURVE",
"164 927 OFFCURVE",
"164 559 CURVE SMOOTH",
"164 191 OFFCURVE",
"370 -29 OFFCURVE",
"717 -29 CURVE SMOOTH"
);
}
);
width = 1233;
}
);
note = "\012\011cdotaccent\012  ";
unicode = 010B;
},
{
glyphname = d;
layers = (
{
layerId = "1D6BC6EA-621B-4B6F-A209-F2A632971314";
name = Regular;
paths = (
{
closed = 1;
nodes = (
"626 -29 OFFCURVE",
"685 -14 OFFCURVE",
"736 15 CURVE SMOOTH",
"791 46 OFFCURVE",
"827 88 OFFCURVE",
"858 141 CURVE",
"876 0 LINE",
"1042 0 LINE",
"1042 1556 LINE",
"858 1556 LINE",
"858 977 LINE",
"829 1032 OFFCURVE",
"788 1075 OFFCURVE",
"737 1104 CURVE SMOOTH",
"686 1133 OFFCURVE",
"627 1147 OFFCURVE",
"559 1147 CURVE SMOOTH",
"430 1147 OFFCURVE",
"318 1096 OFFCURVE",
"239 992 CURVE SMOOTH",
"160 888 OFFCURVE",
"123 739 OFFCURVE",
"123 562 CURVE SMOOTH",
"123 382 OFFCURVE",
"162 234 OFFCURVE",
"239 129 CURVE SMOOTH",
"311 30 OFFCURVE",
"418 -29 OFFCURVE",
"559 -29 CURVE SMOOTH"
);
},
{
closed = 1;
nodes = (
"501 127 OFFCURVE",
"432 160 OFFCURVE",
"385 236 CURVE SMOOTH",
"340 309 OFFCURVE",
"317 417 OFFCURVE",
"317 559 CURVE SMOOTH",
"317 701 OFFCURVE",
"340 809 OFFCURVE",
"385 882 CURVE SMOOTH",
"430 955 OFFCURVE",
"497 991 OFFCURVE",
"586 991 CURVE SMOOTH",
"681 991 OFFCURVE",
"746 950 OFFCURVE",
"789 882 CURVE SMOOTH",
"835 809 OFFCURVE",
"858 701 OFFCURVE",
"858 559 CURVE SMOOTH",
"858 417 OFFCURVE",
"835 310 OFFCURVE",
"789 237 CURVE SMOOTH",
"743 164 OFFCURVE",
"675 127 OFFCURVE",
"585 127 CURVE SMOOTH"
);
}
);
width = 1233;
}
);
note = "\012\011d\012  ";
unicode = 0064;
},
{
glyphname = eth;
layers = (
{
layerId = "1D6BC6EA-621B-4B6F-A209-F2A632971314";
name = Regular;
paths = (
{
closed = 1;
nodes = (
"766 -29 OFFCURVE",
"886 18 OFFCURVE",
"971 119 CURVE SMOOTH",
"1055 219 OFFCURVE",
"1096 357 OFFCURVE",
"1096 528 CURVE SMOOTH",
"1096 672 OFFCURVE",
"1066 797 OFFCURVE",
"1005 925 CURVE SMOOTH",
"944 1052 OFFCURVE",
"848 1186 OFFCURVE",
"717 1327 CURVE",
"967 1407 LINE",
"934 1505 LINE",
"645 1411 LINE",
"518 1556 LINE",
"299 1556 LINE",
"481 1356 LINE",
"244 1276 LINE",
"274 1178 LINE",
"553 1270 LINE",
"578 1241 OFFCURVE",
"603 1213 OFFCURVE",
"627 1182 CURVE",
"653 1151 OFFCURVE",
"688 1102 OFFCURVE",
"696 1092 CURVE",
"675 1095 OFFCURVE",
"692 1092 OFFCURVE",
"663 1095 CURVE",
"659 1095 OFFCURVE",
"655 1096 OFFCURVE",
"631 1096 CURVE SMOOTH",
"463 1096 OFFCURVE",
"345 1048 OFFCURVE",
"262 949 CURVE SMOOTH",
"179 850 OFFCURVE",
"137 709 OFFCURVE",
"137 533 CURVE SMOOTH",
"137 358 OFFCURVE",
"178 219 OFFCURVE",
"262 119 CURVE SMOOTH",
"345 22 OFFCURVE",
"462 -29 OFFCURVE",
"617 -29 CURVE SMOOTH"
);
},
{
closed = 1;
nodes = (
"525 127 OFFCURVE",
"455 162 OFFCURVE",
"406 233 CURVE SMOOTH",
"357 304 OFFCURVE",
"332 405 OFFCURVE",
"332 534 CURVE SMOOTH",
"332 663 OFFCURVE",
"357 768 OFFCURVE",
"409 840 CURVE SMOOTH",
"461 912 OFFCURVE",
"541 944 OFFCURVE",
"638 944 CURVE SMOOTH",
"663 944 OFFCURVE",
"690 942 OFFCURVE",
"717 938 CURVE SMOOTH",
"736 935 OFFCURVE",
"770 927 OFFCURVE",
"793 918 CURVE",
"826 871 OFFCURVE",
"853 815 OFFCURVE",
"872 747 CURVE SMOOTH",
"891 679 OFFCURVE",
"901 611 OFFCURVE",
"901 531 CURVE SMOOTH",
"901 406 OFFCURVE",
"876 305 OFFCURVE",
"827 233 CURVE SMOOTH",
"778 162 OFFCURVE",
"708 127 OFFCURVE",
"616 127 CURVE SMOOTH"
);
}
);
width = 1233;
}
);
note = "\012\011eth\012  ";
unicode = 00F0;
},
{
glyphname = dcaron;
layers = (
{
layerId = "1D6BC6EA-621B-4B6F-A209-F2A632971314";
name = Regular;
paths = (
{
closed = 1;
nodes = (
"1045 1181 LINE",
"1199 1181 LINE",
"1312 1557 LINE",
"1114 1557 LINE"
);
},
{
closed = 1;
nodes = (
"663 -29 OFFCURVE",
"767 29 OFFCURVE",
"828 141 CURVE",
"846 0 LINE",
"1012 0 LINE",
"1012 1556 LINE",
"828 1556 LINE",
"828 977 LINE",
"768 1089 OFFCURVE",
"666 1147 OFFCURVE",
"527 1147 CURVE SMOOTH",
"260 1147 OFFCURVE",
"93 927 OFFCURVE",
"93 561 CURVE SMOOTH",
"93 194 OFFCURVE",
"259 -29 OFFCURVE",
"526 -29 CURVE SMOOTH"
);
},
{
closed = 1;
nodes = (
"377 127 OFFCURVE",
"287 272 OFFCURVE",
"287 559 CURVE SMOOTH",
"287 846 OFFCURVE",
"377 991 OFFCURVE",
"556 991 CURVE SMOOTH",
"735 991 OFFCURVE",
"828 844 OFFCURVE",
"828 559 CURVE SMOOTH",
"828 274 OFFCURVE",
"735 127 OFFCURVE",
"556 127 CURVE SMOOTH"
);
}
);
width = 1233;
}
);
note = "\012\011dcaron\012  ";
unicode = 010F;
},
{
glyphname = dcroat;
layers = (
{
layerId = "1D6BC6EA-621B-4B6F-A209-F2A632971314";
name = Regular;
paths = (
{
closed = 1;
nodes = (
"626 -29 OFFCURVE",
"685 -14 OFFCURVE",
"736 15 CURVE SMOOTH",
"791 46 OFFCURVE",
"827 88 OFFCURVE",
"858 141 CURVE",
"876 0 LINE",
"1042 0 LINE",
"1042 1286 LINE",
"1233 1286 LINE",
"1233 1407 LINE",
"1042 1407 LINE",
"1042 1556 LINE",
"858 1556 LINE",
"858 1407 LINE",
"553 1407 LINE",
"553 1286 LINE",
"858 1286 LINE",
"858 977 LINE",
"829 1032 OFFCURVE",
"788 1075 OFFCURVE",
"737 1104 CURVE SMOOTH",
"686 1133 OFFCURVE",
"627 1147 OFFCURVE",
"559 1147 CURVE SMOOTH",
"430 1147 OFFCURVE",
"318 1096 OFFCURVE",
"239 992 CURVE SMOOTH",
"160 888 OFFCURVE",
"123 739 OFFCURVE",
"123 562 CURVE SMOOTH",
"123 382 OFFCURVE",
"162 234 OFFCURVE",
"239 129 CURVE SMOOTH",
"311 30 OFFCURVE",
"418 -29 OFFCURVE",
"559 -29 CURVE SMOOTH"
);
},
{
closed = 1;
nodes = (
"501 127 OFFCURVE",
"432 160 OFFCURVE",
"385 236 CURVE SMOOTH",
"340 309 OFFCURVE",
"317 417 OFFCURVE",
"317 559 CURVE SMOOTH",
"317 701 OFFCURVE",
"340 809 OFFCURVE",
"385 882 CURVE SMOOTH",
"430 955 OFFCURVE",
"497 991 OFFCURVE",
"586 991 CURVE SMOOTH",
"681 991 OFFCURVE",
"746 950 OFFCURVE",
"789 882 CURVE SMOOTH",
"835 809 OFFCURVE",
"858 701 OFFCURVE",
"858 559 CURVE SMOOTH",
"858 417 OFFCURVE",
"835 310 OFFCURVE",
"789 237 CURVE SMOOTH",
"743 164 OFFCURVE",
"675 127 OFFCURVE",
"585 127 CURVE SMOOTH"
);
}
);
width = 1233;
}
);
note = "\012\011dcroat\012  ";
unicode = 0111;
},
{
glyphname = e;
layers = (
{
layerId = "1D6BC6EA-621B-4B6F-A209-F2A632971314";
name = Regular;
paths = (
{
closed = 1;
nodes = (
"740 -29 OFFCURVE",
"804 -23 OFFCURVE",
"868 -8 CURVE SMOOTH",
"933 7 OFFCURVE",
"999 28 OFFCURVE",
"1070 57 CURVE",
"1070 240 LINE",
"998 203 OFFCURVE",
"930 174 OFFCURVE",
"865 155 CURVE SMOOTH",
"802 136 OFFCURVE",
"741 127 OFFCURVE",
"680 127 CURVE SMOOTH",
"559 127 OFFCURVE",
"473 163 OFFCURVE",
"412 227 CURVE SMOOTH",
"348 294 OFFCURVE",
"316 388 OFFCURVE",
"316 510 CURVE SMOOTH",
"316 516 LINE",
"1113 516 LINE",
"1113 606 LINE SMOOTH",
"1113 777 OFFCURVE",
"1070 910 OFFCURVE",
"990 1003 CURVE SMOOTH",
"910 1096 OFFCURVE",
"798 1147 OFFCURVE",
"649 1147 CURVE SMOOTH",
"498 1147 OFFCURVE",
"364 1095 OFFCURVE",
"267 987 CURVE SMOOTH",
"178 887 OFFCURVE",
"124 746 OFFCURVE",
"124 558 CURVE SMOOTH",
"124 375 OFFCURVE",
"175 230 OFFCURVE",
"271 127 CURVE SMOOTH",
"367 24 OFFCURVE",
"505 -29 OFFCURVE",
"677 -29 CURVE SMOOTH"
);
},
{
closed = 1;
nodes = (
"323 659 LINE",
"334 762 OFFCURVE",
"368 844 OFFCURVE",
"425 903 CURVE SMOOTH",
"482 962 OFFCURVE",
"555 991 OFFCURVE",
"645 991 CURVE SMOOTH",
"733 991 OFFCURVE",
"805 963 OFFCURVE",
"853 907 CURVE SMOOTH",
"897 856 OFFCURVE",
"926 775 OFFCURVE",
"929 660 CURVE"
);
}
);
width = 1233;
}
);
note = "\012\011e\012  ";
unicode = 0065;
},
{
glyphname = eacute;
layers = (
{
layerId = "1D6BC6EA-621B-4B6F-A209-F2A632971314";
name = Regular;
paths = (
{
closed = 1;
nodes = (
"490 1297 LINE",
"644 1297 LINE",
"969 1673 LINE",
"771 1673 LINE"
);
},
{
closed = 1;
nodes = (
"740 -29 OFFCURVE",
"804 -23 OFFCURVE",
"868 -8 CURVE SMOOTH",
"923 4 OFFCURVE",
"999 28 OFFCURVE",
"1070 57 CURVE",
"1070 240 LINE",
"998 203 OFFCURVE",
"930 174 OFFCURVE",
"865 155 CURVE SMOOTH",
"802 136 OFFCURVE",
"741 127 OFFCURVE",
"680 127 CURVE SMOOTH",
"559 127 OFFCURVE",
"473 163 OFFCURVE",
"412 227 CURVE SMOOTH",
"348 294 OFFCURVE",
"316 388 OFFCURVE",
"316 510 CURVE SMOOTH",
"316 516 LINE",
"1113 516 LINE",
"1113 606 LINE SMOOTH",
"1113 777 OFFCURVE",
"1070 910 OFFCURVE",
"990 1003 CURVE SMOOTH",
"910 1096 OFFCURVE",
"798 1147 OFFCURVE",
"649 1147 CURVE SMOOTH",
"498 1147 OFFCURVE",
"364 1095 OFFCURVE",
"267 987 CURVE SMOOTH",
"178 887 OFFCURVE",
"124 746 OFFCURVE",
"124 558 CURVE SMOOTH",
"124 375 OFFCURVE",
"175 230 OFFCURVE",
"271 127 CURVE SMOOTH",
"367 24 OFFCURVE",
"505 -29 OFFCURVE",
"677 -29 CURVE SMOOTH"
);
},
{
closed = 1;
nodes = (
"323 659 LINE",
"334 762 OFFCURVE",
"368 844 OFFCURVE",
"425 903 CURVE SMOOTH",
"482 962 OFFCURVE",
"555 991 OFFCURVE",
"645 991 CURVE SMOOTH",
"733 991 OFFCURVE",
"805 963 OFFCURVE",
"853 907 CURVE SMOOTH",
"897 856 OFFCURVE",
"926 775 OFFCURVE",
"929 660 CURVE"
);
}
);
width = 1233;
}
);
note = "\012\011eacute\012  ";
unicode = 00E9;
},
{
glyphname = ecaron;
layers = (
{
layerId = "1D6BC6EA-621B-4B6F-A209-F2A632971314";
name = Regular;
paths = (
{
closed = 1;
nodes = (
"579 1297 LINE",
"726 1297 LINE",
"972 1673 LINE",
"833 1673 LINE",
"652 1428 LINE",
"472 1673 LINE",
"333 1673 LINE"
);
},
{
closed = 1;
nodes = (
"802 -29 OFFCURVE",
"929 0 OFFCURVE",
"1070 57 CURVE",
"1070 240 LINE",
"925 164 OFFCURVE",
"800 127 OFFCURVE",
"680 127 CURVE SMOOTH",
"450 127 OFFCURVE",
"316 266 OFFCURVE",
"316 510 CURVE SMOOTH",
"316 516 LINE",
"1113 516 LINE",
"1113 606 LINE SMOOTH",
"1113 941 OFFCURVE",
"941 1147 OFFCURVE",
"645 1147 CURVE SMOOTH",
"333 1147 OFFCURVE",
"124 916 OFFCURVE",
"124 555 CURVE SMOOTH",
"124 195 OFFCURVE",
"330 -29 OFFCURVE",
"677 -29 CURVE SMOOTH"
);
},
{
closed = 1;
nodes = (
"323 659 LINE",
"346 871 OFFCURVE",
"466 991 OFFCURVE",
"647 991 CURVE SMOOTH",
"828 991 OFFCURVE",
"925 869 OFFCURVE",
"929 660 CURVE"
);
}
);
width = 1233;
}
);
note = "\012\011ecaron\012  ";
unicode = 011B;
},
{
glyphname = ecircumflex;
layers = (
{
layerId = "1D6BC6EA-621B-4B6F-A209-F2A632971314";
name = Regular;
paths = (
{
closed = 1;
nodes = (
"312 1297 LINE",
"451 1297 LINE",
"631 1542 LINE",
"812 1297 LINE",
"951 1297 LINE",
"705 1673 LINE",
"558 1673 LINE"
);
},
{
closed = 1;
nodes = (
"740 -29 OFFCURVE",
"804 -23 OFFCURVE",
"868 -8 CURVE SMOOTH",
"923 4 OFFCURVE",
"999 28 OFFCURVE",
"1070 57 CURVE",
"1070 240 LINE",
"998 203 OFFCURVE",
"930 174 OFFCURVE",
"865 155 CURVE SMOOTH",
"802 136 OFFCURVE",
"741 127 OFFCURVE",
"680 127 CURVE SMOOTH",
"559 127 OFFCURVE",
"473 163 OFFCURVE",
"412 227 CURVE SMOOTH",
"348 294 OFFCURVE",
"316 388 OFFCURVE",
"316 510 CURVE SMOOTH",
"316 516 LINE",
"1113 516 LINE",
"1113 606 LINE SMOOTH",
"1113 777 OFFCURVE",
"1070 910 OFFCURVE",
"990 1003 CURVE SMOOTH",
"910 1096 OFFCURVE",
"798 1147 OFFCURVE",
"649 1147 CURVE SMOOTH",
"498 1147 OFFCURVE",
"364 1095 OFFCURVE",
"267 987 CURVE SMOOTH",
"178 887 OFFCURVE",
"124 746 OFFCURVE",
"124 558 CURVE SMOOTH",
"124 375 OFFCURVE",
"175 230 OFFCURVE",
"271 127 CURVE SMOOTH",
"367 24 OFFCURVE",
"505 -29 OFFCURVE",
"677 -29 CURVE SMOOTH"
);
},
{
closed = 1;
nodes = (
"323 659 LINE",
"334 762 OFFCURVE",
"368 844 OFFCURVE",
"425 903 CURVE SMOOTH",
"482 962 OFFCURVE",
"555 991 OFFCURVE",
"645 991 CURVE SMOOTH",
"733 991 OFFCURVE",
"805 963 OFFCURVE",
"853 907 CURVE SMOOTH",
"897 856 OFFCURVE",
"926 775 OFFCURVE",
"929 660 CURVE"
);
}
);
width = 1233;
}
);
note = "\012\011ecircumflex\012  ";
unicode = 00EA;
},
{
glyphname = edieresis;
layers = (
{
layerId = "1D6BC6EA-621B-4B6F-A209-F2A632971314";
name = Regular;
paths = (
{
closed = 1;
nodes = (
"507 1348 LINE SMOOTH",
"527 1348 OFFCURVE",
"537 1358 OFFCURVE",
"537 1378 CURVE SMOOTH",
"537 1520 LINE SMOOTH",
"537 1540 OFFCURVE",
"527 1550 OFFCURVE",
"507 1550 CURVE SMOOTH",
"364 1550 LINE SMOOTH",
"344 1550 OFFCURVE",
"334 1540 OFFCURVE",
"334 1520 CURVE SMOOTH",
"334 1378 LINE SMOOTH",
"334 1358 OFFCURVE",
"344 1348 OFFCURVE",
"364 1348 CURVE SMOOTH"
);
},
{
closed = 1;
nodes = (
"898 1348 LINE SMOOTH",
"918 1348 OFFCURVE",
"928 1358 OFFCURVE",
"928 1378 CURVE SMOOTH",
"928 1520 LINE SMOOTH",
"928 1540 OFFCURVE",
"918 1550 OFFCURVE",
"898 1550 CURVE SMOOTH",
"756 1550 LINE SMOOTH",
"736 1550 OFFCURVE",
"726 1540 OFFCURVE",
"726 1520 CURVE SMOOTH",
"726 1378 LINE SMOOTH",
"726 1358 OFFCURVE",
"736 1348 OFFCURVE",
"756 1348 CURVE SMOOTH"
);
},
{
closed = 1;
nodes = (
"740 -29 OFFCURVE",
"804 -23 OFFCURVE",
"868 -8 CURVE SMOOTH",
"923 4 OFFCURVE",
"999 28 OFFCURVE",
"1070 57 CURVE",
"1070 240 LINE",
"998 203 OFFCURVE",
"930 174 OFFCURVE",
"865 155 CURVE SMOOTH",
"802 136 OFFCURVE",
"741 127 OFFCURVE",
"680 127 CURVE SMOOTH",
"559 127 OFFCURVE",
"473 163 OFFCURVE",
"412 227 CURVE SMOOTH",
"348 294 OFFCURVE",
"316 388 OFFCURVE",
"316 510 CURVE SMOOTH",
"316 516 LINE",
"1113 516 LINE",
"1113 606 LINE SMOOTH",
"1113 777 OFFCURVE",
"1070 910 OFFCURVE",
"990 1003 CURVE SMOOTH",
"910 1096 OFFCURVE",
"798 1147 OFFCURVE",
"649 1147 CURVE SMOOTH",
"498 1147 OFFCURVE",
"364 1095 OFFCURVE",
"267 987 CURVE SMOOTH",
"178 887 OFFCURVE",
"124 746 OFFCURVE",
"124 558 CURVE SMOOTH",
"124 375 OFFCURVE",
"175 230 OFFCURVE",
"271 127 CURVE SMOOTH",
"367 24 OFFCURVE",
"505 -29 OFFCURVE",
"677 -29 CURVE SMOOTH"
);
},
{
closed = 1;
nodes = (
"323 659 LINE",
"334 762 OFFCURVE",
"368 844 OFFCURVE",
"425 903 CURVE SMOOTH",
"482 962 OFFCURVE",
"555 991 OFFCURVE",
"645 991 CURVE SMOOTH",
"733 991 OFFCURVE",
"805 963 OFFCURVE",
"853 907 CURVE SMOOTH",
"897 856 OFFCURVE",
"926 775 OFFCURVE",
"929 660 CURVE"
);
}
);
width = 1233;
}
);
note = "\012\011edieresis\012  ";
unicode = 00EB;
},
{
glyphname = edotaccent;
layers = (
{
layerId = "1D6BC6EA-621B-4B6F-A209-F2A632971314";
name = Regular;
paths = (
{
closed = 1;
nodes = (
"703 1348 LINE SMOOTH",
"723 1348 OFFCURVE",
"733 1358 OFFCURVE",
"733 1378 CURVE SMOOTH",
"733 1522 LINE SMOOTH",
"733 1542 OFFCURVE",
"723 1552 OFFCURVE",
"703 1552 CURVE SMOOTH",
"558 1552 LINE SMOOTH",
"538 1552 OFFCURVE",
"528 1542 OFFCURVE",
"528 1522 CURVE SMOOTH",
"528 1378 LINE SMOOTH",
"528 1358 OFFCURVE",
"538 1348 OFFCURVE",
"558 1348 CURVE SMOOTH"
);
},
{
closed = 1;
nodes = (
"802 -29 OFFCURVE",
"929 0 OFFCURVE",
"1070 57 CURVE",
"1070 240 LINE",
"925 164 OFFCURVE",
"800 127 OFFCURVE",
"680 127 CURVE SMOOTH",
"450 127 OFFCURVE",
"316 266 OFFCURVE",
"316 510 CURVE SMOOTH",
"316 516 LINE",
"1113 516 LINE",
"1113 606 LINE SMOOTH",
"1113 941 OFFCURVE",
"941 1147 OFFCURVE",
"645 1147 CURVE SMOOTH",
"333 1147 OFFCURVE",
"124 916 OFFCURVE",
"124 555 CURVE SMOOTH",
"124 195 OFFCURVE",
"330 -29 OFFCURVE",
"677 -29 CURVE SMOOTH"
);
},
{
closed = 1;
nodes = (
"323 659 LINE",
"346 871 OFFCURVE",
"466 991 OFFCURVE",
"647 991 CURVE SMOOTH",
"828 991 OFFCURVE",
"925 869 OFFCURVE",
"929 660 CURVE"
);
}
);
width = 1233;
}
);
note = "\012\011edotaccent\012  ";
unicode = 0117;
},
{
glyphname = egrave;
layers = (
{
layerId = "1D6BC6EA-621B-4B6F-A209-F2A632971314";
name = Regular;
paths = (
{
closed = 1;
nodes = (
"619 1297 LINE",
"773 1297 LINE",
"492 1673 LINE",
"294 1673 LINE"
);
},
{
closed = 1;
nodes = (
"740 -29 OFFCURVE",
"804 -23 OFFCURVE",
"868 -8 CURVE SMOOTH",
"923 4 OFFCURVE",
"999 28 OFFCURVE",
"1070 57 CURVE",
"1070 240 LINE",
"998 203 OFFCURVE",
"930 174 OFFCURVE",
"865 155 CURVE SMOOTH",
"802 136 OFFCURVE",
"741 127 OFFCURVE",
"680 127 CURVE SMOOTH",
"559 127 OFFCURVE",
"473 163 OFFCURVE",
"412 227 CURVE SMOOTH",
"348 294 OFFCURVE",
"316 388 OFFCURVE",
"316 510 CURVE SMOOTH",
"316 516 LINE",
"1113 516 LINE",
"1113 606 LINE SMOOTH",
"1113 777 OFFCURVE",
"1070 910 OFFCURVE",
"990 1003 CURVE SMOOTH",
"910 1096 OFFCURVE",
"798 1147 OFFCURVE",
"649 1147 CURVE SMOOTH",
"498 1147 OFFCURVE",
"364 1095 OFFCURVE",
"267 987 CURVE SMOOTH",
"178 887 OFFCURVE",
"124 746 OFFCURVE",
"124 558 CURVE SMOOTH",
"124 375 OFFCURVE",
"175 230 OFFCURVE",
"271 127 CURVE SMOOTH",
"367 24 OFFCURVE",
"505 -29 OFFCURVE",
"677 -29 CURVE SMOOTH"
);
},
{
closed = 1;
nodes = (
"323 659 LINE",
"334 762 OFFCURVE",
"368 844 OFFCURVE",
"425 903 CURVE SMOOTH",
"482 962 OFFCURVE",
"555 991 OFFCURVE",
"645 991 CURVE SMOOTH",
"733 991 OFFCURVE",
"805 963 OFFCURVE",
"853 907 CURVE SMOOTH",
"897 856 OFFCURVE",
"926 775 OFFCURVE",
"929 660 CURVE"
);
}
);
width = 1233;
}
);
note = "\012\011egrave\012  ";
unicode = 00E8;
},
{
glyphname = emacron;
layers = (
{
layerId = "1D6BC6EA-621B-4B6F-A209-F2A632971314";
name = Regular;
paths = (
{
closed = 1;
nodes = (
"353 1348 LINE",
"951 1348 LINE",
"951 1496 LINE",
"353 1496 LINE"
);
},
{
closed = 1;
nodes = (
"802 -29 OFFCURVE",
"929 0 OFFCURVE",
"1070 57 CURVE",
"1070 240 LINE",
"925 164 OFFCURVE",
"800 127 OFFCURVE",
"680 127 CURVE SMOOTH",
"450 127 OFFCURVE",
"316 266 OFFCURVE",
"316 510 CURVE SMOOTH",
"316 516 LINE",
"1113 516 LINE",
"1113 606 LINE SMOOTH",
"1113 941 OFFCURVE",
"941 1147 OFFCURVE",
"645 1147 CURVE SMOOTH",
"333 1147 OFFCURVE",
"124 916 OFFCURVE",
"124 555 CURVE SMOOTH",
"124 195 OFFCURVE",
"330 -29 OFFCURVE",
"677 -29 CURVE SMOOTH"
);
},
{
closed = 1;
nodes = (
"323 659 LINE",
"346 871 OFFCURVE",
"466 991 OFFCURVE",
"647 991 CURVE SMOOTH",
"828 991 OFFCURVE",
"925 869 OFFCURVE",
"929 660 CURVE"
);
}
);
width = 1233;
}
);
note = "\012\011emacron\012  ";
unicode = 0113;
},
{
glyphname = eogonek;
layers = (
{
layerId = "1D6BC6EA-621B-4B6F-A209-F2A632971314";
name = Regular;
paths = (
{
closed = 1;
nodes = (
"1113 516 LINE",
"1113 606 LINE SMOOTH",
"1113 941 OFFCURVE",
"941 1147 OFFCURVE",
"645 1147 CURVE SMOOTH",
"333 1147 OFFCURVE",
"124 916 OFFCURVE",
"124 555 CURVE SMOOTH",
"124 195 OFFCURVE",
"330 -29 OFFCURVE",
"677 -29 CURVE SMOOTH",
"702 -29 OFFCURVE",
"727 -28 OFFCURVE",
"754 -25 CURVE",
"688 -104 OFFCURVE",
"667 -162 OFFCURVE",
"667 -221 CURVE SMOOTH",
"667 -340 OFFCURVE",
"748 -395 OFFCURVE",
"897 -395 CURVE SMOOTH",
"946 -395 OFFCURVE",
"984 -390 OFFCURVE",
"1040 -375 CURVE",
"1040 -242 LINE",
"999 -262 OFFCURVE",
"957 -272 OFFCURVE",
"916 -272 CURVE SMOOTH",
"844 -272 OFFCURVE",
"806 -240 OFFCURVE",
"806 -184 CURVE SMOOTH",
"806 -139 OFFCURVE",
"830 -88 OFFCURVE",
"893 -1 CURVE",
"950 14 OFFCURVE",
"1009 32 OFFCURVE",
"1070 57 CURVE",
"1070 240 LINE",
"925 164 OFFCURVE",
"800 127 OFFCURVE",
"680 127 CURVE SMOOTH",
"450 127 OFFCURVE",
"316 266 OFFCURVE",
"316 510 CURVE SMOOTH",
"316 516 LINE"
);
},
{
closed = 1;
nodes = (
"828 991 OFFCURVE",
"925 869 OFFCURVE",
"929 660 CURVE",
"323 659 LINE",
"346 871 OFFCURVE",
"466 991 OFFCURVE",
"647 991 CURVE SMOOTH"
);
}
);
width = 1233;
}
);
note = "\012\011eogonek\012  ";
unicode = 0119;
},
{
glyphname = f;
layers = (
{
layerId = "1D6BC6EA-621B-4B6F-A209-F2A632971314";
name = Regular;
paths = (
{
closed = 1;
nodes = (
"466 0 LINE",
"650 0 LINE",
"650 977 LINE",
"1035 977 LINE",
"1035 1120 LINE",
"650 1120 LINE",
"650 1219 LINE SMOOTH",
"650 1288 OFFCURVE",
"663 1336 OFFCURVE",
"689 1363 CURVE SMOOTH",
"713 1388 OFFCURVE",
"754 1403 OFFCURVE",
"826 1403 CURVE SMOOTH",
"1035 1403 LINE",
"1035 1556 LINE",
"814 1556 LINE SMOOTH",
"695 1556 OFFCURVE",
"607 1527 OFFCURVE",
"551 1469 CURVE SMOOTH",
"494 1412 OFFCURVE",
"466 1321 OFFCURVE",
"466 1198 CURVE SMOOTH",
"466 1120 LINE",
"167 1120 LINE",
"167 977 LINE",
"466 977 LINE"
);
}
);
width = 1233;
}
);
note = "\012\011f\012  ";
unicode = 0066;
},
{
glyphname = g;
layers = (
{
layerId = "1D6BC6EA-621B-4B6F-A209-F2A632971314";
name = Regular;
paths = (
{
closed = 1;
nodes = (
"756 -440 OFFCURVE",
"872 -397 OFFCURVE",
"951 -310 CURVE SMOOTH",
"1030 -223 OFFCURVE",
"1070 -95 OFFCURVE",
"1070 72 CURVE SMOOTH",
"1070 1116 LINE",
"904 1116 LINE",
"886 971 LINE",
"855 1030 OFFCURVE",
"815 1075 OFFCURVE",
"764 1104 CURVE SMOOTH",
"713 1133 OFFCURVE",
"652 1147 OFFCURVE",
"583 1147 CURVE SMOOTH",
"448 1147 OFFCURVE",
"347 1095 OFFCURVE",
"268 990 CURVE SMOOTH",
"190 885 OFFCURVE",
"151 744 OFFCURVE",
"151 569 CURVE SMOOTH",
"151 394 OFFCURVE",
"190 254 OFFCURVE",
"268 149 CURVE SMOOTH",
"346 44 OFFCURVE",
"451 -8 OFFCURVE",
"582 -8 CURVE SMOOTH",
"654 -8 OFFCURVE",
"715 7 OFFCURVE",
"766 38 CURVE SMOOTH",
"817 69 OFFCURVE",
"857 116 OFFCURVE",
"886 178 CURVE",
"886 45 LINE SMOOTH",
"886 -72 OFFCURVE",
"863 -158 OFFCURVE",
"818 -211 CURVE SMOOTH",
"771 -267 OFFCURVE",
"704 -293 OFFCURVE",
"605 -293 CURVE SMOOTH",
"556 -293 OFFCURVE",
"506 -286 OFFCURVE",
"454 -271 CURVE SMOOTH",
"403 -256 OFFCURVE",
"341 -234 OFFCURVE",
"276 -203 CURVE",
"276 -385 LINE",
"335 -404 OFFCURVE",
"387 -417 OFFCURVE",
"442 -426 CURVE SMOOTH",
"498 -435 OFFCURVE",
"549 -440 OFFCURVE",
"601 -440 CURVE SMOOTH"
);
},
{
closed = 1;
nodes = (
"533 145 OFFCURVE",
"465 181 OFFCURVE",
"417 254 CURVE SMOOTH",
"369 327 OFFCURVE",
"345 431 OFFCURVE",
"345 568 CURVE SMOOTH",
"345 707 OFFCURVE",
"369 813 OFFCURVE",
"416 884 CURVE SMOOTH",
"463 955 OFFCURVE",
"532 991 OFFCURVE",
"621 991 CURVE SMOOTH",
"704 991 OFFCURVE",
"772 960 OFFCURVE",
"819 884 CURVE SMOOTH",
"864 813 OFFCURVE",
"886 708 OFFCURVE",
"886 569 CURVE SMOOTH",
"886 432 OFFCURVE",
"864 327 OFFCURVE",
"819 254 CURVE SMOOTH",
"774 181 OFFCURVE",
"709 145 OFFCURVE",
"622 145 CURVE SMOOTH"
);
}
);
width = 1233;
}
);
note = "\012\011g\012  ";
unicode = 0067;
},
{
glyphname = gbreve;
layers = (
{
layerId = "1D6BC6EA-621B-4B6F-A209-F2A632971314";
name = Regular;
paths = (
{
closed = 1;
nodes = (
"740 1298 OFFCURVE",
"815 1322 OFFCURVE",
"868 1370 CURVE SMOOTH",
"921 1418 OFFCURVE",
"951 1490 OFFCURVE",
"958 1585 CURVE",
"839 1585 LINE",
"830 1535 OFFCURVE",
"810 1497 OFFCURVE",
"777 1472 CURVE SMOOTH",
"746 1447 OFFCURVE",
"701 1435 OFFCURVE",
"644 1435 CURVE SMOOTH",
"585 1435 OFFCURVE",
"540 1447 OFFCURVE",
"509 1472 CURVE SMOOTH",
"476 1497 OFFCURVE",
"457 1535 OFFCURVE",
"450 1585 CURVE",
"331 1585 LINE",
"338 1490 OFFCURVE",
"368 1418 OFFCURVE",
"421 1370 CURVE SMOOTH",
"474 1322 OFFCURVE",
"548 1298 OFFCURVE",
"644 1298 CURVE SMOOTH"
);
},
{
closed = 1;
nodes = (
"756 -440 OFFCURVE",
"872 -397 OFFCURVE",
"951 -310 CURVE SMOOTH",
"1030 -223 OFFCURVE",
"1070 -95 OFFCURVE",
"1070 72 CURVE SMOOTH",
"1070 1116 LINE",
"904 1116 LINE",
"886 971 LINE",
"855 1030 OFFCURVE",
"815 1075 OFFCURVE",
"764 1104 CURVE SMOOTH",
"713 1133 OFFCURVE",
"652 1147 OFFCURVE",
"583 1147 CURVE SMOOTH",
"448 1147 OFFCURVE",
"347 1095 OFFCURVE",
"268 990 CURVE SMOOTH",
"190 885 OFFCURVE",
"151 744 OFFCURVE",
"151 569 CURVE SMOOTH",
"151 394 OFFCURVE",
"190 254 OFFCURVE",
"268 149 CURVE SMOOTH",
"346 44 OFFCURVE",
"451 -8 OFFCURVE",
"582 -8 CURVE SMOOTH",
"654 -8 OFFCURVE",
"715 7 OFFCURVE",
"766 38 CURVE SMOOTH",
"817 69 OFFCURVE",
"857 116 OFFCURVE",
"886 178 CURVE",
"886 45 LINE SMOOTH",
"886 -79 OFFCURVE",
"862 -158 OFFCURVE",
"818 -211 CURVE SMOOTH",
"771 -267 OFFCURVE",
"704 -293 OFFCURVE",
"605 -293 CURVE SMOOTH",
"556 -293 OFFCURVE",
"506 -286 OFFCURVE",
"454 -271 CURVE SMOOTH",
"403 -256 OFFCURVE",
"341 -234 OFFCURVE",
"276 -203 CURVE",
"276 -385 LINE",
"335 -404 OFFCURVE",
"387 -417 OFFCURVE",
"442 -426 CURVE SMOOTH",
"498 -435 OFFCURVE",
"549 -440 OFFCURVE",
"601 -440 CURVE SMOOTH"
);
},
{
closed = 1;
nodes = (
"533 145 OFFCURVE",
"465 181 OFFCURVE",
"417 254 CURVE SMOOTH",
"369 327 OFFCURVE",
"345 431 OFFCURVE",
"345 568 CURVE SMOOTH",
"345 707 OFFCURVE",
"369 813 OFFCURVE",
"416 884 CURVE SMOOTH",
"463 955 OFFCURVE",
"532 991 OFFCURVE",
"621 991 CURVE SMOOTH",
"704 991 OFFCURVE",
"772 960 OFFCURVE",
"819 884 CURVE SMOOTH",
"864 813 OFFCURVE",
"886 708 OFFCURVE",
"886 569 CURVE SMOOTH",
"886 432 OFFCURVE",
"864 327 OFFCURVE",
"819 254 CURVE SMOOTH",
"774 181 OFFCURVE",
"709 145 OFFCURVE",
"622 145 CURVE SMOOTH"
);
}
);
width = 1233;
}
);
note = "\012\011gbreve\012  ";
unicode = 011F;
},
{
glyphname = gcaron;
layers = (
{
layerId = "1D6BC6EA-621B-4B6F-A209-F2A632971314";
name = Regular;
paths = (
{
closed = 1;
nodes = (
"571 1297 LINE",
"718 1297 LINE",
"964 1673 LINE",
"825 1673 LINE",
"644 1428 LINE",
"464 1673 LINE",
"325 1673 LINE"
);
},
{
closed = 1;
nodes = (
"910 -440 OFFCURVE",
"1070 -267 OFFCURVE",
"1070 72 CURVE SMOOTH",
"1070 1116 LINE",
"904 1116 LINE",
"886 971 LINE",
"825 1090 OFFCURVE",
"723 1147 OFFCURVE",
"586 1147 CURVE SMOOTH",
"317 1147 OFFCURVE",
"151 921 OFFCURVE",
"151 570 CURVE SMOOTH",
"151 218 OFFCURVE",
"318 -8 OFFCURVE",
"585 -8 CURVE SMOOTH",
"730 -8 OFFCURVE",
"830 57 OFFCURVE",
"886 178 CURVE",
"886 45 LINE SMOOTH",
"886 -186 OFFCURVE",
"800 -293 OFFCURVE",
"607 -293 CURVE SMOOTH",
"509 -293 OFFCURVE",
"410 -265 OFFCURVE",
"276 -203 CURVE",
"276 -385 LINE",
"388 -421 OFFCURVE",
"500 -440 OFFCURVE",
"601 -440 CURVE SMOOTH"
);
},
{
closed = 1;
nodes = (
"444 145 OFFCURVE",
"345 291 OFFCURVE",
"345 570 CURVE SMOOTH",
"345 847 OFFCURVE",
"443 991 OFFCURVE",
"619 991 CURVE SMOOTH",
"796 991 OFFCURVE",
"886 846 OFFCURVE",
"886 569 CURVE SMOOTH",
"886 292 OFFCURVE",
"796 145 OFFCURVE",
"620 145 CURVE SMOOTH"
);
}
);
width = 1233;
}
);
note = "\012\011gcaron\012  ";
unicode = 01E7;
},
{
glyphname = uni0123;
layers = (
{
layerId = "1D6BC6EA-621B-4B6F-A209-F2A632971314";
name = Regular;
paths = (
{
closed = 1;
nodes = (
"514 1297 LINE",
"753 1297 LINE",
"847 1642 LINE",
"701 1642 LINE"
);
},
{
closed = 1;
nodes = (
"910 -440 OFFCURVE",
"1070 -267 OFFCURVE",
"1070 72 CURVE SMOOTH",
"1070 1116 LINE",
"904 1116 LINE",
"886 971 LINE",
"825 1090 OFFCURVE",
"723 1147 OFFCURVE",
"586 1147 CURVE SMOOTH",
"317 1147 OFFCURVE",
"151 921 OFFCURVE",
"151 570 CURVE SMOOTH",
"151 218 OFFCURVE",
"318 -8 OFFCURVE",
"585 -8 CURVE SMOOTH",
"730 -8 OFFCURVE",
"830 57 OFFCURVE",
"886 178 CURVE",
"886 45 LINE SMOOTH",
"886 -186 OFFCURVE",
"800 -293 OFFCURVE",
"607 -293 CURVE SMOOTH",
"509 -293 OFFCURVE",
"410 -265 OFFCURVE",
"276 -203 CURVE",
"276 -385 LINE",
"388 -421 OFFCURVE",
"500 -440 OFFCURVE",
"601 -440 CURVE SMOOTH"
);
},
{
closed = 1;
nodes = (
"444 145 OFFCURVE",
"345 291 OFFCURVE",
"345 570 CURVE SMOOTH",
"345 847 OFFCURVE",
"443 991 OFFCURVE",
"619 991 CURVE SMOOTH",
"796 991 OFFCURVE",
"886 846 OFFCURVE",
"886 569 CURVE SMOOTH",
"886 292 OFFCURVE",
"796 145 OFFCURVE",
"620 145 CURVE SMOOTH"
);
}
);
width = 1233;
}
);
note = "\012\011uni0123\012  ";
unicode = 0123;
},
{
glyphname = gdotaccent;
layers = (
{
layerId = "1D6BC6EA-621B-4B6F-A209-F2A632971314";
name = Regular;
paths = (
{
closed = 1;
nodes = (
"716 1348 LINE SMOOTH",
"736 1348 OFFCURVE",
"746 1358 OFFCURVE",
"746 1378 CURVE SMOOTH",
"746 1522 LINE SMOOTH",
"746 1542 OFFCURVE",
"736 1552 OFFCURVE",
"716 1552 CURVE SMOOTH",
"571 1552 LINE SMOOTH",
"551 1552 OFFCURVE",
"541 1542 OFFCURVE",
"541 1522 CURVE SMOOTH",
"541 1378 LINE SMOOTH",
"541 1358 OFFCURVE",
"551 1348 OFFCURVE",
"571 1348 CURVE SMOOTH"
);
},
{
closed = 1;
nodes = (
"910 -440 OFFCURVE",
"1070 -267 OFFCURVE",
"1070 72 CURVE SMOOTH",
"1070 1116 LINE",
"904 1116 LINE",
"886 971 LINE",
"825 1090 OFFCURVE",
"723 1147 OFFCURVE",
"586 1147 CURVE SMOOTH",
"317 1147 OFFCURVE",
"151 921 OFFCURVE",
"151 570 CURVE SMOOTH",
"151 218 OFFCURVE",
"318 -8 OFFCURVE",
"585 -8 CURVE SMOOTH",
"730 -8 OFFCURVE",
"830 57 OFFCURVE",
"886 178 CURVE",
"886 45 LINE SMOOTH",
"886 -186 OFFCURVE",
"800 -293 OFFCURVE",
"607 -293 CURVE SMOOTH",
"509 -293 OFFCURVE",
"410 -265 OFFCURVE",
"276 -203 CURVE",
"276 -385 LINE",
"388 -421 OFFCURVE",
"500 -440 OFFCURVE",
"601 -440 CURVE SMOOTH"
);
},
{
closed = 1;
nodes = (
"444 145 OFFCURVE",
"345 291 OFFCURVE",
"345 570 CURVE SMOOTH",
"345 847 OFFCURVE",
"443 991 OFFCURVE",
"619 991 CURVE SMOOTH",
"796 991 OFFCURVE",
"886 846 OFFCURVE",
"886 569 CURVE SMOOTH",
"886 292 OFFCURVE",
"796 145 OFFCURVE",
"620 145 CURVE SMOOTH"
);
}
);
width = 1233;
}
);
note = "\012\011gdotaccent\012  ";
unicode = 0121;
},
{
glyphname = h;
layers = (
{
layerId = "1D6BC6EA-621B-4B6F-A209-F2A632971314";
name = Regular;
paths = (
{
closed = 1;
nodes = (
"195 0 LINE",
"379 0 LINE",
"379 633 LINE SMOOTH",
"379 748 OFFCURVE",
"402 835 OFFCURVE",
"449 896 CURVE SMOOTH",
"494 956 OFFCURVE",
"558 987 OFFCURVE",
"646 987 CURVE SMOOTH",
"722 987 OFFCURVE",
"778 963 OFFCURVE",
"813 916 CURVE SMOOTH",
"848 869 OFFCURVE",
"866 795 OFFCURVE",
"866 694 CURVE SMOOTH",
"866 0 LINE",
"1051 0 LINE",
"1051 694 LINE SMOOTH",
"1051 846 OFFCURVE",
"1023 960 OFFCURVE",
"967 1035 CURVE SMOOTH",
"912 1107 OFFCURVE",
"830 1147 OFFCURVE",
"710 1147 CURVE SMOOTH",
"633 1147 OFFCURVE",
"567 1131 OFFCURVE",
"512 1098 CURVE SMOOTH",
"457 1065 OFFCURVE",
"412 1017 OFFCURVE",
"379 952 CURVE",
"379 1556 LINE",
"195 1556 LINE"
);
}
);
width = 1233;
}
);
note = "\012\011h\012  ";
unicode = 0068;
},
{
glyphname = hbar;
layers = (
{
layerId = "1D6BC6EA-621B-4B6F-A209-F2A632971314";
name = Regular;
paths = (
{
closed = 1;
nodes = (
"195 0 LINE",
"379 0 LINE",
"379 633 LINE SMOOTH",
"379 862 OFFCURVE",
"473 987 OFFCURVE",
"648 987 CURVE SMOOTH",
"799 987 OFFCURVE",
"866 895 OFFCURVE",
"866 694 CURVE SMOOTH",
"866 0 LINE",
"1051 0 LINE",
"1051 694 LINE SMOOTH",
"1051 999 OFFCURVE",
"940 1147 OFFCURVE",
"711 1147 CURVE SMOOTH",
"558 1147 OFFCURVE",
"444 1081 OFFCURVE",
"379 952 CURVE",
"379 1270 LINE",
"732 1270 LINE",
"732 1434 LINE",
"379 1434 LINE",
"379 1556 LINE",
"195 1556 LINE",
"195 1434 LINE",
"70 1434 LINE",
"70 1270 LINE",
"195 1270 LINE"
);
}
);
width = 1233;
}
);
note = "\012\011hbar\012  ";
unicode = 0127;
},
{
glyphname = i;
layers = (
{
layerId = "1D6BC6EA-621B-4B6F-A209-F2A632971314";
name = Regular;
paths = (
{
closed = 1;
nodes = (
"667 1323 LINE SMOOTH",
"687 1323 OFFCURVE",
"697 1333 OFFCURVE",
"697 1353 CURVE SMOOTH",
"697 1526 LINE SMOOTH",
"697 1546 OFFCURVE",
"687 1556 OFFCURVE",
"667 1556 CURVE SMOOTH",
"523 1556 LINE SMOOTH",
"503 1556 OFFCURVE",
"493 1546 OFFCURVE",
"493 1526 CURVE SMOOTH",
"493 1353 LINE SMOOTH",
"493 1333 OFFCURVE",
"503 1323 OFFCURVE",
"523 1323 CURVE SMOOTH"
);
},
{
closed = 1;
nodes = (
"1092 -8 LINE",
"1092 148 LINE",
"877 148 LINE SMOOTH",
"820 148 OFFCURVE",
"775 167 OFFCURVE",
"743 211 CURVE SMOOTH",
"712 252 OFFCURVE",
"697 315 OFFCURVE",
"697 398 CURVE SMOOTH",
"697 1120 LINE",
"268 1120 LINE",
"268 976 LINE",
"513 976 LINE",
"513 398 LINE SMOOTH",
"513 269 OFFCURVE",
"543 169 OFFCURVE",
"604 98 CURVE SMOOTH",
"668 23 OFFCURVE",
"752 -8 OFFCURVE",
"859 -8 CURVE SMOOTH"
);
}
);
width = 1233;
}
);
note = "\012\011i\012  ";
unicode = 0069;
},
{
glyphname = dotlessi;
layers = (
{
layerId = "1D6BC6EA-621B-4B6F-A209-F2A632971314";
name = Regular;
paths = (
{
closed = 1;
nodes = (
"1092 -8 LINE",
"1092 148 LINE",
"877 148 LINE SMOOTH",
"820 148 OFFCURVE",
"775 167 OFFCURVE",
"743 211 CURVE SMOOTH",
"712 252 OFFCURVE",
"697 315 OFFCURVE",
"697 398 CURVE SMOOTH",
"697 1120 LINE",
"268 1120 LINE",
"268 976 LINE",
"513 976 LINE",
"513 398 LINE SMOOTH",
"513 269 OFFCURVE",
"543 169 OFFCURVE",
"604 98 CURVE SMOOTH",
"668 23 OFFCURVE",
"752 -8 OFFCURVE",
"859 -8 CURVE SMOOTH"
);
}
);
width = 1233;
}
);
note = "\012\011dotlessi\012  ";
unicode = 0131;
},
{
glyphname = iacute;
layers = (
{
layerId = "1D6BC6EA-621B-4B6F-A209-F2A632971314";
name = Regular;
paths = (
{
closed = 1;
nodes = (
"513 1271 LINE",
"667 1271 LINE",
"992 1647 LINE",
"794 1647 LINE"
);
},
{
closed = 1;
nodes = (
"1092 -8 LINE",
"1092 148 LINE",
"877 148 LINE SMOOTH",
"820 148 OFFCURVE",
"775 167 OFFCURVE",
"743 211 CURVE SMOOTH",
"712 252 OFFCURVE",
"697 315 OFFCURVE",
"697 398 CURVE SMOOTH",
"697 1120 LINE",
"268 1120 LINE",
"268 976 LINE",
"513 976 LINE",
"513 398 LINE SMOOTH",
"513 269 OFFCURVE",
"543 169 OFFCURVE",
"604 98 CURVE SMOOTH",
"668 23 OFFCURVE",
"752 -8 OFFCURVE",
"859 -8 CURVE SMOOTH"
);
}
);
width = 1233;
}
);
note = "\012\011iacute\012  ";
unicode = 00ED;
},
{
glyphname = icircumflex;
layers = (
{
layerId = "1D6BC6EA-621B-4B6F-A209-F2A632971314";
name = Regular;
paths = (
{
closed = 1;
nodes = (
"268 1272 LINE",
"407 1272 LINE",
"587 1517 LINE",
"768 1272 LINE",
"907 1272 LINE",
"661 1648 LINE",
"514 1648 LINE"
);
},
{
closed = 1;
nodes = (
"1092 -8 LINE",
"1092 148 LINE",
"877 148 LINE SMOOTH",
"820 148 OFFCURVE",
"775 167 OFFCURVE",
"743 211 CURVE SMOOTH",
"712 252 OFFCURVE",
"697 315 OFFCURVE",
"697 398 CURVE SMOOTH",
"697 1120 LINE",
"268 1120 LINE",
"268 976 LINE",
"513 976 LINE",
"513 398 LINE SMOOTH",
"513 269 OFFCURVE",
"543 169 OFFCURVE",
"604 98 CURVE SMOOTH",
"668 23 OFFCURVE",
"752 -8 OFFCURVE",
"859 -8 CURVE SMOOTH"
);
}
);
width = 1233;
}
);
note = "\012\011icircumflex\012  ";
unicode = 00EE;
},
{
glyphname = idieresis;
layers = (
{
layerId = "1D6BC6EA-621B-4B6F-A209-F2A632971314";
name = Regular;
paths = (
{
closed = 1;
nodes = (
"471 1320 LINE SMOOTH",
"491 1320 OFFCURVE",
"501 1330 OFFCURVE",
"501 1350 CURVE SMOOTH",
"501 1492 LINE SMOOTH",
"501 1512 OFFCURVE",
"491 1522 OFFCURVE",
"471 1522 CURVE SMOOTH",
"328 1522 LINE SMOOTH",
"308 1522 OFFCURVE",
"298 1512 OFFCURVE",
"298 1492 CURVE SMOOTH",
"298 1350 LINE SMOOTH",
"298 1330 OFFCURVE",
"308 1320 OFFCURVE",
"328 1320 CURVE SMOOTH"
);
},
{
closed = 1;
nodes = (
"862 1320 LINE SMOOTH",
"882 1320 OFFCURVE",
"892 1330 OFFCURVE",
"892 1350 CURVE SMOOTH",
"892 1492 LINE SMOOTH",
"892 1512 OFFCURVE",
"882 1522 OFFCURVE",
"862 1522 CURVE SMOOTH",
"720 1522 LINE SMOOTH",
"700 1522 OFFCURVE",
"690 1512 OFFCURVE",
"690 1492 CURVE SMOOTH",
"690 1350 LINE SMOOTH",
"690 1330 OFFCURVE",
"700 1320 OFFCURVE",
"720 1320 CURVE SMOOTH"
);
},
{
closed = 1;
nodes = (
"1092 -8 LINE",
"1092 148 LINE",
"877 148 LINE SMOOTH",
"820 148 OFFCURVE",
"775 167 OFFCURVE",
"743 211 CURVE SMOOTH",
"712 252 OFFCURVE",
"697 315 OFFCURVE",
"697 398 CURVE SMOOTH",
"697 1120 LINE",
"268 1120 LINE",
"268 976 LINE",
"513 976 LINE",
"513 398 LINE SMOOTH",
"513 269 OFFCURVE",
"543 169 OFFCURVE",
"604 98 CURVE SMOOTH",
"668 23 OFFCURVE",
"752 -8 OFFCURVE",
"859 -8 CURVE SMOOTH"
);
}
);
width = 1233;
}
);
note = "\012\011idieresis\012  ";
unicode = 00EF;
},
{
glyphname = igrave;
layers = (
{
layerId = "1D6BC6EA-621B-4B6F-A209-F2A632971314";
name = Regular;
paths = (
{
closed = 1;
nodes = (
"543 1271 LINE",
"697 1271 LINE",
"416 1647 LINE",
"218 1647 LINE"
);
},
{
closed = 1;
nodes = (
"1092 -8 LINE",
"1092 148 LINE",
"877 148 LINE SMOOTH",
"820 148 OFFCURVE",
"775 167 OFFCURVE",
"743 211 CURVE SMOOTH",
"712 252 OFFCURVE",
"697 315 OFFCURVE",
"697 398 CURVE SMOOTH",
"697 1120 LINE",
"268 1120 LINE",
"268 976 LINE",
"513 976 LINE",
"513 398 LINE SMOOTH",
"513 269 OFFCURVE",
"543 169 OFFCURVE",
"604 98 CURVE SMOOTH",
"668 23 OFFCURVE",
"752 -8 OFFCURVE",
"859 -8 CURVE SMOOTH"
);
}
);
width = 1233;
}
);
note = "\012\011igrave\012  ";
unicode = 00EC;
},
{
glyphname = imacron;
layers = (
{
layerId = "1D6BC6EA-621B-4B6F-A209-F2A632971314";
name = Regular;
paths = (
{
closed = 1;
nodes = (
"268 1320 LINE",
"866 1320 LINE",
"866 1468 LINE",
"268 1468 LINE"
);
},
{
closed = 1;
nodes = (
"1092 -8 LINE",
"1092 148 LINE",
"877 148 LINE SMOOTH",
"820 148 OFFCURVE",
"775 167 OFFCURVE",
"743 211 CURVE SMOOTH",
"712 252 OFFCURVE",
"697 315 OFFCURVE",
"697 398 CURVE SMOOTH",
"697 1120 LINE",
"268 1120 LINE",
"268 976 LINE",
"513 976 LINE",
"513 398 LINE SMOOTH",
"513 269 OFFCURVE",
"543 169 OFFCURVE",
"604 98 CURVE SMOOTH",
"668 23 OFFCURVE",
"752 -8 OFFCURVE",
"859 -8 CURVE SMOOTH"
);
}
);
width = 1233;
}
);
note = "\012\011imacron\012  ";
unicode = 012B;
},
{
glyphname = iogonek;
layers = (
{
layerId = "1D6BC6EA-621B-4B6F-A209-F2A632971314";
name = Regular;
paths = (
{
closed = 1;
nodes = (
"664 1323 LINE SMOOTH",
"686 1323 OFFCURVE",
"697 1333 OFFCURVE",
"697 1353 CURVE SMOOTH",
"697 1526 LINE SMOOTH",
"697 1546 OFFCURVE",
"686 1556 OFFCURVE",
"664 1556 CURVE SMOOTH",
"526 1556 LINE SMOOTH",
"504 1556 OFFCURVE",
"493 1546 OFFCURVE",
"493 1526 CURVE SMOOTH",
"493 1353 LINE SMOOTH",
"493 1333 OFFCURVE",
"504 1323 OFFCURVE",
"526 1323 CURVE SMOOTH"
);
},
{
closed = 1;
nodes = (
"900 -261 OFFCURVE",
"862 -229 OFFCURVE",
"862 -173 CURVE SMOOTH",
"862 -130 OFFCURVE",
"883 -84 OFFCURVE",
"936 -8 CURVE",
"1092 -8 LINE",
"1092 148 LINE",
"877 148 LINE SMOOTH",
"820 148 OFFCURVE",
"775 167 OFFCURVE",
"743 211 CURVE SMOOTH",
"712 252 OFFCURVE",
"697 315 OFFCURVE",
"697 398 CURVE SMOOTH",
"697 1120 LINE",
"268 1120 LINE",
"268 976 LINE",
"513 976 LINE",
"513 398 LINE SMOOTH",
"513 269 OFFCURVE",
"543 169 OFFCURVE",
"604 98 CURVE SMOOTH",
"659 34 OFFCURVE",
"729 2 OFFCURVE",
"816 -6 CURVE",
"746 -92 OFFCURVE",
"723 -147 OFFCURVE",
"723 -210 CURVE SMOOTH",
"723 -329 OFFCURVE",
"804 -384 OFFCURVE",
"953 -384 CURVE SMOOTH",
"1002 -384 OFFCURVE",
"1040 -379 OFFCURVE",
"1096 -364 CURVE",
"1096 -231 LINE",
"1055 -251 OFFCURVE",
"1013 -261 OFFCURVE",
"972 -261 CURVE SMOOTH"
);
}
);
width = 1233;
}
);
note = "\012\011iogonek\012  ";
unicode = 012F;
},
{
glyphname = itilde;
layers = (
{
layerId = "1D6BC6EA-621B-4B6F-A209-F2A632971314";
name = Regular;
paths = (
{
closed = 1;
nodes = (
"392 1259 LINE",
"393 1312 OFFCURVE",
"399 1351 OFFCURVE",
"412 1377 CURVE SMOOTH",
"424 1402 OFFCURVE",
"443 1414 OFFCURVE",
"466 1414 CURVE SMOOTH",
"489 1414 OFFCURVE",
"508 1402 OFFCURVE",
"536 1375 CURVE SMOOTH",
"593 1320 LINE",
"642 1276 OFFCURVE",
"681 1259 OFFCURVE",
"732 1259 CURVE SMOOTH",
"857 1259 OFFCURVE",
"927 1367 OFFCURVE",
"927 1541 CURVE",
"802 1541 LINE",
"801 1486 OFFCURVE",
"794 1447 OFFCURVE",
"783 1423 CURVE SMOOTH",
"771 1398 OFFCURVE",
"752 1386 OFFCURVE",
"729 1386 CURVE SMOOTH",
"710 1386 OFFCURVE",
"691 1394 OFFCURVE",
"659 1425 CURVE SMOOTH",
"602 1480 LINE",
"553 1524 OFFCURVE",
"514 1541 OFFCURVE",
"463 1541 CURVE SMOOTH",
"338 1541 OFFCURVE",
"268 1433 OFFCURVE",
"268 1259 CURVE"
);
},
{
closed = 1;
nodes = (
"1092 -8 LINE",
"1092 148 LINE",
"877 148 LINE SMOOTH",
"820 148 OFFCURVE",
"775 167 OFFCURVE",
"743 211 CURVE SMOOTH",
"712 252 OFFCURVE",
"697 315 OFFCURVE",
"697 398 CURVE SMOOTH",
"697 1120 LINE",
"268 1120 LINE",
"268 976 LINE",
"513 976 LINE",
"513 398 LINE SMOOTH",
"513 269 OFFCURVE",
"543 169 OFFCURVE",
"604 98 CURVE SMOOTH",
"668 23 OFFCURVE",
"752 -8 OFFCURVE",
"859 -8 CURVE SMOOTH"
);
}
);
width = 1233;
}
);
note = "\012\011itilde\012  ";
unicode = 0129;
},
{
glyphname = j;
layers = (
{
layerId = "1D6BC6EA-621B-4B6F-A209-F2A632971314";
name = Regular;
paths = (
{
closed = 1;
nodes = (
"796 1323 LINE SMOOTH",
"816 1323 OFFCURVE",
"826 1333 OFFCURVE",
"826 1353 CURVE SMOOTH",
"826 1526 LINE SMOOTH",
"826 1546 OFFCURVE",
"816 1556 OFFCURVE",
"796 1556 CURVE SMOOTH",
"652 1556 LINE SMOOTH",
"632 1556 OFFCURVE",
"622 1546 OFFCURVE",
"622 1526 CURVE SMOOTH",
"622 1353 LINE SMOOTH",
"622 1333 OFFCURVE",
"632 1323 OFFCURVE",
"652 1323 CURVE SMOOTH"
);
},
{
closed = 1;
nodes = (
"238 -426 LINE",
"492 -426 LINE SMOOTH",
"600 -426 OFFCURVE",
"687 -393 OFFCURVE",
"747 -321 CURVE SMOOTH",
"807 -249 OFFCURVE",
"836 -147 OFFCURVE",
"836 -20 CURVE SMOOTH",
"836 1120 LINE",
"335 1120 LINE",
"335 977 LINE",
"652 977 LINE",
"652 -20 LINE SMOOTH",
"652 -103 OFFCURVE",
"637 -166 OFFCURVE",
"607 -208 CURVE SMOOTH",
"577 -249 OFFCURVE",
"532 -270 OFFCURVE",
"472 -270 CURVE SMOOTH",
"238 -270 LINE"
);
}
);
width = 1233;
}
);
note = "\012\011j\012  ";
unicode = 006A;
},
{
glyphname = k;
layers = (
{
layerId = "1D6BC6EA-621B-4B6F-A209-F2A632971314";
name = Regular;
paths = (
{
closed = 1;
nodes = (
"226 0 LINE",
"416 0 LINE",
"416 449 LINE",
"553 578 LINE",
"967 0 LINE",
"1192 0 LINE",
"682 698 LINE",
"1123 1120 LINE",
"899 1120 LINE",
"416 655 LINE",
"416 1556 LINE",
"226 1556 LINE"
);
}
);
width = 1233;
}
);
note = "\012\011k\012  ";
unicode = 006B;
},
{
glyphname = uni0137;
layers = (
{
layerId = "1D6BC6EA-621B-4B6F-A209-F2A632971314";
name = Regular;
paths = (
{
closed = 1;
nodes = (
"226 0 LINE",
"416 0 LINE",
"416 449 LINE",
"553 578 LINE",
"967 0 LINE",
"1192 0 LINE",
"682 698 LINE",
"1123 1120 LINE",
"899 1120 LINE",
"416 655 LINE",
"416 1556 LINE",
"226 1556 LINE"
);
},
{
closed = 1;
nodes = (
"532 -544 LINE",
"678 -544 LINE",
"865 -199 LINE",
"626 -199 LINE"
);
}
);
width = 1233;
}
);
note = "\012\011uni0137\012  ";
unicode = 0137;
},
{
glyphname = l;
layers = (
{
layerId = "1D6BC6EA-621B-4B6F-A209-F2A632971314";
name = Regular;
paths = (
{
closed = 1;
nodes = (
"1054 -8 LINE",
"1054 148 LINE",
"839 148 LINE SMOOTH",
"782 148 OFFCURVE",
"737 167 OFFCURVE",
"705 211 CURVE SMOOTH",
"674 252 OFFCURVE",
"659 315 OFFCURVE",
"659 398 CURVE SMOOTH",
"659 1556 LINE",
"180 1556 LINE",
"180 1412 LINE",
"475 1412 LINE",
"475 398 LINE SMOOTH",
"475 269 OFFCURVE",
"505 169 OFFCURVE",
"566 98 CURVE SMOOTH",
"630 23 OFFCURVE",
"714 -8 OFFCURVE",
"821 -8 CURVE SMOOTH"
);
}
);
width = 1233;
}
);
note = "\012\011l\012  ";
unicode = 006C;
},
{
glyphname = lacute;
layers = (
{
layerId = "1D6BC6EA-621B-4B6F-A209-F2A632971314";
name = Regular;
paths = (
{
closed = 1;
nodes = (
"380 1616 LINE",
"534 1616 LINE",
"763 1880 LINE",
"577 1880 LINE"
);
},
{
closed = 1;
nodes = (
"1034 -8 LINE",
"1034 148 LINE",
"819 148 LINE SMOOTH",
"699 148 OFFCURVE",
"639 231 OFFCURVE",
"639 398 CURVE SMOOTH",
"639 1556 LINE",
"160 1556 LINE",
"160 1412 LINE",
"455 1412 LINE",
"455 398 LINE SMOOTH",
"455 138 OFFCURVE",
"580 -8 OFFCURVE",
"801 -8 CURVE SMOOTH"
);
}
);
width = 1233;
}
);
note = "\012\011lacute\012  ";
unicode = 013A;
},
{
glyphname = lcaron;
layers = (
{
layerId = "1D6BC6EA-621B-4B6F-A209-F2A632971314";
name = Regular;
paths = (
{
closed = 1;
nodes = (
"1034 -8 LINE",
"1034 148 LINE",
"819 148 LINE SMOOTH",
"699 148 OFFCURVE",
"639 231 OFFCURVE",
"639 398 CURVE SMOOTH",
"639 1556 LINE",
"160 1556 LINE",
"160 1412 LINE",
"455 1412 LINE",
"455 398 LINE SMOOTH",
"455 138 OFFCURVE",
"580 -8 OFFCURVE",
"801 -8 CURVE SMOOTH"
);
},
{
closed = 1;
nodes = (
"890 1180 LINE",
"1044 1180 LINE",
"1157 1556 LINE",
"959 1556 LINE"
);
}
);
width = 1233;
}
);
note = "\012\011lcaron\012  ";
unicode = 013E;
},
{
glyphname = uni013C;
layers = (
{
layerId = "1D6BC6EA-621B-4B6F-A209-F2A632971314";
name = Regular;
paths = (
{
closed = 1;
nodes = (
"1034 -8 LINE",
"1034 148 LINE",
"819 148 LINE SMOOTH",
"699 148 OFFCURVE",
"639 231 OFFCURVE",
"639 398 CURVE SMOOTH",
"639 1556 LINE",
"160 1556 LINE",
"160 1412 LINE",
"455 1412 LINE",
"455 398 LINE SMOOTH",
"455 138 OFFCURVE",
"580 -8 OFFCURVE",
"801 -8 CURVE SMOOTH"
);
},
{
closed = 1;
nodes = (
"403 -544 LINE",
"549 -544 LINE",
"736 -199 LINE",
"497 -199 LINE"
);
}
);
width = 1233;
}
);
note = "\012\011uni013C\012  ";
unicode = 013C;
},
{
glyphname = lslash;
layers = (
{
layerId = "1D6BC6EA-621B-4B6F-A209-F2A632971314";
name = Regular;
paths = (
{
closed = 1;
nodes = (
"1034 -8 LINE",
"1034 148 LINE",
"819 148 LINE SMOOTH",
"762 148 OFFCURVE",
"717 167 OFFCURVE",
"685 211 CURVE SMOOTH",
"654 252 OFFCURVE",
"639 315 OFFCURVE",
"639 398 CURVE SMOOTH",
"639 815 LINE",
"1034 1090 LINE",
"954 1200 LINE",
"639 981 LINE",
"639 1556 LINE",
"160 1556 LINE",
"160 1412 LINE",
"455 1412 LINE",
"455 856 LINE",
"76 592 LINE",
"156 481 LINE",
"455 690 LINE",
"455 398 LINE SMOOTH",
"455 269 OFFCURVE",
"485 169 OFFCURVE",
"546 98 CURVE SMOOTH",
"610 23 OFFCURVE",
"694 -8 OFFCURVE",
"801 -8 CURVE SMOOTH"
);
}
);
width = 1233;
}
);
note = "\012\011lslash\012  ";
unicode = 0142;
},
{
glyphname = m;
layers = (
{
layerId = "1D6BC6EA-621B-4B6F-A209-F2A632971314";
name = Regular;
paths = (
{
closed = 1;
nodes = (
"109 0 LINE",
"276 0 LINE",
"276 641 LINE SMOOTH",
"276 816 OFFCURVE",
"287 893 OFFCURVE",
"306 933 CURVE SMOOTH",
"322 969 OFFCURVE",
"351 993 OFFCURVE",
"407 993 CURVE SMOOTH",
"459 993 OFFCURVE",
"491 972 OFFCURVE",
"508 937 CURVE SMOOTH",
"524 902 OFFCURVE",
"537 836 OFFCURVE",
"537 641 CURVE SMOOTH",
"537 0 LINE",
"705 0 LINE",
"705 641 LINE SMOOTH",
"705 800 OFFCURVE",
"713 885 OFFCURVE",
"736 932 CURVE SMOOTH",
"756 975 OFFCURVE",
"790 993 OFFCURVE",
"841 993 CURVE SMOOTH",
"897 993 OFFCURVE",
"925 971 OFFCURVE",
"940 936 CURVE SMOOTH",
"959 895 OFFCURVE",
"967 810 OFFCURVE",
"967 641 CURVE SMOOTH",
"967 0 LINE",
"1135 0 LINE",
"1135 649 LINE SMOOTH",
"1135 842 OFFCURVE",
"1117 974 OFFCURVE",
"1080 1043 CURVE SMOOTH",
"1045 1111 OFFCURVE",
"981 1147 OFFCURVE",
"889 1147 CURVE SMOOTH",
"840 1147 OFFCURVE",
"798 1136 OFFCURVE",
"763 1113 CURVE SMOOTH",
"728 1090 OFFCURVE",
"699 1055 OFFCURVE",
"676 1006 CURVE",
"657 1054 OFFCURVE",
"631 1089 OFFCURVE",
"598 1112 CURVE SMOOTH",
"563 1135 OFFCURVE",
"521 1147 OFFCURVE",
"472 1147 CURVE SMOOTH",
"429 1147 OFFCURVE",
"392 1137 OFFCURVE",
"359 1116 CURVE SMOOTH",
"326 1095 OFFCURVE",
"298 1064 OFFCURVE",
"276 1024 CURVE",
"260 1120 LINE",
"109 1120 LINE"
);
}
);
width = 1233;
}
);
note = "\012\011m\012  ";
unicode = 006D;
},
{
glyphname = n;
layers = (
{
layerId = "1D6BC6EA-621B-4B6F-A209-F2A632971314";
name = Regular;
paths = (
{
closed = 1;
nodes = (
"195 0 LINE",
"379 0 LINE",
"379 633 LINE SMOOTH",
"379 748 OFFCURVE",
"402 835 OFFCURVE",
"449 896 CURVE SMOOTH",
"494 956 OFFCURVE",
"558 987 OFFCURVE",
"646 987 CURVE SMOOTH",
"722 987 OFFCURVE",
"778 963 OFFCURVE",
"813 916 CURVE SMOOTH",
"848 869 OFFCURVE",
"866 795 OFFCURVE",
"866 694 CURVE SMOOTH",
"866 0 LINE",
"1051 0 LINE",
"1051 694 LINE SMOOTH",
"1051 846 OFFCURVE",
"1023 960 OFFCURVE",
"967 1035 CURVE SMOOTH",
"912 1107 OFFCURVE",
"830 1147 OFFCURVE",
"710 1147 CURVE SMOOTH",
"633 1147 OFFCURVE",
"567 1131 OFFCURVE",
"512 1098 CURVE SMOOTH",
"457 1065 OFFCURVE",
"412 1017 OFFCURVE",
"379 952 CURVE",
"361 1120 LINE",
"195 1120 LINE"
);
}
);
width = 1233;
}
);
note = "\012\011n\012  ";
unicode = 006E;
},
{
glyphname = nacute;
layers = (
{
layerId = "1D6BC6EA-621B-4B6F-A209-F2A632971314";
name = Regular;
paths = (
{
closed = 1;
nodes = (
"495 1297 LINE",
"649 1297 LINE",
"974 1673 LINE",
"776 1673 LINE"
);
},
{
closed = 1;
nodes = (
"195 0 LINE",
"379 0 LINE",
"379 633 LINE SMOOTH",
"379 862 OFFCURVE",
"473 987 OFFCURVE",
"648 987 CURVE SMOOTH",
"799 987 OFFCURVE",
"866 895 OFFCURVE",
"866 694 CURVE SMOOTH",
"866 0 LINE",
"1051 0 LINE",
"1051 694 LINE SMOOTH",
"1051 999 OFFCURVE",
"940 1147 OFFCURVE",
"711 1147 CURVE SMOOTH",
"558 1147 OFFCURVE",
"444 1081 OFFCURVE",
"379 952 CURVE",
"361 1120 LINE",
"195 1120 LINE"
);
}
);
width = 1233;
}
);
note = "\012\011nacute\012  ";
unicode = 0144;
},
{
glyphname = ncaron;
layers = (
{
layerId = "1D6BC6EA-621B-4B6F-A209-F2A632971314";
name = Regular;
paths = (
{
closed = 1;
nodes = (
"531 1297 LINE",
"678 1297 LINE",
"924 1673 LINE",
"785 1673 LINE",
"604 1428 LINE",
"424 1673 LINE",
"285 1673 LINE"
);
},
{
closed = 1;
nodes = (
"195 0 LINE",
"379 0 LINE",
"379 633 LINE SMOOTH",
"379 862 OFFCURVE",
"473 987 OFFCURVE",
"648 987 CURVE SMOOTH",
"799 987 OFFCURVE",
"866 895 OFFCURVE",
"866 694 CURVE SMOOTH",
"866 0 LINE",
"1051 0 LINE",
"1051 694 LINE SMOOTH",
"1051 999 OFFCURVE",
"940 1147 OFFCURVE",
"711 1147 CURVE SMOOTH",
"558 1147 OFFCURVE",
"444 1081 OFFCURVE",
"379 952 CURVE",
"361 1120 LINE",
"195 1120 LINE"
);
}
);
width = 1233;
}
);
note = "\012\011ncaron\012  ";
unicode = 0148;
},
{
glyphname = uni0146;
layers = (
{
layerId = "1D6BC6EA-621B-4B6F-A209-F2A632971314";
name = Regular;
paths = (
{
closed = 1;
nodes = (
"195 0 LINE",
"379 0 LINE",
"379 633 LINE SMOOTH",
"379 862 OFFCURVE",
"473 987 OFFCURVE",
"648 987 CURVE SMOOTH",
"799 987 OFFCURVE",
"866 895 OFFCURVE",
"866 694 CURVE SMOOTH",
"866 0 LINE",
"1051 0 LINE",
"1051 694 LINE SMOOTH",
"1051 999 OFFCURVE",
"940 1147 OFFCURVE",
"711 1147 CURVE SMOOTH",
"558 1147 OFFCURVE",
"444 1081 OFFCURVE",
"379 952 CURVE",
"361 1120 LINE",
"195 1120 LINE"
);
},
{
closed = 1;
nodes = (
"456 -544 LINE",
"602 -544 LINE",
"789 -199 LINE",
"550 -199 LINE"
);
}
);
width = 1233;
}
);
note = "\012\011uni0146\012  ";
unicode = 0146;
},
{
glyphname = eng;
layers = (
{
layerId = "1D6BC6EA-621B-4B6F-A209-F2A632971314";
name = Regular;
paths = (
{
closed = 1;
nodes = (
"502 -426 LINE",
"707 -426 LINE SMOOTH",
"928 -426 OFFCURVE",
"1051 -281 OFFCURVE",
"1051 -20 CURVE SMOOTH",
"1051 694 LINE SMOOTH",
"1051 999 OFFCURVE",
"940 1147 OFFCURVE",
"711 1147 CURVE SMOOTH",
"558 1147 OFFCURVE",
"444 1081 OFFCURVE",
"379 952 CURVE",
"361 1120 LINE",
"195 1120 LINE",
"195 0 LINE",
"379 0 LINE",
"379 633 LINE SMOOTH",
"379 862 OFFCURVE",
"473 987 OFFCURVE",
"648 987 CURVE SMOOTH",
"799 987 OFFCURVE",
"866 895 OFFCURVE",
"866 694 CURVE SMOOTH",
"866 -20 LINE SMOOTH",
"866 -187 OFFCURVE",
"806 -270 OFFCURVE",
"687 -270 CURVE SMOOTH",
"502 -270 LINE"
);
}
);
width = 1233;
}
);
note = "\012\011eng\012  ";
unicode = 014B;
},
{
glyphname = ntilde;
layers = (
{
layerId = "1D6BC6EA-621B-4B6F-A209-F2A632971314";
name = Regular;
paths = (
{
closed = 1;
nodes = (
"411 1286 LINE",
"412 1339 OFFCURVE",
"418 1378 OFFCURVE",
"431 1404 CURVE SMOOTH",
"443 1429 OFFCURVE",
"462 1441 OFFCURVE",
"487 1441 CURVE SMOOTH",
"498 1441 OFFCURVE",
"505 1439 OFFCURVE",
"517 1432 CURVE SMOOTH",
"525 1427 OFFCURVE",
"538 1418 OFFCURVE",
"555 1402 CURVE SMOOTH",
"612 1347 LINE",
"638 1324 OFFCURVE",
"661 1309 OFFCURVE",
"681 1300 CURVE SMOOTH",
"703 1291 OFFCURVE",
"727 1286 OFFCURVE",
"753 1286 CURVE SMOOTH",
"813 1286 OFFCURVE",
"860 1311 OFFCURVE",
"894 1360 CURVE SMOOTH",
"927 1409 OFFCURVE",
"945 1478 OFFCURVE",
"946 1568 CURVE",
"821 1568 LINE",
"820 1513 OFFCURVE",
"813 1474 OFFCURVE",
"802 1450 CURVE SMOOTH",
"790 1425 OFFCURVE",
"771 1413 OFFCURVE",
"746 1413 CURVE SMOOTH",
"735 1413 OFFCURVE",
"729 1415 OFFCURVE",
"716 1423 CURVE SMOOTH",
"708 1428 OFFCURVE",
"693 1439 OFFCURVE",
"678 1452 CURVE",
"621 1507 LINE",
"595 1530 OFFCURVE",
"572 1545 OFFCURVE",
"552 1554 CURVE SMOOTH",
"530 1563 OFFCURVE",
"506 1568 OFFCURVE",
"480 1568 CURVE SMOOTH",
"420 1568 OFFCURVE",
"373 1543 OFFCURVE",
"339 1494 CURVE SMOOTH",
"306 1445 OFFCURVE",
"288 1376 OFFCURVE",
"287 1286 CURVE"
);
},
{
closed = 1;
nodes = (
"195 0 LINE",
"379 0 LINE",
"379 633 LINE SMOOTH",
"379 748 OFFCURVE",
"402 835 OFFCURVE",
"449 896 CURVE SMOOTH",
"494 956 OFFCURVE",
"558 987 OFFCURVE",
"646 987 CURVE SMOOTH",
"722 987 OFFCURVE",
"778 963 OFFCURVE",
"813 916 CURVE SMOOTH",
"848 869 OFFCURVE",
"866 795 OFFCURVE",
"866 694 CURVE SMOOTH",
"866 0 LINE",
"1051 0 LINE",
"1051 694 LINE SMOOTH",
"1051 846 OFFCURVE",
"1023 960 OFFCURVE",
"967 1035 CURVE SMOOTH",
"912 1107 OFFCURVE",
"830 1147 OFFCURVE",
"710 1147 CURVE SMOOTH",
"633 1147 OFFCURVE",
"567 1131 OFFCURVE",
"512 1098 CURVE SMOOTH",
"457 1065 OFFCURVE",
"412 1017 OFFCURVE",
"379 952 CURVE",
"361 1120 LINE",
"195 1120 LINE"
);
}
);
width = 1233;
}
);
note = "\012\011ntilde\012  ";
unicode = 00F1;
},
